{
.appVersion = "1357";
DisplayStrings = (
"abcdefghi/jdotless jklmnopqrstuvwxyz",
ABCDEFGHIJKLMNOPQRSTUVWXYZ,
"/commaaccentcomb G/Gcommaaccent/Kcommaaccent/Lcommaaccent/Ncommaaccent/Rcommaaccent S/Scommaaccent/Tcommaaccent/kcommaaccent/lcommaaccent/ncommaaccent/rcommaaccent/scommaaccent/tcommaaccent",
"a/Placeholder a/space b/Placeholder b/space c/Placeholder c/space d/Placeholder d/space e/Placeholder e/space f/Placeholder f/space g/Placeholder g/space h/Placeholder h/space i/Placeholder i/space jjj/space k/Placeholder k/space l/Placeholder l/space m/Placeholder m/space n/Placeholder n/space o/Placeholder o/space p/Placeholder p/space q/Placeholder q/space r/Placeholder r/space s/Placeholder s/space t/Placeholder t/space u/Placeholder u/space v/Placeholder v/space w/Placeholder w/space x/Placeholder x/space y/Placeholder y/space z/Placeholder z\012nn/Placeholder no/Placeholder oo\012abcdefghijklmnopqrstuvwxyz\012fear/space fall/space kilo/space long/space ovoide/space want/space wind/space oxo/space zapato\012Twombli/space Tgmaiwan/space Taiwan/space Tomato/space Temperture/space Tiro/space Twardock/space Walking/space Wonder/space Wc/space Wd/space/space Wrcnder/space/space You/space Family/space Fear/space Furor/space Vocal/space Viajar/space Zusam/space Pearl/space Point/space Pain/space Ayuda/space \012Kilo/space Londres/space Leon/space Lio/space Month/space \012Th/uhorn/ohorn ng/space T/ocircumflexacute t/space t/acircumflexacute t/space Nh/acircumflexacute t/space V/ocircumflexgrave ng/space/Dcroat/uhornacute ng/space B/uhornacute t/space/Dcroat/ocircumflexacute c/space k/ydotbelow ./space ng/uhorn/ohorngrave i/space Ng/uhorn/ohorntilde ng",
"non@gmail.com",
"/lcaron",
"/four.lf",
"4",

glyphs = (
{
glyphname = .notdef;
lastChange = "2021-12-03 01:38:01 +0000";
layers = (
{
layerId = "04A772B0-FA71-43EE-BB43-CAC7F0EBD631";
paths = (
{
closed = 1;
nodes = (
"479 0 LINE",
"488 8 LINE",
"488 621 LINE",
"479 630 LINE",
"58 630 LINE",
"50 620 LINE",
"50 9 LINE",
"58 0 LINE"
);
},
{
closed = 1;
nodes = (
"154 150 LINE",
"244 316 LINE",
"154 479 LINE",
"173 514 LINE",
"263 350 LINE",
"354 514 LINE",
"373 479 LINE",
"283 314 LINE",
"373 150 LINE",
"354 116 LINE",
"263 279 LINE",
"173 116 LINE"
);
},
{
closed = 1;
nodes = (
"67 613 LINE",
"471 613 LINE",
"471 16 LINE",
"67 16 LINE"
);
},
{
closed = 1;
nodes = (
"437 49 LINE",
"437 577 LINE",
"102 577 LINE",
"102 49 LINE"
);
}
);
userData = {
assembly = "SVTCA[0]	/* SetFreedomAndProjectionVectorToAxis */\012PUSHW[ ]	/* 1 value pushed */\0122 \012MDAP[1]	/* MoveDirectAbsPt */\012PUSHW[ ]	/* 1 value pushed */\0120 \012RCVT[ ]	/* ReadCVT */\012IF[ ]	/* If */\012PUSHW[ ]	/* 1 value pushed */\0126 \012MDAP[1]	/* MoveDirectAbsPt */\012ELSE[ ]	/* Else */\012PUSHW[ ]	/* 2 values pushed */\0126 7 \012MIAP[0]	/* MoveIndirectAbsPt */\012EIF[ ]	/* EndIf */\012PUSHW[ ]	/* 3 values pushed */\01216 6 2 \012SRP1[ ]	/* SetRefPoint1 */\012SRP2[ ]	/* SetRefPoint2 */\012IP[ ]	/* InterpolatePts */\012PUSHW[ ]	/* 3 values pushed */\01217 6 2 \012SRP1[ ]	/* SetRefPoint1 */\012SRP2[ ]	/* SetRefPoint2 */\012IP[ ]	/* InterpolatePts */\012PUSHW[ ]	/* 3 values pushed */\01218 6 2 \012SRP1[ ]	/* SetRefPoint1 */\012SRP2[ ]	/* SetRefPoint2 */\012IP[ ]	/* InterpolatePts */\012PUSHW[ ]	/* 3 values pushed */\01222 6 2 \012SRP1[ ]	/* SetRefPoint1 */\012SRP2[ ]	/* SetRefPoint2 */\012IP[ ]	/* InterpolatePts */\012PUSHW[ ]	/* 3 values pushed */\01223 6 2 \012SRP1[ ]	/* SetRefPoint1 */\012SRP2[ ]	/* SetRefPoint2 */\012IP[ ]	/* InterpolatePts */\012PUSHW[ ]	/* 3 values pushed */\01224 6 2 \012SRP1[ ]	/* SetRefPoint1 */\012SRP2[ ]	/* SetRefPoint2 */\012IP[ ]	/* InterpolatePts */\012IUP[0]	/* InterpolateUntPts */\012IUP[1]	/* InterpolateUntPts */";
};
width = 538;
}
);
note = .notdef;
},
{
glyphname = A;
lastChange = "2021-12-03 13:22:03 +0000";
layers = (
{
anchors = (
{
name = bottom;
position = "{205, 0}";
},
{
name = ogonek;
position = "{413, 0}";
},
{
name = top;
position = "{205, 591}";
}
);
guideLines = (
{
position = "{2914, -291}";
}
);
layerId = "04A772B0-FA71-43EE-BB43-CAC7F0EBD631";
paths = (
{
closed = 1;
nodes = (
"414 0 LINE",
"334 591 LINE",
"84 591 LINE",
"2 0 LINE"
);
},
{
closed = 1;
nodes = (
"212 184 LINE",
"205 291 LINE",
"198 184 LINE"
);
},
{
closed = 1;
nodes = (
"99 573 LINE",
"319 573 LINE",
"394 18 LINE",
"220 18 LINE",
"212 96 LINE",
"197 96 LINE",
"191 18 LINE",
"22 18 LINE"
);
},
{
closed = 1;
nodes = (
"183 27 LINE",
"188 105 LINE",
"220 105 LINE",
"227 27 LINE",
"383 27 LINE",
"311 564 LINE",
"106 564 LINE",
"32 27 LINE"
);
},
{
closed = 1;
nodes = (
"205 450 LINE",
"220 175 LINE",
"189 175 LINE"
);
}
);
userData = {
assembly = "SVTCA[0]	/* SetFreedomAndProjectionVectorToAxis */\012PUSHW[ ]	/* 4 values pushed */\0129 4 2 4 \012CALL[ ]	/* CallFunction */\012PUSHW[ ]	/* 1 value pushed */\0129 \012SRP0[ ]	/* SetRefPoint0 */\012PUSHW[ ]	/* 2 values pushed */\0123 2 \012MIRP[10100]	/* MoveIndirectRelPt */\012PUSHW[ ]	/* 1 value pushed */\0122 \012SRP0[ ]	/* SetRefPoint0 */\012PUSHW[ ]	/* 1 value pushed */\0125 \012MDRP[10000]	/* MoveDirectRelPt */\012IUP[0]	/* InterpolateUntPts */\012IUP[1]	/* InterpolateUntPts */";
};
width = 416;
}
);
leftKerningGroup = A;
note = A;
rightKerningGroup = A;
unicode = 0041;
},
{
color = 8;
glyphname = Aogonek;
lastChange = "2021-12-03 03:52:48 +0000";
layers = (
{
anchors = (
{
name = bottom;
position = "{205, 0}";
},
{
name = ogonek;
position = "{406, 0}";
},
{
name = top;
position = "{205, 591}";
}
);
background = {
components = (
{
name = A;
},
{
name = ogonek;
transform = "{1, 0, 0, 1, 91, 0}";
}
);
};
layerId = "04A772B0-FA71-43EE-BB43-CAC7F0EBD631";
paths = (
{
closed = 1;
nodes = (
"407 -96 OFFCURVE",
"401 -99 OFFCURVE",
"392 -99 CURVE SMOOTH",
"376 -99 OFFCURVE",
"355 -85 OFFCURVE",
"355 -61 CURVE SMOOTH",
"355 -39 OFFCURVE",
"370 -10 OFFCURVE",
"406 0 CURVE",
"323 591 LINE",
"88 591 LINE",
"3 0 LINE",
"176 0 LINE",
"182 86 LINE",
"219 86 LINE",
"227 0 LINE",
"334 0 LINE",
"286 -10 OFFCURVE",
"257 -49 OFFCURVE",
"257 -83 CURVE SMOOTH",
"257 -117 OFFCURVE",
"292 -151 OFFCURVE",
"350 -151 CURVE SMOOTH",
"400 -151 OFFCURVE",
"420 -137 OFFCURVE",
"427 -133 CURVE",
"410 -96 LINE"
);
},
{
closed = 1;
nodes = (
"219 163 LINE",
"183 163 LINE",
"201 466 LINE"
);
}
);
width = 409;
}
);
leftKerningGroup = A;
rightKerningGroup = A;
unicode = 0104;
},
{
glyphname = AE;
lastChange = "2021-12-03 13:22:03 +0000";
layers = (
{
anchors = (
{
name = bottom;
position = "{262, 0}";
},
{
name = top;
position = "{303, 591}";
}
);
layerId = "04A772B0-FA71-43EE-BB43-CAC7F0EBD631";
paths = (
{
closed = 1;
nodes = (
"514 0 LINE",
"514 153 LINE",
"399 153 LINE",
"391 218 LINE",
"505 218 LINE",
"505 386 LINE",
"368 386 LINE",
"367 397 OFFCURVE",
"365 406 OFFCURVE",
"364 413 CURVE SMOOTH",
"360 436 LINE",
"514 436 LINE",
"514 591 LINE",
"83 591 LINE",
"-3 0 LINE"
);
},
{
closed = 1;
nodes = (
"214 184 LINE",
"207 302 LINE",
"200 184 LINE"
);
},
{
closed = 1;
nodes = (
"205 428 LINE",
"207 450 LINE",
"208 428 LINE",
"223 175 LINE",
"191 175 LINE"
);
},
{
closed = 1;
nodes = (
"98 573 LINE",
"496 573 LINE",
"496 454 LINE",
"339 454 LINE",
"341 439 OFFCURVE",
"343 424 OFFCURVE",
"346 411 CURVE SMOOTH",
"348 398 OFFCURVE",
"350 383 OFFCURVE",
"352 368 CURVE",
"487 368 LINE",
"487 236 LINE",
"370 236 LINE",
"372 219 OFFCURVE",
"374 202 OFFCURVE",
"377 186 CURVE SMOOTH",
"380 170 OFFCURVE",
"382 153 OFFCURVE",
"384 134 CURVE",
"496 134 LINE",
"496 18 LINE",
"222 18 LINE",
"214 96 LINE",
"199 96 LINE",
"193 18 LINE",
"19 18 LINE"
);
},
{
closed = 1;
nodes = (
"185 27 LINE",
"190 105 LINE",
"223 105 LINE",
"230 27 LINE",
"487 27 LINE",
"487 125 LINE",
"376 125 LINE",
"360 245 LINE",
"478 245 LINE",
"478 359 LINE",
"344 359 LINE",
"330 463 LINE",
"487 463 LINE",
"487 564 LINE",
"106 564 LINE",
"30 27 LINE"
);
}
);
userData = {
assembly = "SVTCA[0]	/* SetFreedomAndProjectionVectorToAxis */\012PUSHW[ ]	/* 4 values pushed */\01227 3 14 4 \012CALL[ ]	/* CallFunction */\012PUSHW[ ]	/* 1 value pushed */\01214 \012SRP0[ ]	/* SetRefPoint0 */\012PUSHW[ ]	/* 1 value pushed */\0122 \012MDRP[10000]	/* MoveDirectRelPt */\012IUP[0]	/* InterpolateUntPts */\012IUP[1]	/* InterpolateUntPts */";
};
width = 523;
}
);
leftKerningGroup = AE;
note = AE;
rightKerningGroup = E;
rightMetricsKey = E;
unicode = 00C6;
},
{
glyphname = B;
lastChange = "2021-12-03 13:22:42 +0000";
layers = (
{
layerId = "04A772B0-FA71-43EE-BB43-CAC7F0EBD631";
paths = (
{
closed = 1;
nodes = (
"230 0 LINE SMOOTH",
"327 0 OFFCURVE",
"385 34 OFFCURVE",
"385 141 CURVE SMOOTH",
"385 211 LINE SMOOTH",
"385 263 OFFCURVE",
"370 299 OFFCURVE",
"341 320 CURVE",
"362 344 OFFCURVE",
"372 375 OFFCURVE",
"372 414 CURVE SMOOTH",
"372 472 LINE SMOOTH",
"372 543 OFFCURVE",
"333 591 OFFCURVE",
"238 591 CURVE SMOOTH",
"13 591 LINE",
"13 0 LINE"
);
},
{
closed = 1;
nodes = (
"181 253 LINE",
"194 253 LINE SMOOTH",
"202 253 OFFCURVE",
"207 246 OFFCURVE",
"208 231 CURVE SMOOTH",
"209 216 OFFCURVE",
"210 198 OFFCURVE",
"210 177 CURVE SMOOTH",
"210 156 OFFCURVE",
"209 138 OFFCURVE",
"207 123 CURVE SMOOTH",
"204 108 OFFCURVE",
"200 101 OFFCURVE",
"194 101 CURVE SMOOTH",
"181 101 LINE"
);
},
{
closed = 1;
nodes = (
"194 110 LINE SMOOTH",
"197 110 OFFCURVE",
"199 117 OFFCURVE",
"200 130 CURVE SMOOTH",
"201 143 OFFCURVE",
"201 158 OFFCURVE",
"201 177 CURVE SMOOTH",
"201 196 OFFCURVE",
"201 212 OFFCURVE",
"200 225 CURVE SMOOTH",
"199 238 OFFCURVE",
"197 244 OFFCURVE",
"194 244 CURVE SMOOTH",
"190 244 LINE",
"190 110 LINE"
);
},
{
closed = 1;
nodes = (
"30 573 LINE",
"238 573 LINE SMOOTH",
"321 573 OFFCURVE",
"354 532 OFFCURVE",
"354 472 CURVE SMOOTH",
"354 414 LINE SMOOTH",
"354 371 OFFCURVE",
"340 336 OFFCURVE",
"307 317 CURVE",
"346 305 OFFCURVE",
"367 271 OFFCURVE",
"367 211 CURVE SMOOTH",
"367 141 LINE SMOOTH",
"367 49 OFFCURVE",
"318 18 OFFCURVE",
"230 18 CURVE SMOOTH",
"30 18 LINE"
);
},
{
closed = 1;
nodes = (
"230 27 LINE SMOOTH",
"310 27 OFFCURVE",
"359 54 OFFCURVE",
"359 141 CURVE SMOOTH",
"359 211 LINE SMOOTH",
"359 282 OFFCURVE",
"319 314 OFFCURVE",
"270 314 CURVE",
"270 316 LINE",
"325 323 OFFCURVE",
"346 363 OFFCURVE",
"346 414 CURVE SMOOTH",
"346 472 LINE SMOOTH",
"346 527 OFFCURVE",
"314 564 OFFCURVE",
"238 564 CURVE SMOOTH",
"38 564 LINE",
"38 27 LINE"
);
},
{
closed = 1;
nodes = (
"181 488 LINE",
"194 488 LINE SMOOTH",
"202 488 OFFCURVE",
"207 481 OFFCURVE",
"208 467 CURVE SMOOTH",
"209 453 OFFCURVE",
"210 436 OFFCURVE",
"210 415 CURVE SMOOTH",
"210 395 OFFCURVE",
"209 378 OFFCURVE",
"206 364 CURVE SMOOTH",
"203 350 OFFCURVE",
"198 343 OFFCURVE",
"192 343 CURVE SMOOTH",
"181 343 LINE"
);
},
{
closed = 1;
nodes = (
"192 352 LINE SMOOTH",
"195 352 OFFCURVE",
"198 358 OFFCURVE",
"199 371 CURVE SMOOTH",
"200 383 OFFCURVE",
"201 398 OFFCURVE",
"201 415 CURVE SMOOTH",
"201 432 OFFCURVE",
"201 447 OFFCURVE",
"200 460 CURVE SMOOTH",
"199 472 OFFCURVE",
"197 478 OFFCURVE",
"194 478 CURVE SMOOTH",
"190 478 LINE",
"190 352 LINE"
);
}
);
userData = {
assembly = "SVTCA[0]	/* SetFreedomAndProjectionVectorToAxis */\012PUSHW[ ]	/* 4 values pushed */\01219 2 16 4 \012CALL[ ]	/* CallFunction */\012PUSHW[ ]	/* 4 values pushed */\01228 1 25 4 \012CALL[ ]	/* CallFunction */\012PUSHW[ ]	/* 3 values pushed */\0129 25 28 \012SRP1[ ]	/* SetRefPoint1 */\012SRP2[ ]	/* SetRefPoint2 */\012IP[ ]	/* InterpolatePts */\012PUSHW[ ]	/* 3 values pushed */\01264 25 28 \012SRP1[ ]	/* SetRefPoint1 */\012SRP2[ ]	/* SetRefPoint2 */\012IP[ ]	/* InterpolatePts */\012IUP[0]	/* InterpolateUntPts */\012IUP[1]	/* InterpolateUntPts */";
};
width = 390;
}
);
leftKerningGroup = H;
leftMetricsKey = H;
note = B;
rightKerningGroup = B;
rightMetricsKey = "=O-5";
unicode = 0042;
},
{
glyphname = C;
lastChange = "2021-12-03 13:22:03 +0000";
layers = (
{
anchors = (
{
name = bottom;
position = "{195, 0}";
},
{
name = top;
position = "{192, 591}";
}
);
layerId = "04A772B0-FA71-43EE-BB43-CAC7F0EBD631";
paths = (
{
closed = 1;
nodes = (
"314 -10 OFFCURVE",
"367 30 OFFCURVE",
"367 187 CURVE SMOOTH",
"367 280 LINE",
"204 280 LINE",
"204 298 LINE",
"367 298 LINE",
"367 450 LINE SMOOTH",
"367 559 OFFCURVE",
"301 600 OFFCURVE",
"192 600 CURVE SMOOTH",
"82 600 OFFCURVE",
"10 558 OFFCURVE",
"10 450 CURVE SMOOTH",
"10 186 LINE SMOOTH",
"10 30 OFFCURVE",
"70 -10 OFFCURVE",
"192 -10 CURVE SMOOTH"
);
},
{
closed = 1;
nodes = (
"82 8 OFFCURVE",
"27 45 OFFCURVE",
"27 186 CURVE SMOOTH",
"27 450 LINE SMOOTH",
"27 546 OFFCURVE",
"93 582 OFFCURVE",
"192 582 CURVE SMOOTH",
"291 582 OFFCURVE",
"350 546 OFFCURVE",
"350 450 CURVE SMOOTH",
"350 316 LINE",
"197 316 LINE",
"197 457 LINE SMOOTH",
"197 471 OFFCURVE",
"197 475 OFFCURVE",
"192 475 CURVE SMOOTH",
"188 475 OFFCURVE",
"186 471 OFFCURVE",
"186 457 CURVE SMOOTH",
"186 128 LINE SMOOTH",
"186 116 OFFCURVE",
"188 110 OFFCURVE",
"192 110 CURVE SMOOTH",
"195 110 OFFCURVE",
"197 116 OFFCURVE",
"197 128 CURVE SMOOTH",
"197 262 LINE",
"350 262 LINE",
"350 187 LINE SMOOTH",
"350 45 OFFCURVE",
"301 8 OFFCURVE",
"192 8 CURVE SMOOTH"
);
},
{
closed = 1;
nodes = (
"297 17 OFFCURVE",
"341 52 OFFCURVE",
"341 187 CURVE SMOOTH",
"341 253 LINE",
"205 253 LINE",
"205 128 LINE SMOOTH",
"205 118 OFFCURVE",
"204 111 OFFCURVE",
"201 107 CURVE SMOOTH",
"198 103 OFFCURVE",
"195 101 OFFCURVE",
"192 101 CURVE SMOOTH",
"187 101 OFFCURVE",
"184 103 OFFCURVE",
"182 107 CURVE SMOOTH",
"179 111 OFFCURVE",
"178 118 OFFCURVE",
"178 128 CURVE SMOOTH",
"178 457 LINE SMOOTH",
"178 472 OFFCURVE",
"180 484 OFFCURVE",
"192 484 CURVE SMOOTH",
"203 484 OFFCURVE",
"205 472 OFFCURVE",
"205 457 CURVE SMOOTH",
"205 325 LINE",
"341 325 LINE",
"341 450 LINE SMOOTH",
"341 541 OFFCURVE",
"285 573 OFFCURVE",
"192 573 CURVE SMOOTH",
"97 573 OFFCURVE",
"36 539 OFFCURVE",
"36 450 CURVE SMOOTH",
"36 186 LINE SMOOTH",
"36 51 OFFCURVE",
"86 17 OFFCURVE",
"192 17 CURVE SMOOTH"
);
}
);
width = 376;
}
);
leftKerningGroup = O;
leftMetricsKey = O;
note = C;
rightKerningGroup = C;
unicode = 0043;
},
{
color = 8;
glyphname = Ccedilla;
lastChange = "2021-12-03 03:53:48 +0000";
layers = (
{
anchors = (
{
name = bottom;
position = "{212, -168}";
},
{
name = top;
position = "{198, 591}";
}
);
background = {
components = (
{
name = C;
},
{
name = cedilla;
}
);
};
layerId = "04A772B0-FA71-43EE-BB43-CAC7F0EBD631";
paths = (
{
closed = 1;
nodes = (
"377 564 OFFCURVE",
"311 600 OFFCURVE",
"202 600 CURVE SMOOTH",
"93 600 OFFCURVE",
"20 564 OFFCURVE",
"20 465 CURVE SMOOTH",
"20 173 LINE SMOOTH",
"20 32 OFFCURVE",
"77 -4 OFFCURVE",
"166 -11 CURVE",
"140 -64 LINE",
"181 -86 LINE",
"183 -84 OFFCURVE",
"188 -80 OFFCURVE",
"196 -80 CURVE SMOOTH",
"205 -80 OFFCURVE",
"213 -86 OFFCURVE",
"213 -96 CURVE SMOOTH",
"213 -112 OFFCURVE",
"203 -121 OFFCURVE",
"186 -121 CURVE SMOOTH",
"173 -121 OFFCURVE",
"153 -114 OFFCURVE",
"144 -106 CURVE",
"126 -153 LINE",
"135 -159 OFFCURVE",
"164 -174 OFFCURVE",
"193 -174 CURVE SMOOTH",
"259 -174 OFFCURVE",
"297 -139 OFFCURVE",
"297 -99 CURVE SMOOTH",
"297 -70 OFFCURVE",
"274 -39 OFFCURVE",
"234 -39 CURVE SMOOTH",
"222 -39 OFFCURVE",
"213 -41 OFFCURVE",
"205 -44 CURVE",
"221 -12 LINE",
"319 -8 OFFCURVE",
"377 24 OFFCURVE",
"377 174 CURVE SMOOTH",
"377 248 LINE",
"218 248 LINE",
"218 110 LINE SMOOTH",
"218 87 OFFCURVE",
"211 80 OFFCURVE",
"202 80 CURVE SMOOTH",
"192 80 OFFCURVE",
"186 87 OFFCURVE",
"186 110 CURVE SMOOTH",
"186 473 LINE SMOOTH",
"186 496 OFFCURVE",
"192 503 OFFCURVE",
"202 503 CURVE SMOOTH",
"211 503 OFFCURVE",
"218 496 OFFCURVE",
"218 473 CURVE SMOOTH",
"218 327 LINE",
"377 327 LINE",
"377 465 LINE SMOOTH"
);
}
);
width = 395;
}
);
leftKerningGroup = O;
rightKerningGroup = C;
unicode = 00C7;
},
{
glyphname = D;
lastChange = "2021-12-03 13:22:03 +0000";
layers = (
{
anchors = (
{
name = bottom;
position = "{194, 0}";
},
{
name = center;
position = "{65, 296}";
},
{
name = top;
position = "{182, 591}";
}
);
layerId = "04A772B0-FA71-43EE-BB43-CAC7F0EBD631";
paths = (
{
closed = 1;
nodes = (
"217 0 LINE SMOOTH",
"313 0 OFFCURVE",
"370 34 OFFCURVE",
"370 141 CURVE SMOOTH",
"370 472 LINE SMOOTH",
"370 543 OFFCURVE",
"331 591 OFFCURVE",
"238 591 CURVE SMOOTH",
"13 591 LINE",
"13 0 LINE"
);
},
{
closed = 1;
nodes = (
"181 484 LINE",
"194 484 LINE SMOOTH",
"198 484 OFFCURVE",
"202 482 OFFCURVE",
"205 479 CURVE SMOOTH",
"207 475 OFFCURVE",
"209 468 OFFCURVE",
"209 457 CURVE SMOOTH",
"209 127 LINE SMOOTH",
"209 116 OFFCURVE",
"207 109 OFFCURVE",
"205 106 CURVE SMOOTH",
"202 102 OFFCURVE",
"198 100 OFFCURVE",
"194 100 CURVE SMOOTH",
"181 100 LINE"
);
},
{
closed = 1;
nodes = (
"194 109 LINE SMOOTH",
"195 109 OFFCURVE",
"196 110 OFFCURVE",
"198 113 CURVE SMOOTH",
"199 115 OFFCURVE",
"200 120 OFFCURVE",
"200 127 CURVE SMOOTH",
"200 457 LINE SMOOTH",
"200 469 OFFCURVE",
"198 475 OFFCURVE",
"194 475 CURVE SMOOTH",
"190 475 LINE",
"190 109 LINE"
);
},
{
closed = 1;
nodes = (
"31 573 LINE",
"238 573 LINE SMOOTH",
"319 573 OFFCURVE",
"353 532 OFFCURVE",
"353 472 CURVE SMOOTH",
"353 141 LINE SMOOTH",
"353 50 OFFCURVE",
"304 18 OFFCURVE",
"217 18 CURVE SMOOTH",
"31 18 LINE"
);
},
{
closed = 1;
nodes = (
"217 27 LINE SMOOTH",
"297 27 OFFCURVE",
"345 54 OFFCURVE",
"345 141 CURVE SMOOTH",
"345 472 LINE SMOOTH",
"345 527 OFFCURVE",
"314 564 OFFCURVE",
"238 564 CURVE SMOOTH",
"39 564 LINE",
"39 27 LINE"
);
}
);
userData = {
assembly = "PUSHW[ ]	/* 4 values pushed */\01235 6 8 4 \012CALL[ ]	/* CallFunction */\012PUSHW[ ]	/* 1 value pushed */\01235 \012SRP0[ ]	/* SetRefPoint0 */\012PUSHW[ ]	/* 1 value pushed */\01252 \012MDRP[11100]	/* MoveDirectRelPt */\012SVTCA[0]	/* SetFreedomAndProjectionVectorToAxis */\012PUSHW[ ]	/* 4 values pushed */\01216 2 8 4 \012CALL[ ]	/* CallFunction */\012IUP[0]	/* InterpolateUntPts */\012IUP[1]	/* InterpolateUntPts */";
};
width = 380;
}
);
leftKerningGroup = H;
leftMetricsKey = H;
note = D;
rightKerningGroup = O;
rightMetricsKey = O;
unicode = 0044;
},
{
glyphname = Eth;
lastChange = "2021-12-03 13:22:03 +0000";
layers = (
{
layerId = "04A772B0-FA71-43EE-BB43-CAC7F0EBD631";
paths = (
{
closed = 1;
nodes = (
"252 0 LINE SMOOTH",
"409 0 OFFCURVE",
"420 64 OFFCURVE",
"420 232 CURVE SMOOTH",
"420 380 LINE SMOOTH",
"420 544 OFFCURVE",
"415 591 OFFCURVE",
"259 591 CURVE SMOOTH",
"36 591 LINE",
"36 300 LINE",
"4 300 LINE",
"4 163 LINE",
"36 163 LINE",
"36 0 LINE"
);
},
{
closed = 1;
nodes = (
"53 182 LINE",
"22 182 LINE",
"22 282 LINE",
"53 282 LINE",
"53 573 LINE",
"259 573 LINE SMOOTH",
"400 573 OFFCURVE",
"403 527 OFFCURVE",
"403 380 CURVE SMOOTH",
"403 232 LINE SMOOTH",
"403 77 OFFCURVE",
"392 18 OFFCURVE",
"252 18 CURVE SMOOTH",
"53 18 LINE"
);
},
{
closed = 1;
nodes = (
"252 27 LINE SMOOTH",
"385 27 OFFCURVE",
"394 85 OFFCURVE",
"394 232 CURVE SMOOTH",
"394 380 LINE SMOOTH",
"394 521 OFFCURVE",
"391 564 OFFCURVE",
"259 564 CURVE SMOOTH",
"62 564 LINE",
"62 273 LINE",
"30 273 LINE",
"30 191 LINE",
"62 191 LINE",
"62 27 LINE"
);
},
{
closed = 1;
nodes = (
"209 191 LINE",
"226 191 LINE",
"226 273 LINE",
"209 273 LINE",
"209 488 LINE",
"229 488 LINE SMOOTH",
"242 488 OFFCURVE",
"251 482 OFFCURVE",
"251 461 CURVE SMOOTH",
"251 129 LINE SMOOTH",
"251 106 OFFCURVE",
"242 101 OFFCURVE",
"229 101 CURVE SMOOTH",
"209 101 LINE"
);
},
{
closed = 1;
nodes = (
"229 110 LINE SMOOTH",
"237 110 OFFCURVE",
"242 114 OFFCURVE",
"242 129 CURVE SMOOTH",
"242 326 LINE SMOOTH",
"242 342 OFFCURVE",
"242 362 OFFCURVE",
"243 386 CURVE SMOOTH",
"243 461 LINE SMOOTH",
"243 476 OFFCURVE",
"237 479 OFFCURVE",
"229 479 CURVE SMOOTH",
"217 479 LINE",
"217 282 LINE",
"235 282 LINE",
"235 182 LINE",
"217 182 LINE",
"217 110 LINE"
);
}
);
userData = {
assembly = "PUSHW[ ]	/* 4 values pushed */\0127 6 18 4 \012CALL[ ]	/* CallFunction */\012PUSHW[ ]	/* 1 value pushed */\01218 \012SRP0[ ]	/* SetRefPoint0 */\012PUSHW[ ]	/* 1 value pushed */\01231 \012MDRP[10000]	/* MoveDirectRelPt */\012PUSHW[ ]	/* 1 value pushed */\0127 \012SRP0[ ]	/* SetRefPoint0 */\012PUSHW[ ]	/* 1 value pushed */\01287 \012MDRP[11100]	/* MoveDirectRelPt */\012SVTCA[0]	/* SetFreedomAndProjectionVectorToAxis */\012PUSHW[ ]	/* 4 values pushed */\01228 2 13 4 \012CALL[ ]	/* CallFunction */\012PUSHW[ ]	/* 4 values pushed */\0120 2 15 4 \012CALL[ ]	/* CallFunction */\012PUSHW[ ]	/* 1 value pushed */\0120 \012SRP0[ ]	/* SetRefPoint0 */\012PUSHW[ ]	/* 1 value pushed */\01223 \012MDRP[10000]	/* MoveDirectRelPt */\012PUSHW[ ]	/* 1 value pushed */\01215 \012SRP0[ ]	/* SetRefPoint0 */\012PUSHW[ ]	/* 1 value pushed */\01225 \012MDRP[10000]	/* MoveDirectRelPt */\012IUP[0]	/* InterpolateUntPts */\012IUP[1]	/* InterpolateUntPts */";
};
width = 430;
}
);
leftKerningGroup = H;
note = Eth;
rightKerningGroup = O;
rightMetricsKey = O;
unicode = 00D0;
},
{
glyphname = Dcroat;
lastChange = "2021-12-03 13:22:03 +0000";
layers = (
{
layerId = "04A772B0-FA71-43EE-BB43-CAC7F0EBD631";
paths = (
{
closed = 1;
nodes = (
"252 0 LINE SMOOTH",
"409 0 OFFCURVE",
"420 64 OFFCURVE",
"420 232 CURVE SMOOTH",
"420 380 LINE SMOOTH",
"420 544 OFFCURVE",
"415 591 OFFCURVE",
"259 591 CURVE SMOOTH",
"36 591 LINE",
"36 300 LINE",
"4 300 LINE",
"4 163 LINE",
"36 163 LINE",
"36 0 LINE"
);
},
{
closed = 1;
nodes = (
"53 182 LINE",
"22 182 LINE",
"22 282 LINE",
"53 282 LINE",
"53 573 LINE",
"259 573 LINE SMOOTH",
"400 573 OFFCURVE",
"403 527 OFFCURVE",
"403 380 CURVE SMOOTH",
"403 232 LINE SMOOTH",
"403 77 OFFCURVE",
"392 18 OFFCURVE",
"252 18 CURVE SMOOTH",
"53 18 LINE"
);
},
{
closed = 1;
nodes = (
"252 27 LINE SMOOTH",
"385 27 OFFCURVE",
"394 85 OFFCURVE",
"394 232 CURVE SMOOTH",
"394 380 LINE SMOOTH",
"394 521 OFFCURVE",
"391 564 OFFCURVE",
"259 564 CURVE SMOOTH",
"62 564 LINE",
"62 273 LINE",
"30 273 LINE",
"30 191 LINE",
"62 191 LINE",
"62 27 LINE"
);
},
{
closed = 1;
nodes = (
"209 191 LINE",
"226 191 LINE",
"226 273 LINE",
"209 273 LINE",
"209 488 LINE",
"229 488 LINE SMOOTH",
"242 488 OFFCURVE",
"251 482 OFFCURVE",
"251 461 CURVE SMOOTH",
"251 129 LINE SMOOTH",
"251 106 OFFCURVE",
"242 101 OFFCURVE",
"229 101 CURVE SMOOTH",
"209 101 LINE"
);
},
{
closed = 1;
nodes = (
"229 110 LINE SMOOTH",
"237 110 OFFCURVE",
"242 114 OFFCURVE",
"242 129 CURVE SMOOTH",
"242 326 LINE SMOOTH",
"242 342 OFFCURVE",
"242 362 OFFCURVE",
"243 386 CURVE SMOOTH",
"243 461 LINE SMOOTH",
"243 476 OFFCURVE",
"237 479 OFFCURVE",
"229 479 CURVE SMOOTH",
"217 479 LINE",
"217 282 LINE",
"235 282 LINE",
"235 182 LINE",
"217 182 LINE",
"217 110 LINE"
);
}
);
userData = {
assembly = "PUSHW[ ]	/* 4 values pushed */\0127 6 18 4 \012CALL[ ]	/* CallFunction */\012PUSHW[ ]	/* 1 value pushed */\01218 \012SRP0[ ]	/* SetRefPoint0 */\012PUSHW[ ]	/* 1 value pushed */\01231 \012MDRP[10000]	/* MoveDirectRelPt */\012PUSHW[ ]	/* 1 value pushed */\0127 \012SRP0[ ]	/* SetRefPoint0 */\012PUSHW[ ]	/* 1 value pushed */\01287 \012MDRP[11100]	/* MoveDirectRelPt */\012SVTCA[0]	/* SetFreedomAndProjectionVectorToAxis */\012PUSHW[ ]	/* 4 values pushed */\01228 2 13 4 \012CALL[ ]	/* CallFunction */\012PUSHW[ ]	/* 4 values pushed */\0120 2 15 4 \012CALL[ ]	/* CallFunction */\012PUSHW[ ]	/* 1 value pushed */\0120 \012SRP0[ ]	/* SetRefPoint0 */\012PUSHW[ ]	/* 1 value pushed */\01223 \012MDRP[10000]	/* MoveDirectRelPt */\012PUSHW[ ]	/* 1 value pushed */\01215 \012SRP0[ ]	/* SetRefPoint0 */\012PUSHW[ ]	/* 1 value pushed */\01225 \012MDRP[10000]	/* MoveDirectRelPt */\012IUP[0]	/* InterpolateUntPts */\012IUP[1]	/* InterpolateUntPts */";
};
width = 430;
}
);
leftKerningGroup = H;
note = Dcroat;
rightKerningGroup = O;
unicode = 0110;
},
{
glyphname = E;
lastChange = "2021-12-03 13:22:03 +0000";
layers = (
{
anchors = (
{
name = bottom;
position = "{159, 0}";
},
{
name = ogonek;
position = "{296, 10}";
},
{
name = top;
position = "{159, 591}";
},
{
name = topleft;
position = "{8, 591}";
}
);
layerId = "04A772B0-FA71-43EE-BB43-CAC7F0EBD631";
paths = (
{
closed = 1;
nodes = (
"299 0 LINE",
"299 153 LINE",
"199 153 LINE",
"199 218 LINE",
"290 218 LINE",
"290 386 LINE",
"199 386 LINE",
"199 436 LINE",
"299 436 LINE",
"299 591 LINE",
"13 591 LINE",
"13 0 LINE"
);
},
{
closed = 1;
nodes = (
"29 573 LINE",
"282 573 LINE",
"282 454 LINE",
"183 454 LINE",
"183 368 LINE",
"274 368 LINE",
"274 236 LINE",
"183 236 LINE",
"183 134 LINE",
"282 134 LINE",
"282 18 LINE",
"29 18 LINE"
);
},
{
closed = 1;
nodes = (
"274 27 LINE",
"274 125 LINE",
"175 125 LINE",
"175 245 LINE",
"266 245 LINE",
"266 359 LINE",
"175 359 LINE",
"175 463 LINE",
"274 463 LINE",
"274 564 LINE",
"37 564 LINE",
"37 27 LINE"
);
}
);
userData = {
assembly = "SVTCA[0]	/* SetFreedomAndProjectionVectorToAxis */\012PUSHW[ ]	/* 4 values pushed */\0129 3 10 4 \012CALL[ ]	/* CallFunction */\012IUP[0]	/* InterpolateUntPts */\012IUP[1]	/* InterpolateUntPts */";
};
width = 308;
}
);
leftKerningGroup = H;
leftMetricsKey = H;
note = E;
rightKerningGroup = E;
unicode = 0045;
},
{
color = 8;
glyphname = Eogonek;
lastChange = "2021-12-03 03:52:48 +0000";
layers = (
{
anchors = (
{
name = bottom;
position = "{164, 0}";
},
{
name = ogonek;
position = "{287, 0}";
},
{
name = top;
position = "{167, 591}";
},
{
name = topleft;
position = "{20, 591}";
}
);
background = {
components = (
{
name = E;
},
{
name = ogonek;
}
);
};
layerId = "04A772B0-FA71-43EE-BB43-CAC7F0EBD631";
paths = (
{
closed = 1;
nodes = (
"25 591 LINE",
"25 0 LINE",
"215 0 LINE",
"167 -10 OFFCURVE",
"138 -49 OFFCURVE",
"138 -83 CURVE SMOOTH",
"138 -117 OFFCURVE",
"173 -151 OFFCURVE",
"231 -151 CURVE SMOOTH",
"281 -151 OFFCURVE",
"301 -137 OFFCURVE",
"308 -133 CURVE",
"291 -96 LINE",
"288 -96 OFFCURVE",
"282 -99 OFFCURVE",
"273 -99 CURVE SMOOTH",
"257 -99 OFFCURVE",
"236 -85 OFFCURVE",
"236 -61 CURVE SMOOTH",
"236 -39 OFFCURVE",
"251 -10 OFFCURVE",
"287 0 CURVE",
"311 0 LINE",
"311 108 LINE",
"191 108 LINE",
"191 240 LINE",
"301 240 LINE",
"301 365 LINE",
"191 365 LINE",
"191 480 LINE",
"311 480 LINE",
"311 591 LINE"
);
}
);
width = 328;
}
);
leftKerningGroup = H;
rightKerningGroup = E;
unicode = 0118;
},
{
glyphname = F;
lastChange = "2021-12-03 13:22:03 +0000";
layers = (
{
layerId = "04A772B0-FA71-43EE-BB43-CAC7F0EBD631";
paths = (
{
closed = 1;
nodes = (
"199 0 LINE",
"199 218 LINE",
"290 218 LINE",
"290 386 LINE",
"199 386 LINE",
"199 436 LINE",
"299 436 LINE",
"299 591 LINE",
"13 591 LINE",
"13 0 LINE"
);
},
{
closed = 1;
nodes = (
"29 573 LINE",
"282 573 LINE",
"282 454 LINE",
"183 454 LINE",
"183 368 LINE",
"274 368 LINE",
"274 236 LINE",
"183 236 LINE",
"183 18 LINE",
"29 18 LINE"
);
},
{
closed = 1;
nodes = (
"175 27 LINE",
"175 245 LINE",
"266 245 LINE",
"266 359 LINE",
"175 359 LINE",
"175 463 LINE",
"274 463 LINE",
"274 564 LINE",
"37 564 LINE",
"37 27 LINE"
);
}
);
userData = {
assembly = "SVTCA[0]	/* SetFreedomAndProjectionVectorToAxis */\012PUSHW[ ]	/* 1 value pushed */\0128 \012MDAP[1]	/* MoveDirectAbsPt */\012IUP[0]	/* InterpolateUntPts */\012IUP[1]	/* InterpolateUntPts */";
};
width = 307;
}
);
leftKerningGroup = H;
leftMetricsKey = H;
note = F;
rightKerningGroup = F;
unicode = 0046;
},
{
glyphname = G;
lastChange = "2021-12-03 13:22:03 +0000";
layers = (
{
anchors = (
{
name = bottom;
position = "{218, 0}";
},
{
name = top;
position = "{195, 591}";
}
);
layerId = "04A772B0-FA71-43EE-BB43-CAC7F0EBD631";
paths = (
{
closed = 1;
nodes = (
"177 -9 OFFCURVE",
"198 1 OFFCURVE",
"215 16 CURVE",
"218 0 LINE",
"367 0 LINE",
"367 339 LINE",
"367 449 LINE SMOOTH",
"367 557 OFFCURVE",
"295 599 OFFCURVE",
"186 599 CURVE SMOOTH",
"79 599 OFFCURVE",
"10 558 OFFCURVE",
"10 449 CURVE SMOOTH",
"10 165 LINE SMOOTH",
"10 33 OFFCURVE",
"65 -9 OFFCURVE",
"146 -9 CURVE SMOOTH"
);
},
{
closed = 1;
nodes = (
"198 109 OFFCURVE",
"201 115 OFFCURVE",
"201 127 CURVE SMOOTH",
"201 221 LINE",
"180 221 LINE",
"180 127 LINE SMOOTH",
"180 115 OFFCURVE",
"184 109 OFFCURVE",
"191 109 CURVE SMOOTH"
);
},
{
closed = 1;
nodes = (
"75 9 OFFCURVE",
"27 47 OFFCURVE",
"27 165 CURVE SMOOTH",
"27 449 LINE SMOOTH",
"27 544 OFFCURVE",
"90 581 OFFCURVE",
"186 581 CURVE SMOOTH",
"283 581 OFFCURVE",
"350 544 OFFCURVE",
"350 449 CURVE SMOOTH",
"350 358 LINE",
"201 358 LINE",
"201 458 LINE SMOOTH",
"201 470 OFFCURVE",
"198 476 OFFCURVE",
"191 476 CURVE SMOOTH",
"184 476 OFFCURVE",
"180 470 OFFCURVE",
"180 458 CURVE SMOOTH",
"180 320 LINE",
"350 320 LINE",
"350 18 LINE",
"232 18 LINE",
"223 55 LINE",
"211 31 OFFCURVE",
"189 9 OFFCURVE",
"146 9 CURVE SMOOTH"
);
},
{
closed = 1;
nodes = (
"195 18 OFFCURVE",
"216 54 OFFCURVE",
"227 84 CURVE",
"239 27 LINE",
"341 27 LINE",
"341 311 LINE",
"188 311 LINE",
"188 230 LINE",
"210 230 LINE",
"210 127 LINE SMOOTH",
"210 106 OFFCURVE",
"202 100 OFFCURVE",
"191 100 CURVE SMOOTH",
"180 100 OFFCURVE",
"172 106 OFFCURVE",
"172 127 CURVE SMOOTH",
"172 458 LINE SMOOTH",
"172 479 OFFCURVE",
"180 485 OFFCURVE",
"191 485 CURVE SMOOTH",
"202 485 OFFCURVE",
"210 479 OFFCURVE",
"210 458 CURVE SMOOTH",
"210 367 LINE",
"341 367 LINE",
"341 449 LINE SMOOTH",
"341 538 OFFCURVE",
"278 572 OFFCURVE",
"186 572 CURVE SMOOTH",
"95 572 OFFCURVE",
"36 538 OFFCURVE",
"36 449 CURVE SMOOTH",
"36 165 LINE SMOOTH",
"36 56 OFFCURVE",
"78 18 OFFCURVE",
"146 18 CURVE SMOOTH"
);
}
);
userData = {
assembly = "PUSHW[ ]	/* 4 values pushed */\01231 6 66 4 \012CALL[ ]	/* CallFunction */\012SVTCA[0]	/* SetFreedomAndProjectionVectorToAxis */\012PUSHW[ ]	/* 1 value pushed */\0121 \012MDAP[1]	/* MoveDirectAbsPt */\012PUSHW[ ]	/* 4 values pushed */\01235 2 8 4 \012CALL[ ]	/* CallFunction */\012PUSHW[ ]	/* 3 values pushed */\0123 8 35 \012SRP1[ ]	/* SetRefPoint1 */\012SRP2[ ]	/* SetRefPoint2 */\012IP[ ]	/* InterpolatePts */\012PUSHW[ ]	/* 3 values pushed */\01275 8 35 \012SRP1[ ]	/* SetRefPoint1 */\012SRP2[ ]	/* SetRefPoint2 */\012IP[ ]	/* InterpolatePts */\012PUSHW[ ]	/* 1 value pushed */\0128 \012SRP0[ ]	/* SetRefPoint0 */\012PUSHW[ ]	/* 1 value pushed */\01276 \012MDRP[10000]	/* MoveDirectRelPt */\012IUP[0]	/* InterpolateUntPts */\012IUP[1]	/* InterpolateUntPts */";
};
width = 376;
}
);
leftKerningGroup = O;
leftMetricsKey = O;
note = G;
rightKerningGroup = G;
unicode = 0047;
},
{
glyphname = H;
lastChange = "2021-12-03 13:22:03 +0000";
layers = (
{
anchors = (
{
name = bottom;
position = "{190, 0}";
},
{
name = center;
position = "{195, 296}";
},
{
name = top;
position = "{190, 591}";
},
{
name = topleft;
position = "{8, 591}";
}
);
layerId = "04A772B0-FA71-43EE-BB43-CAC7F0EBD631";
paths = (
{
closed = 1;
nodes = (
"367 0 LINE",
"367 591 LINE",
"13 591 LINE",
"13 0 LINE"
);
},
{
closed = 1;
nodes = (
"30 573 LINE",
"184 573 LINE",
"184 365 LINE",
"197 365 LINE",
"197 573 LINE",
"350 573 LINE",
"350 18 LINE",
"197 18 LINE",
"197 241 LINE",
"184 241 LINE",
"184 18 LINE",
"30 18 LINE"
);
},
{
closed = 1;
nodes = (
"175 27 LINE",
"175 250 LINE",
"206 250 LINE",
"206 27 LINE",
"342 27 LINE",
"342 564 LINE",
"206 564 LINE",
"206 356 LINE",
"175 356 LINE",
"175 564 LINE",
"39 564 LINE",
"39 27 LINE"
);
}
);
userData = {
assembly = "SVTCA[0]	/* SetFreedomAndProjectionVectorToAxis */\012PUSHW[ ]	/* 1 value pushed */\0121 \012MDAP[1]	/* MoveDirectAbsPt */\012PUSHW[ ]	/* 1 value pushed */\0129 \012MDAP[1]	/* MoveDirectAbsPt */\012PUSHW[ ]	/* 4 values pushed */\0125 3 0 4 \012CALL[ ]	/* CallFunction */\012IUP[0]	/* InterpolateUntPts */\012IUP[1]	/* InterpolateUntPts */";
};
width = 380;
}
);
leftKerningGroup = H;
note = H;
rightKerningGroup = H;
unicode = 0048;
},
{
color = 8;
glyphname = Hbar;
lastChange = "2021-12-03 03:56:40 +0000";
layers = (
{
anchors = (
{
name = bottom;
position = "{202, 0}";
},
{
name = center;
position = "{202, 296}";
},
{
name = top;
position = "{202, 591}";
},
{
name = topleft;
position = "{20, 591}";
}
);
background = {
components = (
{
name = H;
},
{
name = hyphen;
transform = "{1.91197, 0, 0, 0.69208, -57, 307}";
}
);
};
layerId = "04A772B0-FA71-43EE-BB43-CAC7F0EBD631";
paths = (
{
closed = 1;
nodes = (
"184 0 LINE",
"184 245 LINE",
"220 245 LINE",
"220 0 LINE",
"379 0 LINE",
"379 591 LINE",
"220 591 LINE",
"220 362 LINE",
"184 362 LINE",
"184 591 LINE",
"25 591 LINE",
"25 0 LINE"
);
},
{
closed = 1;
nodes = (
"406 435 LINE",
"406 507 LINE",
"0 507 LINE",
"0 435 LINE"
);
}
);
width = 404;
}
);
leftKerningGroup = H;
rightKerningGroup = H;
unicode = 0126;
},
{
glyphname = I;
lastChange = "2021-12-03 13:22:03 +0000";
layers = (
{
anchors = (
{
name = bottom;
position = "{91, 0}";
},
{
name = ogonek;
position = "{160, 0}";
},
{
name = top;
position = "{91, 591}";
},
{
name = topleft;
position = "{-4, 591}";
}
);
layerId = "04A772B0-FA71-43EE-BB43-CAC7F0EBD631";
paths = (
{
closed = 1;
nodes = (
"172 0 LINE",
"172 591 LINE",
"13 591 LINE",
"13 0 LINE"
);
},
{
closed = 1;
nodes = (
"27 573 LINE",
"157 573 LINE",
"157 18 LINE",
"27 18 LINE"
);
},
{
closed = 1;
nodes = (
"150 27 LINE",
"150 564 LINE",
"35 564 LINE",
"35 27 LINE"
);
}
);
userData = {
assembly = "SVTCA[0]	/* SetFreedomAndProjectionVectorToAxis */\012PUSHW[ ]	/* 1 value pushed */\0120 \012MDAP[1]	/* MoveDirectAbsPt */\012IUP[0]	/* InterpolateUntPts */\012IUP[1]	/* InterpolateUntPts */";
};
width = 185;
}
);
leftKerningGroup = H;
leftMetricsKey = H;
note = I;
rightKerningGroup = H;
rightMetricsKey = H;
unicode = 0049;
},
{
color = 8;
glyphname = Iogonek;
lastChange = "2021-12-03 03:52:48 +0000";
layers = (
{
anchors = (
{
name = bottom;
position = "{105, 0}";
},
{
name = ogonek;
position = "{184, 0}";
},
{
name = top;
position = "{105, 591}";
},
{
name = topleft;
position = "{20, 591}";
}
);
background = {
components = (
{
name = I;
},
{
name = ogonek;
transform = "{1, 0, 0, 1, -105, 0}";
}
);
};
layerId = "04A772B0-FA71-43EE-BB43-CAC7F0EBD631";
paths = (
{
closed = 1;
nodes = (
"185 -96 OFFCURVE",
"179 -99 OFFCURVE",
"170 -99 CURVE SMOOTH",
"154 -99 OFFCURVE",
"133 -85 OFFCURVE",
"133 -61 CURVE SMOOTH",
"133 -39 OFFCURVE",
"148 -10 OFFCURVE",
"184 0 CURVE",
"184 591 LINE",
"25 591 LINE",
"25 0 LINE",
"112 0 LINE",
"64 -10 OFFCURVE",
"35 -49 OFFCURVE",
"35 -83 CURVE SMOOTH",
"35 -117 OFFCURVE",
"70 -151 OFFCURVE",
"128 -151 CURVE SMOOTH",
"178 -151 OFFCURVE",
"198 -137 OFFCURVE",
"205 -133 CURVE",
"188 -96 LINE"
);
}
);
width = 209;
}
);
unicode = 012E;
},
{
glyphname = J;
lastChange = "2021-12-03 13:22:42 +0000";
layers = (
{
anchors = (
{
name = bottom;
position = "{134, 0}";
},
{
name = top;
position = "{150, 591}";
}
);
layerId = "04A772B0-FA71-43EE-BB43-CAC7F0EBD631";
paths = (
{
closed = 1;
nodes = (
"192 -1 OFFCURVE",
"237 41 OFFCURVE",
"237 172 CURVE SMOOTH",
"237 591 LINE",
"63 591 LINE",
"63 169 LINE SMOOTH",
"63 154 OFFCURVE",
"61 153 OFFCURVE",
"50 153 CURVE SMOOTH",
"3 153 LINE",
"3 3 LINE",
"35 -1 OFFCURVE",
"61 -1 OFFCURVE",
"70 -1 CURVE SMOOTH"
);
},
{
closed = 1;
nodes = (
"36 17 OFFCURVE",
"27 18 OFFCURVE",
"19 19 CURVE",
"19 134 LINE",
"50 134 LINE SMOOTH",
"74 134 OFFCURVE",
"79 141 OFFCURVE",
"79 169 CURVE SMOOTH",
"79 573 LINE",
"221 573 LINE",
"221 172 LINE SMOOTH",
"221 53 OFFCURVE",
"180 17 OFFCURVE",
"70 17 CURVE SMOOTH",
"47 17 LINE SMOOTH"
);
},
{
closed = 1;
nodes = (
"70 26 LINE SMOOTH",
"175 26 OFFCURVE",
"213 60 OFFCURVE",
"213 172 CURVE SMOOTH",
"213 564 LINE",
"87 564 LINE",
"87 169 LINE SMOOTH",
"87 133 OFFCURVE",
"81 125 OFFCURVE",
"50 125 CURVE SMOOTH",
"27 125 LINE",
"27 27 LINE",
"31 26 OFFCURVE",
"38 26 OFFCURVE",
"48 26 CURVE SMOOTH"
);
}
);
width = 252;
}
);
leftKerningGroup = J;
note = J;
rightKerningGroup = J;
rightMetricsKey = "=O+5";
unicode = 004A;
},
{
glyphname = K;
lastChange = "2021-12-03 13:22:03 +0000";
layers = (
{
anchors = (
{
name = bottom;
position = "{203, 0}";
},
{
name = top;
position = "{207, 591}";
}
);
layerId = "04A772B0-FA71-43EE-BB43-CAC7F0EBD631";
paths = (
{
closed = 1;
nodes = (
"203 0 LINE",
"203 17 LINE",
"206 0 LINE",
"416 0 LINE",
"319 306 LINE",
"415 591 LINE",
"13 591 LINE",
"13 0 LINE"
);
},
{
closed = 1;
nodes = (
"30 573 LINE",
"185 573 LINE",
"185 436 LINE",
"213 573 LINE",
"391 573 LINE",
"301 306 LINE",
"346 162 LINE SMOOTH",
"361 112 OFFCURVE",
"377 64 OFFCURVE",
"392 18 CURVE",
"220 18 LINE",
"185 182 LINE",
"185 18 LINE",
"30 18 LINE"
);
},
{
closed = 1;
nodes = (
"177 27 LINE",
"177 269 LINE",
"227 27 LINE",
"381 27 LINE",
"292 306 LINE",
"379 564 LINE",
"220 564 LINE",
"177 345 LINE",
"177 564 LINE",
"39 564 LINE",
"39 27 LINE"
);
}
);
userData = {
assembly = "PUSHW[ ]	/* 4 values pushed */\0127 6 8 4 \012CALL[ ]	/* CallFunction */\012PUSHW[ ]	/* 1 value pushed */\0127 \012SRP0[ ]	/* SetRefPoint0 */\012PUSHW[ ]	/* 1 value pushed */\0120 \012MDRP[10000]	/* MoveDirectRelPt */\012SVTCA[0]	/* SetFreedomAndProjectionVectorToAxis */\012PUSHW[ ]	/* 1 value pushed */\0124 \012MDAP[1]	/* MoveDirectAbsPt */\012PUSHW[ ]	/* 1 value pushed */\0127 \012MDAP[1]	/* MoveDirectAbsPt */\012IUP[0]	/* InterpolateUntPts */\012IUP[1]	/* InterpolateUntPts */";
};
width = 419;
}
);
leftKerningGroup = H;
leftMetricsKey = H;
note = K;
rightKerningGroup = K;
unicode = 004B;
},
{
glyphname = L;
lastChange = "2021-12-03 13:22:03 +0000";
layers = (
{
anchors = (
{
name = bottom;
position = "{146, 0}";
},
{
name = center;
position = "{146, 296}";
},
{
name = top;
position = "{130, 591}";
},
{
name = topright;
position = "{271, 445}";
}
);
layerId = "04A772B0-FA71-43EE-BB43-CAC7F0EBD631";
paths = (
{
closed = 1;
nodes = (
"279 0 LINE",
"279 153 LINE",
"190 153 LINE",
"190 591 LINE",
"13 591 LINE",
"13 0 LINE"
);
},
{
closed = 1;
nodes = (
"30 573 LINE",
"174 573 LINE",
"174 134 LINE",
"263 134 LINE",
"263 18 LINE",
"30 18 LINE"
);
},
{
closed = 1;
nodes = (
"255 27 LINE",
"255 125 LINE",
"166 125 LINE",
"166 564 LINE",
"38 564 LINE",
"38 27 LINE"
);
}
);
userData = {
assembly = "PUSHW[ ]	/* 4 values pushed */\0121 6 0 4 \012CALL[ ]	/* CallFunction */\012SVTCA[0]	/* SetFreedomAndProjectionVectorToAxis */\012PUSHW[ ]	/* 4 values pushed */\0123 3 4 4 \012CALL[ ]	/* CallFunction */\012IUP[0]	/* InterpolateUntPts */\012IUP[1]	/* InterpolateUntPts */";
};
width = 284;
}
);
leftKerningGroup = H;
leftMetricsKey = H;
note = L;
rightKerningGroup = L;
unicode = 004C;
},
{
glyphname = Lslash;
lastChange = "2021-12-03 13:22:03 +0000";
layers = (
{
layerId = "04A772B0-FA71-43EE-BB43-CAC7F0EBD631";
paths = (
{
closed = 1;
nodes = (
"326 0 LINE",
"326 152 LINE",
"234 152 LINE",
"234 214 LINE",
"286 239 LINE",
"286 356 LINE",
"234 331 LINE",
"234 585 LINE",
"52 585 LINE",
"52 244 LINE",
"8 223 LINE",
"8 106 LINE",
"52 126 LINE",
"52 0 LINE"
);
},
{
closed = 1;
nodes = (
"69 155 LINE",
"25 133 LINE",
"25 211 LINE",
"69 232 LINE",
"69 567 LINE",
"217 567 LINE",
"217 304 LINE",
"225 308 OFFCURVE",
"234 312 OFFCURVE",
"244 316 CURVE SMOOTH",
"269 327 LINE",
"269 251 LINE",
"217 226 LINE",
"217 134 LINE",
"309 134 LINE",
"309 18 LINE",
"69 18 LINE"
);
},
{
closed = 1;
nodes = (
"301 27 LINE",
"301 125 LINE",
"209 125 LINE",
"209 231 LINE",
"260 257 LINE",
"260 314 LINE",
"209 289 LINE",
"209 558 LINE",
"77 558 LINE",
"77 226 LINE",
"33 205 LINE",
"33 147 LINE",
"77 168 LINE",
"77 27 LINE"
);
}
);
userData = {
assembly = "SVTCA[0]	/* SetFreedomAndProjectionVectorToAxis */\012PUSHW[ ]	/* 1 value pushed */\0129 \012MDAP[1]	/* MoveDirectAbsPt */\012PUSHW[ ]	/* 4 values pushed */\0122 3 3 4 \012CALL[ ]	/* CallFunction */\012PUSHW[ ]	/* 3 values pushed */\01236 3 2 \012SRP1[ ]	/* SetRefPoint1 */\012SRP2[ ]	/* SetRefPoint2 */\012IP[ ]	/* InterpolatePts */\012IUP[0]	/* InterpolateUntPts */\012IUP[1]	/* InterpolateUntPts */";
};
width = 336;
}
);
leftKerningGroup = H;
note = Lslash;
rightKerningGroup = L;
unicode = 0141;
},
{
glyphname = M;
lastChange = "2021-12-03 13:22:03 +0000";
layers = (
{
layerId = "04A772B0-FA71-43EE-BB43-CAC7F0EBD631";
paths = (
{
closed = 1;
nodes = (
"503 0 LINE",
"503 591 LINE",
"273 591 LINE",
"258 483 LINE",
"243 591 LINE",
"13 591 LINE",
"13 0 LINE"
);
},
{
closed = 1;
nodes = (
"31 573 LINE",
"228 573 LINE",
"258 357 LINE",
"289 573 LINE",
"485 573 LINE",
"485 18 LINE",
"344 18 LINE",
"344 255 LINE",
"314 18 LINE",
"203 18 LINE",
"173 255 LINE",
"173 18 LINE",
"31 18 LINE"
);
},
{
closed = 1;
nodes = (
"164 27 LINE",
"164 401 LINE",
"211 27 LINE",
"305 27 LINE",
"353 401 LINE",
"353 27 LINE",
"477 27 LINE",
"477 564 LINE",
"297 564 LINE",
"258 290 LINE",
"220 564 LINE",
"40 564 LINE",
"40 27 LINE"
);
}
);
userData = {
assembly = "SVTCA[0]	/* SetFreedomAndProjectionVectorToAxis */\012PUSHW[ ]	/* 1 value pushed */\0121 \012MDAP[1]	/* MoveDirectAbsPt */\012PUSHW[ ]	/* 1 value pushed */\0128 \012MDAP[1]	/* MoveDirectAbsPt */\012PUSHW[ ]	/* 1 value pushed */\01211 \012MDAP[1]	/* MoveDirectAbsPt */\012IUP[0]	/* InterpolateUntPts */\012IUP[1]	/* InterpolateUntPts */";
};
width = 516;
}
);
leftKerningGroup = H;
leftMetricsKey = H;
note = M;
rightKerningGroup = H;
rightMetricsKey = H;
unicode = 004D;
},
{
glyphname = N;
lastChange = "2021-12-03 13:22:03 +0000";
layers = (
{
anchors = (
{
name = bottom;
position = "{192, 0}";
},
{
name = top;
position = "{185, 591}";
}
);
layerId = "04A772B0-FA71-43EE-BB43-CAC7F0EBD631";
paths = (
{
closed = 1;
nodes = (
"183 0 LINE",
"183 63 LINE",
"200 0 LINE",
"362 0 LINE",
"362 591 LINE",
"193 591 LINE",
"193 527 LINE",
"176 591 LINE",
"13 591 LINE",
"13 0 LINE"
);
},
{
closed = 1;
nodes = (
"30 573 LINE",
"164 573 LINE",
"210 384 LINE",
"210 573 LINE",
"345 573 LINE",
"345 18 LINE",
"213 18 LINE",
"166 184 LINE",
"166 18 LINE",
"30 18 LINE"
);
},
{
closed = 1;
nodes = (
"158 27 LINE",
"158 250 LINE",
"220 27 LINE",
"337 27 LINE",
"337 564 LINE",
"218 564 LINE",
"218 314 LINE",
"157 564 LINE",
"39 564 LINE",
"39 27 LINE"
);
}
);
userData = {
assembly = "PUSHW[ ]	/* 4 values pushed */\01224 6 3 4 \012CALL[ ]	/* CallFunction */\012PUSHW[ ]	/* 3 values pushed */\0120 3 24 \012SRP1[ ]	/* SetRefPoint1 */\012SRP2[ ]	/* SetRefPoint2 */\012IP[ ]	/* InterpolatePts */\012PUSHW[ ]	/* 3 values pushed */\01219 3 24 \012SRP1[ ]	/* SetRefPoint1 */\012SRP2[ ]	/* SetRefPoint2 */\012IP[ ]	/* InterpolatePts */\012PUSHW[ ]	/* 1 value pushed */\01224 \012SRP0[ ]	/* SetRefPoint0 */\012PUSHW[ ]	/* 1 value pushed */\01220 \012MDRP[10000]	/* MoveDirectRelPt */\012PUSHW[ ]	/* 1 value pushed */\01220 \012MDAP[1]	/* MoveDirectAbsPt */\012SVTCA[0]	/* SetFreedomAndProjectionVectorToAxis */\012PUSHW[ ]	/* 1 value pushed */\0121 \012MDAP[1]	/* MoveDirectAbsPt */\012PUSHW[ ]	/* 1 value pushed */\0128 \012MDAP[1]	/* MoveDirectAbsPt */\012IUP[0]	/* InterpolateUntPts */\012IUP[1]	/* InterpolateUntPts */";
};
width = 375;
}
);
leftKerningGroup = H;
leftMetricsKey = H;
note = N;
rightKerningGroup = H;
rightMetricsKey = H;
unicode = 004E;
},
{
glyphname = Eng;
lastChange = "2021-12-03 13:22:03 +0000";
layers = (
{
layerId = "04A772B0-FA71-43EE-BB43-CAC7F0EBD631";
paths = (
{
closed = 1;
nodes = (
"310 -233 OFFCURVE",
"362 -193 OFFCURVE",
"362 -56 CURVE SMOOTH",
"362 608 LINE",
"193 608 LINE",
"193 542 LINE",
"176 608 LINE",
"13 608 LINE",
"13 0 LINE",
"175 0 LINE",
"175 -59 LINE SMOOTH",
"175 -74 OFFCURVE",
"172 -76 OFFCURVE",
"162 -76 CURVE SMOOTH",
"111 -76 LINE",
"111 -230 LINE",
"145 -233 OFFCURVE",
"173 -233 OFFCURVE",
"183 -233 CURVE SMOOTH"
);
},
{
closed = 1;
nodes = (
"147 -215 OFFCURVE",
"137 -214 OFFCURVE",
"129 -213 CURVE",
"129 -94 LINE",
"162 -94 LINE SMOOTH",
"187 -94 OFFCURVE",
"193 -88 OFFCURVE",
"193 -59 CURVE SMOOTH",
"193 94 LINE",
"166 190 LINE",
"166 19 LINE",
"30 19 LINE",
"30 589 LINE",
"164 589 LINE",
"210 395 LINE",
"210 589 LINE",
"345 589 LINE",
"345 -56 LINE SMOOTH",
"345 -178 OFFCURVE",
"298 -215 OFFCURVE",
"183 -215 CURVE SMOOTH",
"159 -215 LINE SMOOTH"
);
},
{
closed = 1;
nodes = (
"183 -205 LINE SMOOTH",
"294 -205 OFFCURVE",
"337 -172 OFFCURVE",
"337 -56 CURVE SMOOTH",
"337 580 LINE",
"218 580 LINE",
"218 323 LINE",
"157 580 LINE",
"39 580 LINE",
"39 28 LINE",
"158 28 LINE",
"158 257 LINE",
"201 97 LINE",
"201 -59 LINE SMOOTH",
"201 -95 OFFCURVE",
"194 -104 OFFCURVE",
"162 -104 CURVE SMOOTH",
"137 -104 LINE",
"137 -204 LINE",
"141 -205 OFFCURVE",
"149 -205 OFFCURVE",
"160 -205 CURVE SMOOTH"
);
}
);
userData = {
assembly = "PUSHW[ ]	/* 4 values pushed */\01235 6 8 4 \012CALL[ ]	/* CallFunction */\012PUSHW[ ]	/* 1 value pushed */\01235 \012SRP0[ ]	/* SetRefPoint0 */\012PUSHW[ ]	/* 1 value pushed */\0126 \012MDRP[10000]	/* MoveDirectRelPt */\012PUSHW[ ]	/* 1 value pushed */\0126 \012MDAP[1]	/* MoveDirectAbsPt */\012PUSHW[ ]	/* 1 value pushed */\01235 \012SRP0[ ]	/* SetRefPoint0 */\012PUSHW[ ]	/* 1 value pushed */\01210 \012MDRP[10000]	/* MoveDirectRelPt */\012PUSHW[ ]	/* 1 value pushed */\01210 \012MDAP[1]	/* MoveDirectAbsPt */\012PUSHW[ ]	/* 1 value pushed */\01235 \012SRP0[ ]	/* SetRefPoint0 */\012PUSHW[ ]	/* 1 value pushed */\01238 \012MDRP[10000]	/* MoveDirectRelPt */\012PUSHW[ ]	/* 1 value pushed */\01238 \012MDAP[1]	/* MoveDirectAbsPt */\012PUSHW[ ]	/* 1 value pushed */\0128 \012SRP0[ ]	/* SetRefPoint0 */\012PUSHW[ ]	/* 2 values pushed */\01251 6 \012MIRP[10100]	/* MoveIndirectRelPt */\012PUSHW[ ]	/* 3 values pushed */\01239 8 51 \012SRP1[ ]	/* SetRefPoint1 */\012SRP2[ ]	/* SetRefPoint2 */\012IP[ ]	/* InterpolatePts */\012SVTCA[0]	/* SetFreedomAndProjectionVectorToAxis */\012PUSHW[ ]	/* 1 value pushed */\0127 \012MDAP[1]	/* MoveDirectAbsPt */\012IUP[0]	/* InterpolateUntPts */\012IUP[1]	/* InterpolateUntPts */";
};
width = 375;
}
);
leftKerningGroup = H;
leftMetricsKey = H;
note = Eng;
rightKerningGroup = H;
rightMetricsKey = H;
unicode = 014A;
},
{
glyphname = O;
lastChange = "2021-12-03 13:22:03 +0000";
layers = (
{
anchors = (
{
name = bottom;
position = "{193, 0}";
},
{
name = center;
position = "{193, 296}";
},
{
name = ogonek;
position = "{257, 0}";
},
{
name = top;
position = "{192, 591}";
},
{
name = topleft;
position = "{9, 591}";
},
{
name = topright;
position = "{264, 591}";
}
);
layerId = "04A772B0-FA71-43EE-BB43-CAC7F0EBD631";
paths = (
{
closed = 1;
nodes = (
"314 -11 OFFCURVE",
"367 29 OFFCURVE",
"367 186 CURVE SMOOTH",
"367 451 LINE SMOOTH",
"367 560 OFFCURVE",
"301 601 OFFCURVE",
"192 601 CURVE SMOOTH",
"82 601 OFFCURVE",
"10 559 OFFCURVE",
"10 451 CURVE SMOOTH",
"10 185 LINE SMOOTH",
"10 29 OFFCURVE",
"70 -11 OFFCURVE",
"192 -11 CURVE SMOOTH"
);
},
{
closed = 1;
nodes = (
"82 7 OFFCURVE",
"27 44 OFFCURVE",
"27 185 CURVE SMOOTH",
"27 451 LINE SMOOTH",
"27 547 OFFCURVE",
"93 583 OFFCURVE",
"192 583 CURVE SMOOTH",
"291 583 OFFCURVE",
"350 547 OFFCURVE",
"350 451 CURVE SMOOTH",
"350 186 LINE SMOOTH",
"350 44 OFFCURVE",
"301 7 OFFCURVE",
"192 7 CURVE SMOOTH"
);
},
{
closed = 1;
nodes = (
"297 16 OFFCURVE",
"341 51 OFFCURVE",
"341 186 CURVE SMOOTH",
"341 451 LINE SMOOTH",
"341 542 OFFCURVE",
"285 574 OFFCURVE",
"192 574 CURVE SMOOTH",
"97 574 OFFCURVE",
"36 540 OFFCURVE",
"36 451 CURVE SMOOTH",
"36 185 LINE SMOOTH",
"36 50 OFFCURVE",
"86 16 OFFCURVE",
"192 16 CURVE SMOOTH"
);
},
{
closed = 1;
nodes = (
"187 100 OFFCURVE",
"184 102 OFFCURVE",
"182 106 CURVE SMOOTH",
"179 110 OFFCURVE",
"178 117 OFFCURVE",
"178 127 CURVE SMOOTH",
"178 458 LINE SMOOTH",
"178 469 OFFCURVE",
"179 476 OFFCURVE",
"182 480 CURVE SMOOTH",
"184 483 OFFCURVE",
"187 485 OFFCURVE",
"192 485 CURVE SMOOTH",
"195 485 OFFCURVE",
"198 483 OFFCURVE",
"201 480 CURVE SMOOTH",
"204 476 OFFCURVE",
"205 469 OFFCURVE",
"205 458 CURVE SMOOTH",
"205 127 LINE SMOOTH",
"205 117 OFFCURVE",
"204 110 OFFCURVE",
"201 106 CURVE SMOOTH",
"198 102 OFFCURVE",
"195 100 OFFCURVE",
"192 100 CURVE SMOOTH"
);
},
{
closed = 1;
nodes = (
"195 109 OFFCURVE",
"197 115 OFFCURVE",
"197 127 CURVE SMOOTH",
"197 458 LINE SMOOTH",
"197 465 OFFCURVE",
"197 470 OFFCURVE",
"196 473 CURVE SMOOTH",
"195 475 OFFCURVE",
"193 476 OFFCURVE",
"192 476 CURVE SMOOTH",
"190 476 OFFCURVE",
"189 475 OFFCURVE",
"188 473 CURVE SMOOTH",
"187 470 OFFCURVE",
"186 465 OFFCURVE",
"186 458 CURVE SMOOTH",
"186 127 LINE SMOOTH",
"186 115 OFFCURVE",
"188 109 OFFCURVE",
"192 109 CURVE SMOOTH"
);
}
);
width = 377;
}
);
leftKerningGroup = O;
note = O;
rightKerningGroup = O;
unicode = 004F;
},
{
color = 8;
glyphname = Ohorn;
lastChange = "2021-12-03 03:55:39 +0000";
layers = (
{
anchors = (
{
name = bottom;
position = "{199, 0}";
},
{
name = center;
position = "{199, 296}";
},
{
name = ogonek;
position = "{271, 0}";
},
{
name = top;
position = "{199, 591}";
},
{
name = topleft;
position = "{20, 591}";
},
{
name = topright;
position = "{424, 658}";
}
);
background = {
components = (
{
name = horncomb;
transform = "{1, 0, 0, 1, 202, 119}";
},
{
name = O;
}
);
};
layerId = "04A772B0-FA71-43EE-BB43-CAC7F0EBD631";
paths = (
{
closed = 1;
nodes = (
"304 612 OFFCURVE",
"294 596 OFFCURVE",
"273 592 CURVE",
"251 598 OFFCURVE",
"225 600 OFFCURVE",
"197 600 CURVE SMOOTH",
"91 600 OFFCURVE",
"20 564 OFFCURVE",
"20 465 CURVE SMOOTH",
"20 173 LINE SMOOTH",
"20 14 OFFCURVE",
"91 -12 OFFCURVE",
"197 -12 CURVE SMOOTH",
"303 -12 OFFCURVE",
"377 14 OFFCURVE",
"377 174 CURVE SMOOTH",
"377 465 LINE SMOOTH",
"377 498 OFFCURVE",
"369 524 OFFCURVE",
"354 544 CURVE",
"387 562 OFFCURVE",
"404 591 OFFCURVE",
"404 638 CURVE SMOOTH",
"404 658 LINE",
"304 658 LINE",
"304 638 LINE SMOOTH"
);
},
{
closed = 1;
nodes = (
"218 92 OFFCURVE",
"209 80 OFFCURVE",
"197 80 CURVE SMOOTH",
"185 80 OFFCURVE",
"176 92 OFFCURVE",
"176 110 CURVE SMOOTH",
"176 473 LINE SMOOTH",
"176 491 OFFCURVE",
"185 503 OFFCURVE",
"197 503 CURVE SMOOTH",
"209 503 OFFCURVE",
"218 491 OFFCURVE",
"218 473 CURVE SMOOTH",
"218 110 LINE SMOOTH"
);
}
);
width = 397;
}
);
leftKerningGroup = O;
rightKerningGroup = O;
unicode = 01A0;
},
{
color = 8;
glyphname = Oogonek;
lastChange = "2021-12-03 03:52:48 +0000";
layers = (
{
anchors = (
{
name = bottom;
position = "{199, 0}";
},
{
name = center;
position = "{199, 296}";
},
{
name = ogonek;
position = "{271, 0}";
},
{
name = top;
position = "{199, 591}";
},
{
name = topleft;
position = "{20, 591}";
},
{
name = topright;
position = "{241, 591}";
}
);
layerId = "04A772B0-FA71-43EE-BB43-CAC7F0EBD631";
paths = (
{
closed = 1;
nodes = (
"91 600 OFFCURVE",
"20 564 OFFCURVE",
"20 465 CURVE SMOOTH",
"20 173 LINE SMOOTH",
"20 29 OFFCURVE",
"79 -6 OFFCURVE",
"169 -11 CURVE",
"139 -28 OFFCURVE",
"122 -57 OFFCURVE",
"122 -83 CURVE SMOOTH",
"122 -117 OFFCURVE",
"157 -151 OFFCURVE",
"215 -151 CURVE SMOOTH",
"265 -151 OFFCURVE",
"285 -137 OFFCURVE",
"292 -133 CURVE",
"275 -96 LINE",
"272 -96 OFFCURVE",
"266 -99 OFFCURVE",
"257 -99 CURVE SMOOTH",
"241 -99 OFFCURVE",
"220 -85 OFFCURVE",
"220 -61 CURVE SMOOTH",
"220 -44 OFFCURVE",
"229 -22 OFFCURVE",
"251 -9 CURVE",
"327 2 OFFCURVE",
"377 43 OFFCURVE",
"377 174 CURVE SMOOTH",
"377 465 LINE SMOOTH",
"377 564 OFFCURVE",
"303 600 OFFCURVE",
"197 600 CURVE SMOOTH"
);
},
{
closed = 1;
nodes = (
"176 491 OFFCURVE",
"185 503 OFFCURVE",
"197 503 CURVE SMOOTH",
"209 503 OFFCURVE",
"218 491 OFFCURVE",
"218 473 CURVE SMOOTH",
"218 110 LINE SMOOTH",
"218 92 OFFCURVE",
"209 80 OFFCURVE",
"197 80 CURVE SMOOTH",
"185 80 OFFCURVE",
"176 92 OFFCURVE",
"176 110 CURVE SMOOTH",
"176 473 LINE SMOOTH"
);
}
);
width = 397;
}
);
leftKerningGroup = O;
rightKerningGroup = O;
unicode = 01EA;
},
{
glyphname = Oslash;
lastChange = "2021-12-03 13:22:03 +0000";
layers = (
{
anchors = (
{
name = bottom;
position = "{231, 0}";
},
{
name = top;
position = "{231, 591}";
}
);
layerId = "04A772B0-FA71-43EE-BB43-CAC7F0EBD631";
paths = (
{
closed = 1;
nodes = (
"123 -40 LINE",
"143 1 LINE",
"170 -8 OFFCURVE",
"197 -11 OFFCURVE",
"230 -11 CURVE SMOOTH",
"355 -11 OFFCURVE",
"409 29 OFFCURVE",
"409 187 CURVE SMOOTH",
"409 455 LINE SMOOTH",
"409 480 OFFCURVE",
"404 503 OFFCURVE",
"395 524 CURVE",
"449 634 LINE",
"329 634 LINE",
"311 596 LINE",
"288 603 OFFCURVE",
"261 606 OFFCURVE",
"230 606 CURVE SMOOTH",
"119 606 OFFCURVE",
"45 565 OFFCURVE",
"45 455 CURVE SMOOTH",
"45 186 LINE SMOOTH",
"45 139 OFFCURVE",
"51 106 OFFCURVE",
"63 77 CURVE",
"5 -40 LINE"
);
},
{
closed = 1;
nodes = (
"234 110 OFFCURVE",
"236 116 OFFCURVE",
"236 129 CURVE SMOOTH",
"236 253 LINE",
"225 231 LINE",
"225 129 LINE SMOOTH",
"225 116 OFFCURVE",
"227 110 OFFCURVE",
"230 110 CURVE SMOOTH"
);
},
{
closed = 1;
nodes = (
"226 101 OFFCURVE",
"223 103 OFFCURVE",
"220 107 CURVE SMOOTH",
"217 110 OFFCURVE",
"216 118 OFFCURVE",
"216 129 CURVE SMOOTH",
"216 233 LINE",
"244 291 LINE",
"244 129 LINE SMOOTH",
"244 118 OFFCURVE",
"243 110 OFFCURVE",
"240 107 CURVE SMOOTH",
"237 103 OFFCURVE",
"234 101 OFFCURVE",
"230 101 CURVE SMOOTH"
);
},
{
closed = 1;
nodes = (
"82 76 LINE",
"69 102 OFFCURVE",
"63 139 OFFCURVE",
"63 186 CURVE SMOOTH",
"63 455 LINE SMOOTH",
"63 552 OFFCURVE",
"129 588 OFFCURVE",
"230 588 CURVE SMOOTH",
"265 588 OFFCURVE",
"295 583 OFFCURVE",
"319 573 CURVE",
"340 615 LINE",
"420 615 LINE",
"375 524 LINE",
"384 505 OFFCURVE",
"392 480 OFFCURVE",
"392 455 CURVE SMOOTH",
"392 187 LINE SMOOTH",
"392 44 OFFCURVE",
"343 7 OFFCURVE",
"230 7 CURVE SMOOTH",
"191 7 OFFCURVE",
"161 10 OFFCURVE",
"134 23 CURVE",
"112 -22 LINE",
"34 -22 LINE"
);
},
{
closed = 1;
nodes = (
"106 -13 LINE",
"130 36 LINE",
"157 21 OFFCURVE",
"190 17 OFFCURVE",
"230 17 CURVE SMOOTH",
"336 17 OFFCURVE",
"383 52 OFFCURVE",
"383 187 CURVE SMOOTH",
"383 455 LINE SMOOTH",
"383 484 OFFCURVE",
"377 507 OFFCURVE",
"365 525 CURVE",
"405 606 LINE",
"345 606 LINE",
"324 561 LINE",
"299 573 OFFCURVE",
"267 579 OFFCURVE",
"230 579 CURVE SMOOTH",
"135 579 OFFCURVE",
"72 544 OFFCURVE",
"72 455 CURVE SMOOTH",
"72 186 LINE SMOOTH",
"72 138 OFFCURVE",
"79 104 OFFCURVE",
"92 77 CURVE",
"48 -13 LINE"
);
},
{
closed = 1;
nodes = (
"216 462 LINE SMOOTH",
"216 473 OFFCURVE",
"217 480 OFFCURVE",
"220 484 CURVE SMOOTH",
"223 487 OFFCURVE",
"226 489 OFFCURVE",
"230 489 CURVE SMOOTH",
"234 489 OFFCURVE",
"237 487 OFFCURVE",
"240 484 CURVE SMOOTH",
"243 480 OFFCURVE",
"244 473 OFFCURVE",
"244 462 CURVE SMOOTH",
"244 376 LINE",
"216 319 LINE"
);
},
{
closed = 1;
nodes = (
"236 378 LINE",
"236 462 LINE SMOOTH",
"236 469 OFFCURVE",
"235 474 OFFCURVE",
"234 477 CURVE SMOOTH",
"233 479 OFFCURVE",
"231 480 OFFCURVE",
"230 480 CURVE SMOOTH",
"229 480 OFFCURVE",
"228 479 OFFCURVE",
"227 477 CURVE SMOOTH",
"226 474 OFFCURVE",
"225 469 OFFCURVE",
"225 462 CURVE SMOOTH",
"225 356 LINE"
);
}
);
userData = {
assembly = "SVTCA[0]	/* SetFreedomAndProjectionVectorToAxis */\012PUSHW[ ]	/* 3 values pushed */\012103 4 3 \012CALL[ ]	/* CallFunction */\012PUSHW[ ]	/* 4 values pushed */\01226 2 85 4 \012CALL[ ]	/* CallFunction */\012PUSHW[ ]	/* 4 values pushed */\01272 2 40 4 \012CALL[ ]	/* CallFunction */\012PUSHW[ ]	/* 1 value pushed */\01285 \012SRP0[ ]	/* SetRefPoint0 */\012PUSHW[ ]	/* 1 value pushed */\0120 \012MDRP[10000]	/* MoveDirectRelPt */\012PUSHW[ ]	/* 1 value pushed */\0120 \012MDAP[1]	/* MoveDirectAbsPt */\012PUSHW[ ]	/* 1 value pushed */\01272 \012SRP0[ ]	/* SetRefPoint0 */\012PUSHW[ ]	/* 1 value pushed */\01213 \012MDRP[10000]	/* MoveDirectRelPt */\012PUSHW[ ]	/* 1 value pushed */\01213 \012MDAP[1]	/* MoveDirectAbsPt */\012PUSHW[ ]	/* 1 value pushed */\012103 \012SRP0[ ]	/* SetRefPoint0 */\012PUSHW[ ]	/* 1 value pushed */\01216 \012MDRP[10000]	/* MoveDirectRelPt */\012PUSHW[ ]	/* 3 values pushed */\01230 4 103 \012SRP1[ ]	/* SetRefPoint1 */\012SRP2[ ]	/* SetRefPoint2 */\012IP[ ]	/* InterpolatePts */\012PUSHW[ ]	/* 3 values pushed */\01235 4 103 \012SRP1[ ]	/* SetRefPoint1 */\012SRP2[ ]	/* SetRefPoint2 */\012IP[ ]	/* InterpolatePts */\012PUSHW[ ]	/* 3 values pushed */\01252 4 103 \012SRP1[ ]	/* SetRefPoint1 */\012SRP2[ ]	/* SetRefPoint2 */\012IP[ ]	/* InterpolatePts */\012PUSHW[ ]	/* 3 values pushed */\01257 4 103 \012SRP1[ ]	/* SetRefPoint1 */\012SRP2[ ]	/* SetRefPoint2 */\012IP[ ]	/* InterpolatePts */\012PUSHW[ ]	/* 1 value pushed */\0124 \012SRP0[ ]	/* SetRefPoint0 */\012PUSHW[ ]	/* 1 value pushed */\01288 \012MDRP[10000]	/* MoveDirectRelPt */\012PUSHW[ ]	/* 1 value pushed */\01288 \012MDAP[1]	/* MoveDirectAbsPt */\012IUP[0]	/* InterpolateUntPts */\012IUP[1]	/* InterpolateUntPts */";
};
width = 448;
}
);
leftKerningGroup = O;
note = Oslash;
rightKerningGroup = O;
unicode = 00D8;
},
{
glyphname = OE;
lastChange = "2021-12-03 13:22:03 +0000";
layers = (
{
layerId = "04A772B0-FA71-43EE-BB43-CAC7F0EBD631";
paths = (
{
closed = 1;
nodes = (
"230 -11 OFFCURVE",
"260 -8 OFFCURVE",
"283 0 CURVE",
"486 0 LINE",
"486 153 LINE",
"379 153 LINE",
"379 219 LINE",
"477 219 LINE",
"477 387 LINE",
"379 387 LINE",
"379 437 LINE",
"486 437 LINE",
"486 593 LINE",
"274 593 LINE",
"251 600 OFFCURVE",
"227 601 OFFCURVE",
"198 601 CURVE SMOOTH",
"85 601 OFFCURVE",
"10 560 OFFCURVE",
"10 451 CURVE SMOOTH",
"10 185 LINE SMOOTH",
"10 28 OFFCURVE",
"73 -11 OFFCURVE",
"198 -11 CURVE SMOOTH"
);
},
{
closed = 1;
nodes = (
"193 100 OFFCURVE",
"190 102 OFFCURVE",
"188 106 CURVE SMOOTH",
"185 110 OFFCURVE",
"184 117 OFFCURVE",
"184 127 CURVE SMOOTH",
"184 458 LINE SMOOTH",
"184 469 OFFCURVE",
"185 476 OFFCURVE",
"188 480 CURVE SMOOTH",
"190 483 OFFCURVE",
"193 485 OFFCURVE",
"198 485 CURVE SMOOTH",
"202 485 OFFCURVE",
"205 483 OFFCURVE",
"208 480 CURVE SMOOTH",
"211 476 OFFCURVE",
"212 469 OFFCURVE",
"212 458 CURVE SMOOTH",
"212 127 LINE SMOOTH",
"212 117 OFFCURVE",
"211 110 OFFCURVE",
"208 106 CURVE SMOOTH",
"205 102 OFFCURVE",
"202 100 OFFCURVE",
"198 100 CURVE SMOOTH"
);
},
{
closed = 1;
nodes = (
"201 109 OFFCURVE",
"203 115 OFFCURVE",
"203 127 CURVE SMOOTH",
"203 458 LINE SMOOTH",
"203 465 OFFCURVE",
"203 470 OFFCURVE",
"202 473 CURVE SMOOTH",
"201 475 OFFCURVE",
"199 476 OFFCURVE",
"198 476 CURVE SMOOTH",
"196 476 OFFCURVE",
"195 475 OFFCURVE",
"194 473 CURVE SMOOTH",
"193 470 OFFCURVE",
"193 465 OFFCURVE",
"193 458 CURVE SMOOTH",
"193 127 LINE SMOOTH",
"193 115 OFFCURVE",
"195 109 OFFCURVE",
"198 109 CURVE SMOOTH"
);
},
{
closed = 1;
nodes = (
"84 7 OFFCURVE",
"28 43 OFFCURVE",
"28 185 CURVE SMOOTH",
"28 451 LINE SMOOTH",
"28 547 OFFCURVE",
"95 583 OFFCURVE",
"198 583 CURVE SMOOTH",
"225 583 OFFCURVE",
"252 579 OFFCURVE",
"271 575 CURVE",
"468 575 LINE",
"468 455 LINE",
"361 455 LINE",
"361 369 LINE",
"459 369 LINE",
"459 237 LINE",
"361 237 LINE",
"361 135 LINE",
"468 135 LINE",
"468 18 LINE",
"279 18 LINE",
"256 10 OFFCURVE",
"229 7 OFFCURVE",
"198 7 CURVE SMOOTH"
);
},
{
closed = 1;
nodes = (
"229 16 OFFCURVE",
"256 19 OFFCURVE",
"277 27 CURVE",
"459 27 LINE",
"459 126 LINE",
"353 126 LINE",
"353 246 LINE",
"450 246 LINE",
"450 360 LINE",
"353 360 LINE",
"353 464 LINE",
"459 464 LINE",
"459 566 LINE",
"268 566 LINE",
"248 571 OFFCURVE",
"225 574 OFFCURVE",
"198 574 CURVE SMOOTH",
"101 574 OFFCURVE",
"36 540 OFFCURVE",
"36 451 CURVE SMOOTH",
"36 185 LINE SMOOTH",
"36 50 OFFCURVE",
"90 16 OFFCURVE",
"198 16 CURVE SMOOTH"
);
}
);
userData = {
assembly = "PUSHW[ ]	/* 4 values pushed */\01236 6 5 4 \012CALL[ ]	/* CallFunction */\012SVTCA[0]	/* SetFreedomAndProjectionVectorToAxis */\012PUSHW[ ]	/* 4 values pushed */\01225 2 54 4 \012CALL[ ]	/* CallFunction */\012PUSHW[ ]	/* 4 values pushed */\01220 3 21 4 \012CALL[ ]	/* CallFunction */\012PUSHW[ ]	/* 4 values pushed */\01211 2 32 4 \012CALL[ ]	/* CallFunction */\012PUSHW[ ]	/* 1 value pushed */\01254 \012SRP0[ ]	/* SetRefPoint0 */\012PUSHW[ ]	/* 1 value pushed */\0120 \012MDRP[10000]	/* MoveDirectRelPt */\012PUSHW[ ]	/* 1 value pushed */\0120 \012MDAP[1]	/* MoveDirectAbsPt */\012PUSHW[ ]	/* 1 value pushed */\01225 \012SRP0[ ]	/* SetRefPoint0 */\012PUSHW[ ]	/* 2 values pushed */\01222 2 \012MIRP[10100]	/* MoveIndirectRelPt */\012IUP[0]	/* InterpolateUntPts */\012IUP[1]	/* InterpolateUntPts */";
};
width = 495;
}
);
leftKerningGroup = O;
leftMetricsKey = O;
note = OE;
rightKerningGroup = E;
rightMetricsKey = E;
unicode = 0152;
},
{
glyphname = P;
lastChange = "2021-12-03 13:22:03 +0000";
layers = (
{
layerId = "04A772B0-FA71-43EE-BB43-CAC7F0EBD631";
paths = (
{
closed = 1;
nodes = (
"207 0 LINE",
"207 203 LINE",
"245 203 LINE SMOOTH",
"341 203 OFFCURVE",
"370 286 OFFCURVE",
"370 383 CURVE SMOOTH",
"370 472 LINE SMOOTH",
"370 543 OFFCURVE",
"331 591 OFFCURVE",
"238 591 CURVE SMOOTH",
"13 591 LINE",
"13 0 LINE"
);
},
{
closed = 1;
nodes = (
"31 573 LINE",
"238 573 LINE SMOOTH",
"319 573 OFFCURVE",
"353 532 OFFCURVE",
"353 472 CURVE SMOOTH",
"353 383 LINE SMOOTH",
"353 295 OFFCURVE",
"328 222 OFFCURVE",
"245 222 CURVE SMOOTH",
"190 222 LINE",
"190 18 LINE",
"31 18 LINE"
);
},
{
closed = 1;
nodes = (
"181 27 LINE",
"181 231 LINE",
"245 231 LINE SMOOTH",
"322 231 OFFCURVE",
"345 301 OFFCURVE",
"345 383 CURVE SMOOTH",
"345 472 LINE SMOOTH",
"345 527 OFFCURVE",
"314 564 OFFCURVE",
"238 564 CURVE SMOOTH",
"39 564 LINE",
"39 27 LINE"
);
},
{
closed = 1;
nodes = (
"181 488 LINE",
"194 488 LINE SMOOTH",
"201 488 OFFCURVE",
"205 481 OFFCURVE",
"207 468 CURVE SMOOTH",
"208 455 OFFCURVE",
"209 431 OFFCURVE",
"209 398 CURVE SMOOTH",
"209 364 OFFCURVE",
"207 341 OFFCURVE",
"204 328 CURVE SMOOTH",
"201 315 OFFCURVE",
"197 309 OFFCURVE",
"191 309 CURVE SMOOTH",
"181 309 LINE"
);
},
{
closed = 1;
nodes = (
"191 318 LINE SMOOTH",
"194 318 OFFCURVE",
"196 324 OFFCURVE",
"198 336 CURVE SMOOTH",
"200 347 OFFCURVE",
"201 368 OFFCURVE",
"201 398 CURVE SMOOTH",
"201 428 OFFCURVE",
"200 449 OFFCURVE",
"200 461 CURVE SMOOTH",
"199 472 OFFCURVE",
"197 478 OFFCURVE",
"194 478 CURVE SMOOTH",
"190 478 LINE",
"190 318 LINE"
);
}
);
userData = {
assembly = "SVTCA[0]	/* SetFreedomAndProjectionVectorToAxis */\012PUSHW[ ]	/* 1 value pushed */\01212 \012MDAP[1]	/* MoveDirectAbsPt */\012PUSHW[ ]	/* 4 values pushed */\01215 1 34 4 \012CALL[ ]	/* CallFunction */\012IUP[0]	/* InterpolateUntPts */\012IUP[1]	/* InterpolateUntPts */";
};
width = 378;
}
);
leftKerningGroup = H;
leftMetricsKey = H;
note = P;
rightKerningGroup = P;
unicode = 0050;
},
{
glyphname = Thorn;
lastChange = "2021-12-03 13:22:03 +0000";
layers = (
{
layerId = "04A772B0-FA71-43EE-BB43-CAC7F0EBD631";
paths = (
{
closed = 1;
nodes = (
"207 0 LINE",
"207 115 LINE",
"245 115 LINE SMOOTH",
"341 115 OFFCURVE",
"370 198 OFFCURVE",
"370 295 CURVE SMOOTH",
"370 384 LINE SMOOTH",
"370 455 OFFCURVE",
"331 503 OFFCURVE",
"238 503 CURVE SMOOTH",
"208 503 LINE",
"208 591 LINE",
"13 591 LINE",
"13 0 LINE"
);
},
{
closed = 1;
nodes = (
"31 573 LINE",
"191 573 LINE",
"191 485 LINE",
"238 485 LINE SMOOTH",
"319 485 OFFCURVE",
"353 444 OFFCURVE",
"353 384 CURVE SMOOTH",
"353 295 LINE SMOOTH",
"353 208 OFFCURVE",
"328 133 OFFCURVE",
"245 133 CURVE SMOOTH",
"190 133 LINE",
"190 18 LINE",
"31 18 LINE"
);
},
{
closed = 1;
nodes = (
"181 27 LINE",
"181 143 LINE",
"245 143 LINE SMOOTH",
"322 143 OFFCURVE",
"345 213 OFFCURVE",
"345 295 CURVE SMOOTH",
"345 384 LINE SMOOTH",
"345 439 OFFCURVE",
"314 476 OFFCURVE",
"238 476 CURVE SMOOTH",
"182 476 LINE",
"182 564 LINE",
"39 564 LINE",
"39 27 LINE"
);
},
{
closed = 1;
nodes = (
"181 399 LINE",
"194 399 LINE SMOOTH",
"201 399 OFFCURVE",
"205 393 OFFCURVE",
"207 380 CURVE SMOOTH",
"208 367 OFFCURVE",
"209 343 OFFCURVE",
"209 310 CURVE SMOOTH",
"209 276 OFFCURVE",
"207 253 OFFCURVE",
"204 240 CURVE SMOOTH",
"201 227 OFFCURVE",
"197 221 OFFCURVE",
"191 221 CURVE SMOOTH",
"181 221 LINE"
);
},
{
closed = 1;
nodes = (
"191 230 LINE SMOOTH",
"194 230 OFFCURVE",
"196 236 OFFCURVE",
"198 248 CURVE SMOOTH",
"200 259 OFFCURVE",
"201 280 OFFCURVE",
"201 310 CURVE SMOOTH",
"201 340 OFFCURVE",
"200 361 OFFCURVE",
"200 373 CURVE SMOOTH",
"199 384 OFFCURVE",
"197 390 OFFCURVE",
"194 390 CURVE SMOOTH",
"190 390 LINE",
"190 230 LINE"
);
}
);
userData = {
assembly = "SVTCA[0]	/* SetFreedomAndProjectionVectorToAxis */\012PUSHW[ ]	/* 1 value pushed */\01214 \012MDAP[1]	/* MoveDirectAbsPt */\012IUP[0]	/* InterpolateUntPts */\012IUP[1]	/* InterpolateUntPts */";
};
width = 383;
}
);
leftKerningGroup = H;
note = Thorn;
rightKerningGroup = P;
unicode = 00DE;
},
{
glyphname = Q;
lastChange = "2021-12-03 13:22:03 +0000";
layers = (
{
layerId = "04A772B0-FA71-43EE-BB43-CAC7F0EBD631";
paths = (
{
closed = 1;
nodes = (
"381 -45 LINE",
"369 -22 OFFCURVE",
"349 15 OFFCURVE",
"333 43 CURVE",
"356 74 OFFCURVE",
"368 120 OFFCURVE",
"368 188 CURVE SMOOTH",
"368 457 LINE SMOOTH",
"368 568 OFFCURVE",
"303 610 OFFCURVE",
"192 610 CURVE SMOOTH",
"81 610 OFFCURVE",
"10 568 OFFCURVE",
"10 457 CURVE SMOOTH",
"10 188 LINE SMOOTH",
"10 32 OFFCURVE",
"66 -8 OFFCURVE",
"183 -11 CURVE",
"247 -129 LINE"
);
},
{
closed = 1;
nodes = (
"192 7 LINE",
"81 7 OFFCURVE",
"27 44 OFFCURVE",
"27 188 CURVE SMOOTH",
"27 457 LINE SMOOTH",
"27 555 OFFCURVE",
"93 591 OFFCURVE",
"192 591 CURVE SMOOTH",
"291 591 OFFCURVE",
"351 554 OFFCURVE",
"351 457 CURVE SMOOTH",
"351 188 LINE SMOOTH",
"351 115 OFFCURVE",
"337 72 OFFCURVE",
"313 45 CURVE",
"320 32 OFFCURVE",
"328 18 OFFCURVE",
"336 3 CURVE SMOOTH",
"357 -39 LINE",
"253 -104 LINE"
);
},
{
closed = 1;
nodes = (
"345 -35 LINE",
"302 46 LINE",
"327 71 OFFCURVE",
"342 113 OFFCURVE",
"342 188 CURVE SMOOTH",
"342 457 LINE SMOOTH",
"342 549 OFFCURVE",
"285 582 OFFCURVE",
"192 582 CURVE SMOOTH",
"97 582 OFFCURVE",
"36 549 OFFCURVE",
"36 457 CURVE SMOOTH",
"36 188 LINE SMOOTH",
"36 52 OFFCURVE",
"87 17 OFFCURVE",
"192 17 CURVE SMOOTH",
"198 17 LINE",
"256 -91 LINE"
);
},
{
closed = 1;
nodes = (
"187 102 OFFCURVE",
"184 104 OFFCURVE",
"182 108 CURVE SMOOTH",
"179 111 OFFCURVE",
"178 118 OFFCURVE",
"178 129 CURVE SMOOTH",
"178 465 LINE SMOOTH",
"178 476 OFFCURVE",
"179 483 OFFCURVE",
"182 487 CURVE SMOOTH",
"184 490 OFFCURVE",
"187 492 OFFCURVE",
"192 492 CURVE SMOOTH",
"196 492 OFFCURVE",
"199 490 OFFCURVE",
"202 487 CURVE SMOOTH",
"205 483 OFFCURVE",
"206 476 OFFCURVE",
"206 465 CURVE SMOOTH",
"206 129 LINE SMOOTH",
"206 118 OFFCURVE",
"205 111 OFFCURVE",
"202 108 CURVE SMOOTH",
"199 104 OFFCURVE",
"196 102 OFFCURVE",
"192 102 CURVE SMOOTH"
);
},
{
closed = 1;
nodes = (
"193 111 OFFCURVE",
"195 112 OFFCURVE",
"196 115 CURVE SMOOTH",
"197 117 OFFCURVE",
"197 122 OFFCURVE",
"197 129 CURVE SMOOTH",
"197 465 LINE SMOOTH",
"197 472 OFFCURVE",
"197 477 OFFCURVE",
"196 480 CURVE SMOOTH",
"195 482 OFFCURVE",
"193 483 OFFCURVE",
"192 483 CURVE SMOOTH",
"191 483 OFFCURVE",
"190 482 OFFCURVE",
"189 480 CURVE SMOOTH",
"188 477 OFFCURVE",
"187 472 OFFCURVE",
"187 465 CURVE SMOOTH",
"187 129 LINE SMOOTH",
"187 122 OFFCURVE",
"188 117 OFFCURVE",
"189 115 CURVE SMOOTH",
"190 112 OFFCURVE",
"191 111 OFFCURVE",
"192 111 CURVE SMOOTH"
);
}
);
width = 391;
}
);
leftKerningGroup = O;
leftMetricsKey = O;
note = Q;
rightKerningGroup = Q;
rightMetricsKey = O;
unicode = 0051;
},
{
glyphname = R;
lastChange = "2021-12-03 13:22:03 +0000";
layers = (
{
anchors = (
{
name = bottom;
position = "{205, 0}";
},
{
name = top;
position = "{191, 591}";
}
);
layerId = "04A772B0-FA71-43EE-BB43-CAC7F0EBD631";
paths = (
{
closed = 1;
nodes = (
"414 0 LINE",
"358 229 LINE",
"349 256 OFFCURVE",
"345 268 OFFCURVE",
"334 280 CURVE",
"366 307 OFFCURVE",
"375 347 OFFCURVE",
"375 390 CURVE SMOOTH",
"375 472 LINE SMOOTH",
"375 541 OFFCURVE",
"335 591 OFFCURVE",
"240 591 CURVE SMOOTH",
"13 591 LINE",
"13 0 LINE"
);
},
{
closed = 1;
nodes = (
"30 573 LINE",
"240 573 LINE SMOOTH",
"323 573 OFFCURVE",
"357 531 OFFCURVE",
"357 472 CURVE SMOOTH",
"357 390 LINE SMOOTH",
"357 347 OFFCURVE",
"343 304 OFFCURVE",
"304 281 CURVE",
"319 272 OFFCURVE",
"330 257 OFFCURVE",
"343 218 CURVE",
"392 18 LINE",
"221 18 LINE",
"191 172 LINE",
"191 18 LINE",
"30 18 LINE"
);
},
{
closed = 1;
nodes = (
"183 27 LINE",
"183 254 LINE",
"229 27 LINE",
"381 27 LINE",
"333 222 LINE",
"319 264 OFFCURVE",
"303 277 OFFCURVE",
"277 280 CURVE",
"333 296 OFFCURVE",
"349 336 OFFCURVE",
"349 390 CURVE SMOOTH",
"349 472 LINE SMOOTH",
"349 527 OFFCURVE",
"316 564 OFFCURVE",
"240 564 CURVE SMOOTH",
"39 564 LINE",
"39 27 LINE"
);
},
{
closed = 1;
nodes = (
"183 488 LINE",
"196 488 LINE SMOOTH",
"203 488 OFFCURVE",
"208 481 OFFCURVE",
"209 468 CURVE SMOOTH",
"210 455 OFFCURVE",
"211 431 OFFCURVE",
"211 398 CURVE SMOOTH",
"211 365 OFFCURVE",
"210 343 OFFCURVE",
"207 333 CURVE SMOOTH",
"204 323 OFFCURVE",
"199 318 OFFCURVE",
"193 318 CURVE SMOOTH",
"183 318 LINE"
);
},
{
closed = 1;
nodes = (
"193 327 LINE SMOOTH",
"196 327 OFFCURVE",
"198 332 OFFCURVE",
"200 341 CURVE SMOOTH",
"202 350 OFFCURVE",
"203 369 OFFCURVE",
"203 398 CURVE SMOOTH",
"203 428 OFFCURVE",
"203 449 OFFCURVE",
"202 461 CURVE SMOOTH",
"201 472 OFFCURVE",
"199 478 OFFCURVE",
"196 478 CURVE SMOOTH",
"191 478 LINE",
"191 327 LINE"
);
}
);
userData = {
assembly = "PUSHW[ ]	/* 4 values pushed */\01261 6 53 4 \012CALL[ ]	/* CallFunction */\012PUSHW[ ]	/* 1 value pushed */\01253 \012SRP0[ ]	/* SetRefPoint0 */\012PUSHW[ ]	/* 2 values pushed */\01255 6 \012MIRP[10100]	/* MoveIndirectRelPt */\012PUSHW[ ]	/* 1 value pushed */\0124 \012MDRP[10000]	/* MoveDirectRelPt */\012PUSHW[ ]	/* 1 value pushed */\0124 \012MDAP[1]	/* MoveDirectAbsPt */\012PUSHW[ ]	/* 3 values pushed */\01210 53 61 \012SRP1[ ]	/* SetRefPoint1 */\012SRP2[ ]	/* SetRefPoint2 */\012IP[ ]	/* InterpolatePts */\012PUSHW[ ]	/* 3 values pushed */\01258 53 61 \012SRP1[ ]	/* SetRefPoint1 */\012SRP2[ ]	/* SetRefPoint2 */\012IP[ ]	/* InterpolatePts */\012PUSHW[ ]	/* 1 value pushed */\01261 \012SRP0[ ]	/* SetRefPoint0 */\012PUSHW[ ]	/* 1 value pushed */\01282 \012MDRP[11100]	/* MoveDirectRelPt */\012SVTCA[0]	/* SetFreedomAndProjectionVectorToAxis */\012PUSHW[ ]	/* 1 value pushed */\01216 \012MDAP[1]	/* MoveDirectAbsPt */\012PUSHW[ ]	/* 1 value pushed */\01226 \012MDAP[1]	/* MoveDirectAbsPt */\012PUSHW[ ]	/* 1 value pushed */\01253 \012MDAP[1]	/* MoveDirectAbsPt */\012IUP[0]	/* InterpolateUntPts */\012IUP[1]	/* InterpolateUntPts */";
};
width = 417;
}
);
leftKerningGroup = H;
leftMetricsKey = H;
note = R;
rightKerningGroup = R;
unicode = 0052;
},
{
glyphname = S;
lastChange = "2021-12-03 13:22:03 +0000";
layers = (
{
anchors = (
{
name = bottom;
position = "{189, 0}";
},
{
name = top;
position = "{194, 591}";
}
);
layerId = "04A772B0-FA71-43EE-BB43-CAC7F0EBD631";
paths = (
{
closed = 1;
nodes = (
"315 -7 OFFCURVE",
"384 45 OFFCURVE",
"384 183 CURVE SMOOTH",
"384 278 OFFCURVE",
"363 316 OFFCURVE",
"302 348 CURVE",
"378 348 LINE",
"378 436 LINE SMOOTH",
"378 541 OFFCURVE",
"317 594 OFFCURVE",
"195 594 CURVE SMOOTH",
"56 594 OFFCURVE",
"11 548 OFFCURVE",
"11 411 CURVE SMOOTH",
"11 316 OFFCURVE",
"33 262 OFFCURVE",
"110 226 CURVE",
"111 225 LINE",
"7 225 LINE",
"7 181 LINE SMOOTH",
"7 36 OFFCURVE",
"63 -7 OFFCURVE",
"190 -7 CURVE SMOOTH"
);
},
{
closed = 1;
nodes = (
"198 110 OFFCURVE",
"201 113 OFFCURVE",
"202 118 CURVE SMOOTH",
"203 123 OFFCURVE",
"204 134 OFFCURVE",
"204 151 CURVE SMOOTH",
"204 176 OFFCURVE",
"198 192 OFFCURVE",
"186 205 CURVE",
"186 158 LINE SMOOTH",
"186 137 OFFCURVE",
"187 124 OFFCURVE",
"188 119 CURVE SMOOTH",
"189 113 OFFCURVE",
"192 110 OFFCURVE",
"195 110 CURVE SMOOTH"
);
},
{
closed = 1;
nodes = (
"74 11 OFFCURVE",
"24 51 OFFCURVE",
"24 181 CURVE SMOOTH",
"24 207 LINE",
"182 207 LINE",
"167 219 OFFCURVE",
"148 228 OFFCURVE",
"117 243 CURVE SMOOTH",
"48 275 OFFCURVE",
"29 326 OFFCURVE",
"29 411 CURVE SMOOTH",
"29 533 OFFCURVE",
"69 576 OFFCURVE",
"195 576 CURVE SMOOTH",
"306 576 OFFCURVE",
"361 529 OFFCURVE",
"361 436 CURVE SMOOTH",
"361 366 LINE",
"213 366 LINE",
"221 361 OFFCURVE",
"230 356 OFFCURVE",
"251 348 CURVE SMOOTH",
"346 312 OFFCURVE",
"367 290 OFFCURVE",
"367 183 CURVE SMOOTH",
"367 57 OFFCURVE",
"303 11 OFFCURVE",
"190 11 CURVE SMOOTH"
);
},
{
closed = 1;
nodes = (
"297 20 OFFCURVE",
"358 64 OFFCURVE",
"358 183 CURVE SMOOTH",
"358 285 OFFCURVE",
"332 309 OFFCURVE",
"250 341 CURVE SMOOTH",
"207 359 OFFCURVE",
"180 363 OFFCURVE",
"180 416 CURVE SMOOTH",
"180 443 OFFCURVE",
"182 465 OFFCURVE",
"197 465 CURVE SMOOTH",
"206 465 OFFCURVE",
"212 459 OFFCURVE",
"213 446 CURVE SMOOTH",
"214 433 OFFCURVE",
"215 415 OFFCURVE",
"215 390 CURVE SMOOTH",
"215 376 LINE",
"352 376 LINE",
"352 436 LINE SMOOTH",
"352 523 OFFCURVE",
"300 566 OFFCURVE",
"195 566 CURVE SMOOTH",
"75 566 OFFCURVE",
"37 527 OFFCURVE",
"37 411 CURVE SMOOTH",
"37 328 OFFCURVE",
"55 282 OFFCURVE",
"120 251 CURVE SMOOTH",
"186 221 OFFCURVE",
"212 210 OFFCURVE",
"212 151 CURVE SMOOTH",
"212 130 OFFCURVE",
"211 116 OFFCURVE",
"209 110 CURVE SMOOTH",
"206 104 OFFCURVE",
"202 101 OFFCURVE",
"195 101 CURVE SMOOTH",
"189 101 OFFCURVE",
"185 104 OFFCURVE",
"182 111 CURVE SMOOTH",
"179 118 OFFCURVE",
"177 133 OFFCURVE",
"177 158 CURVE SMOOTH",
"177 198 LINE",
"33 198 LINE",
"33 181 LINE SMOOTH",
"33 57 OFFCURVE",
"81 20 OFFCURVE",
"190 20 CURVE SMOOTH"
);
},
{
closed = 1;
nodes = (
"206 390 LINE SMOOTH",
"206 411 OFFCURVE",
"206 428 OFFCURVE",
"205 439 CURVE SMOOTH",
"204 450 OFFCURVE",
"202 456 OFFCURVE",
"197 456 CURVE SMOOTH",
"193 456 OFFCURVE",
"191 452 OFFCURVE",
"190 444 CURVE SMOOTH",
"189 436 OFFCURVE",
"188 427 OFFCURVE",
"188 416 CURVE SMOOTH",
"188 393 OFFCURVE",
"195 380 OFFCURVE",
"206 371 CURVE"
);
}
);
userData = {
assembly = "PUSHW[ ]	/* 4 values pushed */\01217 6 16 4 \012CALL[ ]	/* CallFunction */\012PUSHW[ ]	/* 4 values pushed */\01240 6 41 4 \012CALL[ ]	/* CallFunction */\012PUSHW[ ]	/* 1 value pushed */\01240 \012SRP0[ ]	/* SetRefPoint0 */\012PUSHW[ ]	/* 1 value pushed */\0125 \012MDRP[10000]	/* MoveDirectRelPt */\012PUSHW[ ]	/* 1 value pushed */\0125 \012MDAP[1]	/* MoveDirectAbsPt */\012PUSHW[ ]	/* 1 value pushed */\01241 \012SRP0[ ]	/* SetRefPoint0 */\012PUSHW[ ]	/* 1 value pushed */\01224 \012MDRP[10000]	/* MoveDirectRelPt */\012PUSHW[ ]	/* 1 value pushed */\01224 \012MDAP[1]	/* MoveDirectAbsPt */\012PUSHW[ ]	/* 1 value pushed */\01216 \012SRP0[ ]	/* SetRefPoint0 */\012PUSHW[ ]	/* 1 value pushed */\01232 \012MDRP[10000]	/* MoveDirectRelPt */\012PUSHW[ ]	/* 1 value pushed */\01232 \012MDAP[1]	/* MoveDirectAbsPt */\012PUSHW[ ]	/* 1 value pushed */\01217 \012SRP0[ ]	/* SetRefPoint0 */\012PUSHW[ ]	/* 1 value pushed */\01248 \012MDRP[10000]	/* MoveDirectRelPt */\012PUSHW[ ]	/* 1 value pushed */\01248 \012MDAP[1]	/* MoveDirectAbsPt */\012PUSHW[ ]	/* 1 value pushed */\01216 \012SRP0[ ]	/* SetRefPoint0 */\012PUSHW[ ]	/* 1 value pushed */\01288 \012MDRP[10000]	/* MoveDirectRelPt */\012PUSHW[ ]	/* 1 value pushed */\01288 \012MDAP[1]	/* MoveDirectAbsPt */\012PUSHW[ ]	/* 3 values pushed */\01260 88 5 \012SRP1[ ]	/* SetRefPoint1 */\012SRP2[ ]	/* SetRefPoint2 */\012IP[ ]	/* InterpolatePts */\012PUSHW[ ]	/* 3 values pushed */\01270 88 5 \012SRP1[ ]	/* SetRefPoint1 */\012SRP2[ ]	/* SetRefPoint2 */\012IP[ ]	/* InterpolatePts */\012PUSHW[ ]	/* 3 values pushed */\01279 41 24 \012SRP1[ ]	/* SetRefPoint1 */\012SRP2[ ]	/* SetRefPoint2 */\012IP[ ]	/* InterpolatePts */\012PUSHW[ ]	/* 3 values pushed */\01294 88 5 \012SRP1[ ]	/* SetRefPoint1 */\012SRP2[ ]	/* SetRefPoint2 */\012IP[ ]	/* InterpolatePts */\012PUSHW[ ]	/* 3 values pushed */\012112 41 40 \012SRP1[ ]	/* SetRefPoint1 */\012SRP2[ ]	/* SetRefPoint2 */\012IP[ ]	/* InterpolatePts */\012PUSHW[ ]	/* 3 values pushed */\012130 16 17 \012SRP1[ ]	/* SetRefPoint1 */\012SRP2[ ]	/* SetRefPoint2 */\012IP[ ]	/* InterpolatePts */\012PUSHW[ ]	/* 1 value pushed */\01240 \012SRP0[ ]	/* SetRefPoint0 */\012PUSHW[ ]	/* 1 value pushed */\012143 \012MDRP[11100]	/* MoveDirectRelPt */\012SVTCA[0]	/* SetFreedomAndProjectionVectorToAxis */\012PUSHW[ ]	/* 4 values pushed */\01221 2 10 4 \012CALL[ ]	/* CallFunction */\012PUSHW[ ]	/* 4 values pushed */\01237 3 45 4 \012CALL[ ]	/* CallFunction */\012IUP[0]	/* InterpolateUntPts */\012IUP[1]	/* InterpolateUntPts */";
};
width = 391;
}
);
leftKerningGroup = S;
note = S;
rightKerningGroup = S;
unicode = 0053;
},
{
color = 8;
glyphname = Scedilla;
lastChange = "2021-12-03 03:53:48 +0000";
layers = (
{
anchors = (
{
name = bottom;
position = "{217, -168}";
},
{
name = top;
position = "{203, 591}";
}
);
background = {
components = (
{
name = S;
},
{
name = cedillacomb;
transform = "{1, 0, 0, 1, 16, 0}";
}
);
};
layerId = "04A772B0-FA71-43EE-BB43-CAC7F0EBD631";
paths = (
{
closed = 1;
nodes = (
"391 290 OFFCURVE",
"354 313 OFFCURVE",
"266 345 CURVE SMOOTH",
"223 361 OFFCURVE",
"184 368 OFFCURVE",
"184 427 CURVE SMOOTH",
"184 456 OFFCURVE",
"187 467 OFFCURVE",
"204 467 CURVE SMOOTH",
"225 467 OFFCURVE",
"225 453 OFFCURVE",
"225 399 CURVE SMOOTH",
"225 373 LINE",
"384 373 LINE",
"384 449 LINE SMOOTH",
"384 546 OFFCURVE",
"322 593 OFFCURVE",
"202 593 CURVE SMOOTH",
"62 593 OFFCURVE",
"19 548 OFFCURVE",
"19 422 CURVE SMOOTH",
"19 332 OFFCURVE",
"40 279 OFFCURVE",
"115 246 CURVE SMOOTH",
"195 211 OFFCURVE",
"222 211 OFFCURVE",
"222 147 CURVE SMOOTH",
"222 101 OFFCURVE",
"217 92 OFFCURVE",
"202 92 CURVE SMOOTH",
"188 92 OFFCURVE",
"181 101 OFFCURVE",
"181 155 CURVE SMOOTH",
"181 206 LINE",
"14 206 LINE",
"14 169 LINE SMOOTH",
"14 37 OFFCURVE",
"70 -2 OFFCURVE",
"172 -7 CURVE",
"145 -64 LINE",
"186 -86 LINE",
"188 -84 OFFCURVE",
"193 -80 OFFCURVE",
"201 -80 CURVE SMOOTH",
"210 -80 OFFCURVE",
"218 -86 OFFCURVE",
"218 -96 CURVE SMOOTH",
"218 -112 OFFCURVE",
"208 -121 OFFCURVE",
"191 -121 CURVE SMOOTH",
"178 -121 OFFCURVE",
"158 -114 OFFCURVE",
"149 -106 CURVE",
"131 -153 LINE",
"140 -159 OFFCURVE",
"169 -174 OFFCURVE",
"198 -174 CURVE SMOOTH",
"264 -174 OFFCURVE",
"302 -139 OFFCURVE",
"302 -99 CURVE SMOOTH",
"302 -70 OFFCURVE",
"279 -39 OFFCURVE",
"239 -39 CURVE SMOOTH",
"227 -39 OFFCURVE",
"218 -41 OFFCURVE",
"210 -44 CURVE",
"229 -7 LINE",
"330 0 OFFCURVE",
"391 48 OFFCURVE",
"391 171 CURVE SMOOTH"
);
}
);
width = 405;
}
);
leftKerningGroup = S;
rightKerningGroup = S;
unicode = 015E;
},
{
glyphname = Germandbls;
lastChange = "2021-12-03 13:22:03 +0000";
layers = (
{
layerId = "04A772B0-FA71-43EE-BB43-CAC7F0EBD631";
paths = (
{
closed = 1;
nodes = (
"39 1 OFFCURVE",
"23 1 OFFCURVE",
"215 0 CURVE",
"285 0 LINE SMOOTH",
"392 0 OFFCURVE",
"453 39 OFFCURVE",
"453 151 CURVE SMOOTH",
"453 228 LINE SMOOTH",
"453 285 OFFCURVE",
"436 325 OFFCURVE",
"403 347 CURVE",
"430 372 OFFCURVE",
"439 407 OFFCURVE",
"439 450 CURVE SMOOTH",
"439 513 LINE SMOOTH",
"439 592 OFFCURVE",
"363 642 OFFCURVE",
"250 642 CURVE SMOOTH",
"117 642 OFFCURVE",
"32 621 OFFCURVE",
"29 497 CURVE",
"29 361 LINE",
"29 1 LINE"
);
},
{
closed = 1;
nodes = (
"221 271 LINE",
"245 270 LINE",
"246 175 LINE",
"246 171 LINE SMOOTH",
"246 158 OFFCURVE",
"246 133 OFFCURVE",
"250 130 CURVE",
"221 130 LINE"
);
},
{
closed = 1;
nodes = (
"195 29 LINE",
"195 490 LINE SMOOTH",
"195 527 OFFCURVE",
"202 546 OFFCURVE",
"234 546 CURVE SMOOTH",
"273 546 OFFCURVE",
"273 520 OFFCURVE",
"273 476 CURVE SMOOTH",
"273 432 LINE SMOOTH",
"273 396 OFFCURVE",
"271 374 OFFCURVE",
"248 374 CURVE SMOOTH",
"224 374 LINE",
"224 300 LINE",
"254 298 LINE SMOOTH",
"257 298 OFFCURVE",
"259 297 OFFCURVE",
"262 295 CURVE SMOOTH",
"266 292 OFFCURVE",
"270 286 OFFCURVE",
"271 274 CURVE",
"272 175 LINE SMOOTH",
"272 152 OFFCURVE",
"274 102 OFFCURVE",
"251 102 CURVE SMOOTH",
"219 102 LINE",
"219 28 LINE",
"285 28 LINE SMOOTH",
"373 28 OFFCURVE",
"427 58 OFFCURVE",
"427 151 CURVE SMOOTH",
"427 228 LINE SMOOTH",
"427 305 OFFCURVE",
"384 341 OFFCURVE",
"328 341 CURVE",
"328 343 LINE",
"388 350 OFFCURVE",
"412 394 OFFCURVE",
"412 450 CURVE SMOOTH",
"412 513 LINE SMOOTH",
"412 576 OFFCURVE",
"347 614 OFFCURVE",
"250 614 CURVE SMOOTH",
"131 614 OFFCURVE",
"56 596 OFFCURVE",
"56 493 CURVE SMOOTH",
"56 470 LINE",
"56 389 LINE",
"56 29 LINE"
);
},
{
closed = 1;
nodes = (
"47 19 LINE",
"47 380 LINE",
"47 479 LINE",
"47 493 LINE SMOOTH",
"47 606 OFFCURVE",
"127 624 OFFCURVE",
"250 624 CURVE SMOOTH",
"354 624 OFFCURVE",
"421 581 OFFCURVE",
"421 513 CURVE SMOOTH",
"421 450 LINE SMOOTH",
"421 405 OFFCURVE",
"404 364 OFFCURVE",
"369 343 CURVE",
"409 328 OFFCURVE",
"436 292 OFFCURVE",
"436 228 CURVE SMOOTH",
"436 151 LINE SMOOTH",
"436 52 OFFCURVE",
"381 19 OFFCURVE",
"285 19 CURVE SMOOTH",
"210 19 LINE",
"210 111 LINE",
"251 111 LINE SMOOTH",
"264 111 OFFCURVE",
"263 150 OFFCURVE",
"263 171 CURVE SMOOTH",
"263 175 LINE",
"262 274 LINE SMOOTH",
"262 280 OFFCURVE",
"261 284 OFFCURVE",
"258 287 CURVE SMOOTH",
"257 288 OFFCURVE",
"255 289 OFFCURVE",
"254 289 CURVE SMOOTH",
"215 291 LINE",
"215 383 LINE",
"248 383 LINE SMOOTH",
"255 383 OFFCURVE",
"260 387 OFFCURVE",
"262 396 CURVE SMOOTH",
"263 405 OFFCURVE",
"264 417 OFFCURVE",
"264 432 CURVE SMOOTH",
"264 476 LINE SMOOTH",
"264 515 OFFCURVE",
"265 536 OFFCURVE",
"234 536 CURVE SMOOTH",
"209 536 OFFCURVE",
"204 521 OFFCURVE",
"204 490 CURVE SMOOTH",
"204 19 LINE"
);
},
{
closed = 1;
nodes = (
"221 490 LINE SMOOTH",
"221 509 OFFCURVE",
"225 518 OFFCURVE",
"234 518 CURVE SMOOTH",
"240 518 OFFCURVE",
"244 514 OFFCURVE",
"245 507 CURVE SMOOTH",
"246 500 OFFCURVE",
"246 489 OFFCURVE",
"246 476 CURVE SMOOTH",
"246 432 LINE SMOOTH",
"246 412 OFFCURVE",
"246 409 OFFCURVE",
"246 402 CURVE",
"221 402 LINE"
);
}
);
width = 466;
}
);
unicode = 1E9E;
},
{
glyphname = Schwa;
lastChange = "2021-12-03 13:22:03 +0000";
layers = (
{
layerId = "04A772B0-FA71-43EE-BB43-CAC7F0EBD631";
paths = (
{
closed = 1;
nodes = (
"67 601 OFFCURVE",
"9 567 OFFCURVE",
"9 381 CURVE SMOOTH",
"9 161 LINE SMOOTH",
"9 33 OFFCURVE",
"73 -9 OFFCURVE",
"187 -9 CURVE SMOOTH",
"301 -9 OFFCURVE",
"366 33 OFFCURVE",
"366 161 CURVE SMOOTH",
"366 381 LINE SMOOTH",
"366 567 OFFCURVE",
"311 601 OFFCURVE",
"187 601 CURVE SMOOTH"
);
},
{
closed = 1;
nodes = (
"297 583 OFFCURVE",
"348 549 OFFCURVE",
"348 381 CURVE SMOOTH",
"348 161 LINE SMOOTH",
"348 47 OFFCURVE",
"290 13 OFFCURVE",
"187 13 CURVE SMOOTH",
"84 13 OFFCURVE",
"26 47 OFFCURVE",
"26 161 CURVE SMOOTH",
"26 296 LINE",
"196 296 LINE",
"196 454 LINE SMOOTH",
"196 465 OFFCURVE",
"196 476 OFFCURVE",
"191 476 CURVE SMOOTH",
"186 476 OFFCURVE",
"185 465 OFFCURVE",
"185 454 CURVE SMOOTH",
"185 350 LINE",
"26 350 LINE",
"26 381 LINE SMOOTH",
"26 548 OFFCURVE",
"76 583 OFFCURVE",
"187 583 CURVE SMOOTH"
);
},
{
closed = 1;
nodes = (
"83 574 OFFCURVE",
"36 538 OFFCURVE",
"36 381 CURVE SMOOTH",
"36 359 LINE",
"177 359 LINE",
"177 454 LINE SMOOTH",
"177 469 OFFCURVE",
"178 485 OFFCURVE",
"191 485 CURVE SMOOTH",
"200 485 OFFCURVE",
"204 476 OFFCURVE",
"204 454 CURVE SMOOTH",
"204 287 LINE",
"35 287 LINE",
"35 161 LINE SMOOTH",
"35 55 OFFCURVE",
"89 23 OFFCURVE",
"187 23 CURVE SMOOTH",
"286 23 OFFCURVE",
"340 55 OFFCURVE",
"340 161 CURVE SMOOTH",
"340 381 LINE SMOOTH",
"340 538 OFFCURVE",
"292 574 OFFCURVE",
"187 574 CURVE SMOOTH"
);
},
{
closed = 1;
nodes = (
"204 128 LINE SMOOTH",
"204 113 OFFCURVE",
"197 108 OFFCURVE",
"188 108 CURVE SMOOTH",
"180 108 OFFCURVE",
"173 114 OFFCURVE",
"173 124 CURVE SMOOTH",
"173 216 LINE",
"204 216 LINE"
);
},
{
closed = 1;
nodes = (
"182 207 LINE",
"182 136 LINE SMOOTH",
"182 122 OFFCURVE",
"182 118 OFFCURVE",
"189 118 CURVE SMOOTH",
"195 118 OFFCURVE",
"195 122 OFFCURVE",
"195 136 CURVE SMOOTH",
"195 207 LINE"
);
}
);
width = 376;
}
);
rightKerningGroup = o;
unicode = 018F;
},
{
glyphname = T;
lastChange = "2021-12-03 13:22:03 +0000";
layers = (
{
anchors = (
{
name = bottom;
position = "{174, 0}";
},
{
name = center;
position = "{174, 346}";
},
{
name = top;
position = "{174, 591}";
}
);
layerId = "04A772B0-FA71-43EE-BB43-CAC7F0EBD631";
paths = (
{
closed = 1;
nodes = (
"262 0 LINE",
"262 436 LINE",
"333 436 LINE",
"333 591 LINE",
"4 591 LINE",
"4 436 LINE",
"76 436 LINE",
"76 0 LINE"
);
},
{
closed = 1;
nodes = (
"93 454 LINE",
"21 454 LINE",
"21 573 LINE",
"317 573 LINE",
"317 454 LINE",
"245 454 LINE",
"245 18 LINE",
"93 18 LINE"
);
},
{
closed = 1;
nodes = (
"236 27 LINE",
"236 463 LINE",
"308 463 LINE",
"308 564 LINE",
"30 564 LINE",
"30 463 LINE",
"102 463 LINE",
"102 27 LINE"
);
}
);
userData = {
assembly = "PUSHW[ ]	/* 4 values pushed */\0121 6 2 4 \012CALL[ ]	/* CallFunction */\012SVTCA[0]	/* SetFreedomAndProjectionVectorToAxis */\012PUSHW[ ]	/* 1 value pushed */\0121 \012MDAP[1]	/* MoveDirectAbsPt */\012IUP[0]	/* InterpolateUntPts */\012IUP[1]	/* InterpolateUntPts */";
};
width = 337;
}
);
leftKerningGroup = T;
note = T;
rightKerningGroup = T;
unicode = 0054;
},
{
color = 8;
glyphname = Tbar;
lastChange = "2021-12-03 03:56:40 +0000";
layers = (
{
anchors = (
{
name = bottom;
position = "{173, 0}";
},
{
name = center;
position = "{173, 370}";
},
{
name = top;
position = "{173, 591}";
}
);
background = {
components = (
{
name = T;
},
{
name = hyphen;
transform = "{1.1366, 0, 0, 0.76327, 14, 160}";
}
);
};
layerId = "04A772B0-FA71-43EE-BB43-CAC7F0EBD631";
paths = (
{
closed = 1;
nodes = (
"252 0 LINE",
"252 480 LINE",
"337 480 LINE",
"337 591 LINE",
"8 591 LINE",
"8 480 LINE",
"93 480 LINE",
"93 0 LINE"
);
},
{
closed = 1;
nodes = (
"284 331 LINE",
"284 408 LINE",
"62 408 LINE",
"62 331 LINE"
);
}
);
width = 345;
}
);
leftKerningGroup = T;
rightKerningGroup = T;
unicode = 0166;
},
{
color = 8;
glyphname = Tcedilla;
lastChange = "2021-12-03 03:53:48 +0000";
layers = (
{
anchors = (
{
name = bottom;
position = "{187, -168}";
},
{
name = center;
position = "{173, 370}";
},
{
name = top;
position = "{173, 591}";
}
);
background = {
components = (
{
name = Tcommaaccent;
}
);
};
layerId = "04A772B0-FA71-43EE-BB43-CAC7F0EBD631";
paths = (
{
closed = 1;
nodes = (
"337 480 LINE",
"337 591 LINE",
"8 591 LINE",
"8 480 LINE",
"93 480 LINE",
"93 0 LINE",
"146 0 LINE",
"115 -64 LINE",
"156 -86 LINE",
"158 -84 OFFCURVE",
"163 -80 OFFCURVE",
"171 -80 CURVE SMOOTH",
"180 -80 OFFCURVE",
"188 -86 OFFCURVE",
"188 -96 CURVE SMOOTH",
"188 -112 OFFCURVE",
"178 -121 OFFCURVE",
"161 -121 CURVE SMOOTH",
"148 -121 OFFCURVE",
"128 -114 OFFCURVE",
"119 -106 CURVE",
"101 -153 LINE",
"110 -159 OFFCURVE",
"139 -174 OFFCURVE",
"168 -174 CURVE SMOOTH",
"234 -174 OFFCURVE",
"272 -139 OFFCURVE",
"272 -99 CURVE SMOOTH",
"272 -70 OFFCURVE",
"249 -39 OFFCURVE",
"209 -39 CURVE SMOOTH",
"197 -39 OFFCURVE",
"188 -41 OFFCURVE",
"180 -44 CURVE",
"202 0 LINE",
"252 0 LINE",
"252 480 LINE"
);
}
);
width = 345;
}
);
leftKerningGroup = T;
rightKerningGroup = T;
unicode = 0162;
},
{
glyphname = U;
lastChange = "2021-12-03 13:22:42 +0000";
layers = (
{
anchors = (
{
name = bottom;
position = "{191, 0}";
},
{
name = ogonek;
position = "{256, 0}";
},
{
name = top;
position = "{191, 591}";
},
{
name = topright;
position = "{273, 591}";
}
);
layerId = "04A772B0-FA71-43EE-BB43-CAC7F0EBD631";
paths = (
{
closed = 1;
nodes = (
"311 -11 OFFCURVE",
"367 19 OFFCURVE",
"367 176 CURVE SMOOTH",
"367 592 LINE",
"15 592 LINE",
"15 176 LINE SMOOTH",
"15 19 OFFCURVE",
"70 -11 OFFCURVE",
"191 -11 CURVE SMOOTH"
);
},
{
closed = 1;
nodes = (
"82 7 OFFCURVE",
"32 36 OFFCURVE",
"32 176 CURVE SMOOTH",
"32 574 LINE",
"185 574 LINE",
"185 132 LINE SMOOTH",
"185 125 OFFCURVE",
"186 120 OFFCURVE",
"187 118 CURVE SMOOTH",
"188 115 OFFCURVE",
"190 114 OFFCURVE",
"191 114 CURVE SMOOTH",
"193 114 OFFCURVE",
"195 115 OFFCURVE",
"196 118 CURVE SMOOTH",
"197 120 OFFCURVE",
"197 125 OFFCURVE",
"197 132 CURVE SMOOTH",
"197 574 LINE",
"350 574 LINE",
"350 176 LINE SMOOTH",
"350 34 OFFCURVE",
"300 7 OFFCURVE",
"191 7 CURVE SMOOTH"
);
},
{
closed = 1;
nodes = (
"293 16 OFFCURVE",
"342 41 OFFCURVE",
"342 176 CURVE SMOOTH",
"342 565 LINE",
"206 565 LINE",
"206 132 LINE SMOOTH",
"206 121 OFFCURVE",
"205 114 OFFCURVE",
"202 111 CURVE SMOOTH",
"199 107 OFFCURVE",
"196 105 OFFCURVE",
"191 105 CURVE SMOOTH",
"187 105 OFFCURVE",
"184 107 OFFCURVE",
"181 111 CURVE SMOOTH",
"178 114 OFFCURVE",
"177 121 OFFCURVE",
"177 132 CURVE SMOOTH",
"177 565 LINE",
"41 565 LINE",
"41 176 LINE SMOOTH",
"41 41 OFFCURVE",
"90 16 OFFCURVE",
"191 16 CURVE SMOOTH"
);
}
);
width = 382;
}
);
leftKerningGroup = U;
leftMetricsKey = "=O+5";
note = U;
rightKerningGroup = U;
rightMetricsKey = "=O+5";
unicode = 0055;
},
{
color = 8;
glyphname = Uhorn;
lastChange = "2021-12-03 03:55:39 +0000";
layers = (
{
anchors = (
{
name = bottom;
position = "{201, 0}";
},
{
name = ogonek;
position = "{270, 0}";
},
{
name = top;
position = "{201, 591}";
},
{
name = topright;
position = "{434, 658}";
}
);
background = {
components = (
{
name = horncomb;
transform = "{1, 0, 0, 1, 242, 119}";
},
{
name = U;
}
);
};
layerId = "04A772B0-FA71-43EE-BB43-CAC7F0EBD631";
paths = (
{
closed = 1;
nodes = (
"314 608 OFFCURVE",
"301 591 OFFCURVE",
"272 591 CURVE SMOOTH",
"218 591 LINE",
"218 115 LINE SMOOTH",
"218 92 OFFCURVE",
"211 85 OFFCURVE",
"201 85 CURVE SMOOTH",
"191 85 OFFCURVE",
"184 92 OFFCURVE",
"184 115 CURVE SMOOTH",
"184 591 LINE",
"25 591 LINE",
"25 163 LINE SMOOTH",
"25 4 OFFCURVE",
"95 -12 OFFCURVE",
"201 -12 CURVE SMOOTH",
"307 -12 OFFCURVE",
"377 4 OFFCURVE",
"377 164 CURVE SMOOTH",
"377 552 LINE",
"402 570 OFFCURVE",
"414 598 OFFCURVE",
"414 638 CURVE SMOOTH",
"414 658 LINE",
"314 658 LINE",
"314 638 LINE SMOOTH"
);
}
);
width = 402;
}
);
leftKerningGroup = U;
rightKerningGroup = U;
unicode = 01AF;
},
{
color = 8;
glyphname = Uogonek;
lastChange = "2021-12-03 03:52:48 +0000";
layers = (
{
anchors = (
{
name = bottom;
position = "{201, 0}";
},
{
name = ogonek;
position = "{270, 0}";
},
{
name = top;
position = "{201, 591}";
},
{
name = topright;
position = "{251, 591}";
}
);
background = {
components = (
{
name = U;
},
{
name = ogonek;
}
);
};
layerId = "04A772B0-FA71-43EE-BB43-CAC7F0EBD631";
paths = (
{
closed = 1;
nodes = (
"218 92 OFFCURVE",
"211 85 OFFCURVE",
"201 85 CURVE SMOOTH",
"191 85 OFFCURVE",
"184 92 OFFCURVE",
"184 115 CURVE SMOOTH",
"184 591 LINE",
"25 591 LINE",
"25 163 LINE SMOOTH",
"25 21 OFFCURVE",
"81 -7 OFFCURVE",
"168 -11 CURVE",
"138 -28 OFFCURVE",
"121 -57 OFFCURVE",
"121 -83 CURVE SMOOTH",
"121 -117 OFFCURVE",
"156 -151 OFFCURVE",
"214 -151 CURVE SMOOTH",
"264 -151 OFFCURVE",
"284 -137 OFFCURVE",
"291 -133 CURVE",
"274 -96 LINE",
"271 -96 OFFCURVE",
"265 -99 OFFCURVE",
"256 -99 CURVE SMOOTH",
"240 -99 OFFCURVE",
"219 -85 OFFCURVE",
"219 -61 CURVE SMOOTH",
"219 -44 OFFCURVE",
"228 -24 OFFCURVE",
"247 -10 CURVE",
"327 -4 OFFCURVE",
"377 29 OFFCURVE",
"377 164 CURVE SMOOTH",
"377 591 LINE",
"218 591 LINE",
"218 115 LINE SMOOTH"
);
}
);
width = 402;
}
);
leftKerningGroup = U;
rightKerningGroup = U;
unicode = 0172;
},
{
glyphname = V;
lastChange = "2021-12-03 13:22:03 +0000";
layers = (
{
layerId = "04A772B0-FA71-43EE-BB43-CAC7F0EBD631";
paths = (
{
closed = 1;
nodes = (
"332 0 LINE",
"416 591 LINE",
"224 591 LINE",
"212 473 LINE",
"203 591 LINE",
"4 591 LINE",
"87 0 LINE"
);
},
{
closed = 1;
nodes = (
"24 573 LINE",
"186 573 LINE",
"212 275 LINE",
"239 573 LINE",
"396 573 LINE",
"317 18 LINE",
"102 18 LINE"
);
},
{
closed = 1;
nodes = (
"309 27 LINE",
"386 564 LINE",
"247 564 LINE",
"212 192 LINE",
"211 170 LINE",
"210 192 LINE",
"178 564 LINE",
"35 564 LINE",
"110 27 LINE"
);
}
);
userData = {
assembly = "SVTCA[0]	/* SetFreedomAndProjectionVectorToAxis */\012PUSHW[ ]	/* 1 value pushed */\0122 \012MDAP[1]	/* MoveDirectAbsPt */\012IUP[0]	/* InterpolateUntPts */\012IUP[1]	/* InterpolateUntPts */";
};
width = 420;
}
);
leftKerningGroup = V;
note = V;
rightKerningGroup = V;
unicode = 0056;
},
{
glyphname = W;
lastChange = "2021-12-03 13:22:03 +0000";
layers = (
{
anchors = (
{
name = bottom;
position = "{319, 0}";
},
{
name = top;
position = "{319, 591}";
}
);
layerId = "04A772B0-FA71-43EE-BB43-CAC7F0EBD631";
paths = (
{
closed = 1;
nodes = (
"307 0 LINE",
"318 76 LINE",
"330 0 LINE",
"547 0 LINE",
"634 591 LINE",
"427 591 LINE",
"426 575 OFFCURVE",
"424 556 OFFCURVE",
"421 535 CURVE SMOOTH",
"418 513 OFFCURVE",
"416 493 OFFCURVE",
"415 476 CURVE",
"404 591 LINE",
"232 591 LINE",
"222 483 LINE",
"211 591 LINE",
"4 591 LINE",
"90 0 LINE"
);
},
{
closed = 1;
nodes = (
"25 573 LINE",
"194 573 LINE",
"222 304 LINE",
"233 395 OFFCURVE",
"242 485 OFFCURVE",
"250 573 CURVE",
"387 573 LINE",
"414 304 LINE",
"419 349 OFFCURVE",
"424 395 OFFCURVE",
"429 440 CURVE SMOOTH",
"443 573 LINE",
"613 573 LINE",
"532 18 LINE",
"346 18 LINE",
"319 198 LINE",
"314 167 OFFCURVE",
"310 137 OFFCURVE",
"305 107 CURVE SMOOTH",
"292 18 LINE",
"106 18 LINE"
);
},
{
closed = 1;
nodes = (
"284 27 LINE",
"318 261 LINE",
"354 27 LINE",
"523 27 LINE",
"602 564 LINE",
"451 564 LINE",
"414 209 LINE",
"379 564 LINE",
"258 564 LINE",
"223 209 LINE",
"186 564 LINE",
"35 564 LINE",
"114 27 LINE"
);
}
);
userData = {
assembly = "SVTCA[0]	/* SetFreedomAndProjectionVectorToAxis */\012PUSHW[ ]	/* 1 value pushed */\0123 \012MDAP[1]	/* MoveDirectAbsPt */\012PUSHW[ ]	/* 1 value pushed */\0126 \012MDAP[1]	/* MoveDirectAbsPt */\012IUP[0]	/* InterpolateUntPts */\012IUP[1]	/* InterpolateUntPts */";
};
width = 638;
}
);
leftKerningGroup = W;
note = W;
rightKerningGroup = W;
unicode = 0057;
},
{
glyphname = X;
lastChange = "2021-12-03 13:22:03 +0000";
layers = (
{
layerId = "04A772B0-FA71-43EE-BB43-CAC7F0EBD631";
paths = (
{
closed = 1;
nodes = (
"206 0 LINE",
"209 11 OFFCURVE",
"211 21 OFFCURVE",
"212 33 CURVE",
"218 0 LINE",
"410 0 LINE",
"339 305 LINE",
"413 591 LINE",
"210 591 LINE",
"207 580 OFFCURVE",
"205 570 OFFCURVE",
"204 558 CURVE",
"197 591 LINE",
"4 591 LINE",
"13 554 OFFCURVE",
"31 489 OFFCURVE",
"42 449 CURVE SMOOTH",
"53 408 OFFCURVE",
"71 343 OFFCURVE",
"80 306 CURVE",
"3 0 LINE"
);
},
{
closed = 1;
nodes = (
"98 306 LINE",
"27 573 LINE",
"184 573 LINE",
"206 471 LINE",
"209 488 OFFCURVE",
"213 506 OFFCURVE",
"216 523 CURVE SMOOTH",
"225 573 LINE",
"390 573 LINE",
"322 306 LINE",
"389 18 LINE",
"232 18 LINE",
"210 120 LINE",
"203 85 OFFCURVE",
"197 51 OFFCURVE",
"192 18 CURVE",
"26 18 LINE"
);
},
{
closed = 1;
nodes = (
"184 27 LINE",
"209 167 LINE",
"239 27 LINE",
"377 27 LINE",
"312 306 LINE",
"379 564 LINE",
"232 564 LINE",
"207 423 LINE",
"177 564 LINE",
"39 564 LINE",
"107 306 LINE",
"37 27 LINE"
);
}
);
userData = {
assembly = "SVTCA[0]	/* SetFreedomAndProjectionVectorToAxis */\012PUSHW[ ]	/* 1 value pushed */\0121 \012MDAP[1]	/* MoveDirectAbsPt */\012PUSHW[ ]	/* 1 value pushed */\01210 \012MDAP[1]	/* MoveDirectAbsPt */\012PUSHW[ ]	/* 1 value pushed */\01228 \012MDAP[1]	/* MoveDirectAbsPt */\012PUSHW[ ]	/* 1 value pushed */\0124 \012MDAP[1]	/* MoveDirectAbsPt */\012PUSHW[ ]	/* 1 value pushed */\0127 \012MDAP[1]	/* MoveDirectAbsPt */\012PUSHW[ ]	/* 1 value pushed */\01240 \012MDAP[1]	/* MoveDirectAbsPt */\012PUSHW[ ]	/* 3 values pushed */\0120 1 4 \012SRP1[ ]	/* SetRefPoint1 */\012SRP2[ ]	/* SetRefPoint2 */\012IP[ ]	/* InterpolatePts */\012PUSHW[ ]	/* 3 values pushed */\0126 1 4 \012SRP1[ ]	/* SetRefPoint1 */\012SRP2[ ]	/* SetRefPoint2 */\012IP[ ]	/* InterpolatePts */\012PUSHW[ ]	/* 3 values pushed */\01219 1 4 \012SRP1[ ]	/* SetRefPoint1 */\012SRP2[ ]	/* SetRefPoint2 */\012IP[ ]	/* InterpolatePts */\012PUSHW[ ]	/* 3 values pushed */\01227 1 4 \012SRP1[ ]	/* SetRefPoint1 */\012SRP2[ ]	/* SetRefPoint2 */\012IP[ ]	/* InterpolatePts */\012IUP[0]	/* InterpolateUntPts */\012IUP[1]	/* InterpolateUntPts */";
};
width = 416;
}
);
leftKerningGroup = X;
note = X;
rightKerningGroup = X;
unicode = 0058;
},
{
glyphname = Y;
lastChange = "2021-12-03 13:22:03 +0000";
layers = (
{
anchors = (
{
name = bottom;
position = "{202, 0}";
},
{
name = top;
position = "{210, 591}";
},
{
name = topleft;
position = "{18, 591}";
}
);
layerId = "04A772B0-FA71-43EE-BB43-CAC7F0EBD631";
paths = (
{
closed = 1;
nodes = (
"298 0 LINE",
"298 236 LINE",
"407 591 LINE",
"226 591 LINE",
"210 527 LINE",
"194 591 LINE",
"2 591 LINE",
"109 244 LINE",
"109 0 LINE"
);
},
{
closed = 1;
nodes = (
"126 247 LINE",
"26 573 LINE",
"181 573 LINE",
"210 456 LINE",
"239 573 LINE",
"383 573 LINE",
"281 239 LINE",
"281 18 LINE",
"126 18 LINE"
);
},
{
closed = 1;
nodes = (
"272 27 LINE",
"272 241 LINE",
"371 564 LINE",
"246 564 LINE",
"218 451 LINE",
"210 404 LINE",
"202 451 LINE",
"174 564 LINE",
"39 564 LINE",
"135 250 LINE",
"135 27 LINE"
);
}
);
userData = {
assembly = "PUSHW[ ]	/* 4 values pushed */\0122 6 3 4 \012CALL[ ]	/* CallFunction */\012PUSHW[ ]	/* 3 values pushed */\0128 3 2 \012SRP1[ ]	/* SetRefPoint1 */\012SRP2[ ]	/* SetRefPoint2 */\012IP[ ]	/* InterpolatePts */\012PUSHW[ ]	/* 3 values pushed */\01212 3 2 \012SRP1[ ]	/* SetRefPoint1 */\012SRP2[ ]	/* SetRefPoint2 */\012IP[ ]	/* InterpolatePts */\012PUSHW[ ]	/* 3 values pushed */\01227 3 2 \012SRP1[ ]	/* SetRefPoint1 */\012SRP2[ ]	/* SetRefPoint2 */\012IP[ ]	/* InterpolatePts */\012SVTCA[0]	/* SetFreedomAndProjectionVectorToAxis */\012PUSHW[ ]	/* 1 value pushed */\0122 \012MDAP[1]	/* MoveDirectAbsPt */\012IUP[0]	/* InterpolateUntPts */\012IUP[1]	/* InterpolateUntPts */";
};
width = 409;
}
);
leftKerningGroup = Y;
note = Y;
rightKerningGroup = Y;
unicode = 0059;
},
{
glyphname = Z;
lastChange = "2021-12-03 13:23:45 +0000";
layers = (
{
anchors = (
{
name = bottom;
position = "{149, 0}";
},
{
name = center;
position = "{149, 296}";
},
{
name = top;
position = "{149, 591}";
}
);
layerId = "04A772B0-FA71-43EE-BB43-CAC7F0EBD631";
paths = (
{
closed = 1;
nodes = (
"293 0 LINE",
"293 155 LINE",
"206 155 LINE",
"293 492 LINE",
"293 591 LINE",
"14 591 LINE",
"14 436 LINE",
"86 436 LINE",
"5 120 LINE",
"5 0 LINE"
);
},
{
closed = 1;
nodes = (
"22 119 LINE",
"108 454 LINE",
"30 454 LINE",
"30 573 LINE",
"277 573 LINE",
"277 493 LINE",
"184 137 LINE",
"277 137 LINE",
"277 18 LINE",
"22 18 LINE"
);
},
{
closed = 1;
nodes = (
"268 27 LINE",
"268 128 LINE",
"173 128 LINE",
"268 496 LINE",
"268 564 LINE",
"38 564 LINE",
"38 463 LINE",
"119 463 LINE",
"30 116 LINE",
"30 27 LINE"
);
}
);
userData = {
assembly = "PUSHW[ ]	/* 4 values pushed */\01210 5 20 4 \012CALL[ ]	/* CallFunction */\012PUSHW[ ]	/* 3 values pushed */\01212 20 10 \012SRP1[ ]	/* SetRefPoint1 */\012SRP2[ ]	/* SetRefPoint2 */\012IP[ ]	/* InterpolatePts */\012PUSHW[ ]	/* 1 value pushed */\01210 \012SRP0[ ]	/* SetRefPoint0 */\012PUSHW[ ]	/* 1 value pushed */\01213 \012MDRP[10000]	/* MoveDirectRelPt */\012PUSHW[ ]	/* 1 value pushed */\01211 \012SRP0[ ]	/* SetRefPoint0 */\012PUSHW[ ]	/* 1 value pushed */\01214 \012MDRP[10000]	/* MoveDirectRelPt */\012PUSHW[ ]	/* 1 value pushed */\01210 \012SRP0[ ]	/* SetRefPoint0 */\012PUSHW[ ]	/* 2 values pushed */\01218 5 \012MIRP[10100]	/* MoveIndirectRelPt */\012PUSHW[ ]	/* 1 value pushed */\01210 \012SRP0[ ]	/* SetRefPoint0 */\012PUSHW[ ]	/* 1 value pushed */\01231 \012MDRP[11100]	/* MoveDirectRelPt */\012SVTCA[0]	/* SetFreedomAndProjectionVectorToAxis */\012PUSHW[ ]	/* 4 values pushed */\0127 3 9 4 \012CALL[ ]	/* CallFunction */\012IUP[0]	/* InterpolateUntPts */\012IUP[1]	/* InterpolateUntPts */";
};
width = 298;
}
);
leftKerningGroup = Z;
note = Z;
rightKerningGroup = Z;
unicode = 005A;
},
{
color = 2;
glyphname = A.tabular;
lastChange = "2021-12-03 13:19:10 +0000";
layers = (
{
anchors = (
{
name = bottom;
position = "{217, 0}";
},
{
name = ogonek;
position = "{392, 0}";
},
{
name = top;
position = "{218, 495}";
}
);
layerId = "04A772B0-FA71-43EE-BB43-CAC7F0EBD631";
paths = (
{
closed = 1;
nodes = (
"394 0 LINE",
"327 496 LINE",
"115 496 LINE",
"46 0 LINE"
);
},
{
closed = 1;
nodes = (
"222 158 LINE",
"217 228 LINE",
"213 158 LINE"
);
},
{
closed = 1;
nodes = (
"130 478 LINE",
"312 478 LINE",
"374 18 LINE",
"228 18 LINE",
"223 82 LINE",
"213 82 LINE",
"212.333 72 OFFCURVE",
"212 61 OFFCURVE",
"211 49.5 CURVE SMOOTH",
"209 18 LINE",
"66 18 LINE"
);
},
{
closed = 1;
nodes = (
"200 27 LINE",
"205 91 LINE",
"231 91 LINE",
"236 27 LINE",
"364 27 LINE",
"305 469 LINE",
"137 469 LINE",
"76 27 LINE"
);
},
{
closed = 1;
nodes = (
"218 376 LINE",
"231 149 LINE",
"205 149 LINE"
);
}
);
userData = {
assembly = "PUSHW[ ]	/* 3 values pushed */\01224 5 3 \012CALL[ ]	/* CallFunction */\012PUSHW[ ]	/* 1 value pushed */\0125 \012SRP0[ ]	/* SetRefPoint0 */\012PUSHW[ ]	/* 1 value pushed */\0128 \012MDRP[10000]	/* MoveDirectRelPt */\012PUSHW[ ]	/* 1 value pushed */\0128 \012MDAP[1]	/* MoveDirectAbsPt */\012PUSHW[ ]	/* 1 value pushed */\01224 \012SRP0[ ]	/* SetRefPoint0 */\012PUSHW[ ]	/* 1 value pushed */\01210 \012MDRP[10000]	/* MoveDirectRelPt */\012PUSHW[ ]	/* 1 value pushed */\01210 \012MDAP[1]	/* MoveDirectAbsPt */\012PUSHW[ ]	/* 1 value pushed */\01224 \012SRP0[ ]	/* SetRefPoint0 */\012PUSHW[ ]	/* 1 value pushed */\01211 \012MDRP[10000]	/* MoveDirectRelPt */\012PUSHW[ ]	/* 1 value pushed */\01211 \012MDAP[1]	/* MoveDirectAbsPt */\012PUSHW[ ]	/* 1 value pushed */\01224 \012SRP0[ ]	/* SetRefPoint0 */\012PUSHW[ ]	/* 1 value pushed */\01216 \012MDRP[10000]	/* MoveDirectRelPt */\012PUSHW[ ]	/* 1 value pushed */\01216 \012MDAP[1]	/* MoveDirectAbsPt */\012SVTCA[0]	/* SetFreedomAndProjectionVectorToAxis */\012PUSHW[ ]	/* 1 value pushed */\0120 \012RCVT[ ]	/* ReadCVT */\012IF[ ]	/* If */\012PUSHW[ ]	/* 1 value pushed */\01228 \012MDAP[1]	/* MoveDirectAbsPt */\012ELSE[ ]	/* Else */\012PUSHW[ ]	/* 2 values pushed */\01228 11 \012MIAP[0]	/* MoveIndirectAbsPt */\012EIF[ ]	/* EndIf */\012PUSHW[ ]	/* 1 value pushed */\0120 \012RCVT[ ]	/* ReadCVT */\012IF[ ]	/* If */\012PUSHW[ ]	/* 1 value pushed */\01229 \012MDAP[1]	/* MoveDirectAbsPt */\012ELSE[ ]	/* Else */\012PUSHW[ ]	/* 2 values pushed */\01229 7 \012MIAP[0]	/* MoveIndirectAbsPt */\012EIF[ ]	/* EndIf */\012PUSHW[ ]	/* 3 values pushed */\01210 29 28 \012SRP1[ ]	/* SetRefPoint1 */\012SRP2[ ]	/* SetRefPoint2 */\012IP[ ]	/* InterpolatePts */\012PUSHW[ ]	/* 3 values pushed */\01211 29 28 \012SRP1[ ]	/* SetRefPoint1 */\012SRP2[ ]	/* SetRefPoint2 */\012IP[ ]	/* InterpolatePts */\012IUP[0]	/* InterpolateUntPts */\012IUP[1]	/* InterpolateUntPts */";
};
width = 450;
}
);
note = A.tabular;
},
{
color = 2;
glyphname = AE.tabular;
lastChange = "2021-12-03 13:19:10 +0000";
layers = (
{
layerId = "04A772B0-FA71-43EE-BB43-CAC7F0EBD631";
paths = (
{
closed = 1;
nodes = (
"639 0 LINE",
"639 135 LINE",
"545 135 LINE",
"542.333 155 OFFCURVE",
"540.667 165.333 OFFCURVE",
"538 180 CURVE",
"632 180 LINE",
"632 327 LINE",
"519 327 LINE",
"517.667 334.333 OFFCURVE",
"516.667 340.5 OFFCURVE",
"516 345.5 CURVE SMOOTH",
"514 360 LINE",
"639 360 LINE",
"639 496 LINE",
"276 496 LINE",
"206 0 LINE"
);
},
{
closed = 1;
nodes = (
"387 158 LINE",
"382 230 LINE",
"378 158 LINE"
);
},
{
closed = 1;
nodes = (
"381 357 LINE",
"382 376 LINE",
"383 357 LINE",
"395 149 LINE",
"369 149 LINE"
);
},
{
closed = 1;
nodes = (
"291 478 LINE",
"622 478 LINE",
"622 377 LINE",
"493 377 LINE",
"494.333 365.667 OFFCURVE",
"496 354.667 OFFCURVE",
"498 344 CURVE SMOOTH",
"500 333.333 OFFCURVE",
"501.667 322 OFFCURVE",
"503 310 CURVE",
"615 310 LINE",
"615 198 LINE",
"518 198 LINE",
"520 184 OFFCURVE",
"522 170.5 OFFCURVE",
"524 157.5 CURVE SMOOTH",
"530 117 LINE",
"622 117 LINE",
"622 18 LINE",
"394 18 LINE",
"387 82 LINE",
"377 82 LINE",
"376.333 72 OFFCURVE",
"375.5 61.167 OFFCURVE",
"374.5 49.5 CURVE SMOOTH",
"372 18 LINE",
"226 18 LINE"
);
},
{
closed = 1;
nodes = (
"364 27 LINE",
"368 91 LINE",
"395 91 LINE",
"401 27 LINE",
"613 27 LINE",
"613 108 LINE",
"522 108 LINE",
"508 207 LINE",
"606 207 LINE",
"606 301 LINE",
"495 301 LINE",
"483 386 LINE",
"613 386 LINE",
"613 469 LINE",
"299 469 LINE",
"236 27 LINE"
);
}
);
userData = {
assembly = "PUSHW[ ]	/* 4 values pushed */\01231 5 44 4 \012CALL[ ]	/* CallFunction */\012PUSHW[ ]	/* 1 value pushed */\01231 \012SRP0[ ]	/* SetRefPoint0 */\012PUSHW[ ]	/* 1 value pushed */\0125 \012MDRP[10000]	/* MoveDirectRelPt */\012PUSHW[ ]	/* 1 value pushed */\0125 \012MDAP[1]	/* MoveDirectAbsPt */\012PUSHW[ ]	/* 1 value pushed */\01210 \012SRP0[ ]	/* SetRefPoint0 */\012PUSHW[ ]	/* 1 value pushed */\0126 \012MDRP[10000]	/* MoveDirectRelPt */\012PUSHW[ ]	/* 1 value pushed */\0126 \012MDAP[1]	/* MoveDirectAbsPt */\012PUSHW[ ]	/* 1 value pushed */\01231 \012SRP0[ ]	/* SetRefPoint0 */\012PUSHW[ ]	/* 1 value pushed */\01213 \012MDRP[10000]	/* MoveDirectRelPt */\012PUSHW[ ]	/* 1 value pushed */\01213 \012MDAP[1]	/* MoveDirectAbsPt */\012PUSHW[ ]	/* 1 value pushed */\01210 \012SRP0[ ]	/* SetRefPoint0 */\012PUSHW[ ]	/* 1 value pushed */\01214 \012MDRP[10000]	/* MoveDirectRelPt */\012PUSHW[ ]	/* 1 value pushed */\01214 \012MDAP[1]	/* MoveDirectAbsPt */\012PUSHW[ ]	/* 1 value pushed */\01244 \012SRP0[ ]	/* SetRefPoint0 */\012PUSHW[ ]	/* 1 value pushed */\01218 \012MDRP[10000]	/* MoveDirectRelPt */\012PUSHW[ ]	/* 1 value pushed */\01218 \012MDAP[1]	/* MoveDirectAbsPt */\012PUSHW[ ]	/* 1 value pushed */\0125 \012SRP0[ ]	/* SetRefPoint0 */\012PUSHW[ ]	/* 2 values pushed */\01221 5 \012MIRP[10100]	/* MoveIndirectRelPt */\012PUSHW[ ]	/* 1 value pushed */\01219 \012MDRP[10000]	/* MoveDirectRelPt */\012PUSHW[ ]	/* 1 value pushed */\01219 \012MDAP[1]	/* MoveDirectAbsPt */\012PUSHW[ ]	/* 1 value pushed */\01244 \012SRP0[ ]	/* SetRefPoint0 */\012PUSHW[ ]	/* 1 value pushed */\01220 \012MDRP[10000]	/* MoveDirectRelPt */\012PUSHW[ ]	/* 1 value pushed */\01220 \012MDAP[1]	/* MoveDirectAbsPt */\012PUSHW[ ]	/* 1 value pushed */\01244 \012SRP0[ ]	/* SetRefPoint0 */\012PUSHW[ ]	/* 1 value pushed */\01222 \012MDRP[10000]	/* MoveDirectRelPt */\012PUSHW[ ]	/* 1 value pushed */\01222 \012MDAP[1]	/* MoveDirectAbsPt */\012PUSHW[ ]	/* 3 values pushed */\01223 44 31 \012SRP1[ ]	/* SetRefPoint1 */\012SRP2[ ]	/* SetRefPoint2 */\012IP[ ]	/* InterpolatePts */\012PUSHW[ ]	/* 1 value pushed */\01221 \012SRP0[ ]	/* SetRefPoint0 */\012PUSHW[ ]	/* 1 value pushed */\01224 \012MDRP[10000]	/* MoveDirectRelPt */\012PUSHW[ ]	/* 1 value pushed */\01224 \012MDAP[1]	/* MoveDirectAbsPt */\012PUSHW[ ]	/* 1 value pushed */\01231 \012SRP0[ ]	/* SetRefPoint0 */\012PUSHW[ ]	/* 1 value pushed */\01225 \012MDRP[10000]	/* MoveDirectRelPt */\012PUSHW[ ]	/* 1 value pushed */\01225 \012MDAP[1]	/* MoveDirectAbsPt */\012PUSHW[ ]	/* 1 value pushed */\01231 \012SRP0[ ]	/* SetRefPoint0 */\012PUSHW[ ]	/* 1 value pushed */\01237 \012MDRP[10000]	/* MoveDirectRelPt */\012PUSHW[ ]	/* 1 value pushed */\01237 \012MDAP[1]	/* MoveDirectAbsPt */\012PUSHW[ ]	/* 1 value pushed */\01244 \012SRP0[ ]	/* SetRefPoint0 */\012PUSHW[ ]	/* 1 value pushed */\01241 \012MDRP[10000]	/* MoveDirectRelPt */\012PUSHW[ ]	/* 1 value pushed */\01241 \012MDAP[1]	/* MoveDirectAbsPt */\012PUSHW[ ]	/* 1 value pushed */\01218 \012SRP0[ ]	/* SetRefPoint0 */\012PUSHW[ ]	/* 2 values pushed */\01254 5 \012MIRP[10100]	/* MoveIndirectRelPt */\012PUSHW[ ]	/* 1 value pushed */\01247 \012MDRP[10000]	/* MoveDirectRelPt */\012PUSHW[ ]	/* 1 value pushed */\01247 \012MDAP[1]	/* MoveDirectAbsPt */\012PUSHW[ ]	/* 1 value pushed */\01254 \012SRP0[ ]	/* SetRefPoint0 */\012PUSHW[ ]	/* 1 value pushed */\01259 \012MDRP[10000]	/* MoveDirectRelPt */\012PUSHW[ ]	/* 1 value pushed */\01259 \012MDAP[1]	/* MoveDirectAbsPt */\012SVTCA[0]	/* SetFreedomAndProjectionVectorToAxis */\012PUSHW[ ]	/* 1 value pushed */\0120 \012RCVT[ ]	/* ReadCVT */\012IF[ ]	/* If */\012PUSHW[ ]	/* 1 value pushed */\01246 \012MDAP[1]	/* MoveDirectAbsPt */\012ELSE[ ]	/* Else */\012PUSHW[ ]	/* 2 values pushed */\01246 11 \012MIAP[0]	/* MoveIndirectAbsPt */\012EIF[ ]	/* EndIf */\012PUSHW[ ]	/* 1 value pushed */\0120 \012RCVT[ ]	/* ReadCVT */\012IF[ ]	/* If */\012PUSHW[ ]	/* 1 value pushed */\01260 \012MDAP[1]	/* MoveDirectAbsPt */\012ELSE[ ]	/* Else */\012PUSHW[ ]	/* 2 values pushed */\01260 7 \012MIAP[0]	/* MoveIndirectAbsPt */\012EIF[ ]	/* EndIf */\012PUSHW[ ]	/* 4 values pushed */\01258 4 14 4 \012CALL[ ]	/* CallFunction */\012PUSHW[ ]	/* 4 values pushed */\01231 2 26 4 \012CALL[ ]	/* CallFunction */\012PUSHW[ ]	/* 4 values pushed */\0129 4 54 4 \012CALL[ ]	/* CallFunction */\012PUSHW[ ]	/* 4 values pushed */\01237 2 32 4 \012CALL[ ]	/* CallFunction */\012PUSHW[ ]	/* 1 value pushed */\01214 \012SRP0[ ]	/* SetRefPoint0 */\012PUSHW[ ]	/* 1 value pushed */\0122 \012MDRP[10000]	/* MoveDirectRelPt */\012PUSHW[ ]	/* 1 value pushed */\01246 \012SRP0[ ]	/* SetRefPoint0 */\012PUSHW[ ]	/* 2 values pushed */\0126 4 \012MIRP[10100]	/* MoveIndirectRelPt */\012PUSHW[ ]	/* 2 values pushed */\0125 2 \012MIRP[10100]	/* MoveIndirectRelPt */\012PUSHW[ ]	/* 1 value pushed */\0129 \012SRP0[ ]	/* SetRefPoint0 */\012PUSHW[ ]	/* 2 values pushed */\01210 1 \012MIRP[10100]	/* MoveIndirectRelPt */\012PUSHW[ ]	/* 1 value pushed */\01260 \012SRP0[ ]	/* SetRefPoint0 */\012PUSHW[ ]	/* 2 values pushed */\01212 4 \012MIRP[10100]	/* MoveIndirectRelPt */\012PUSHW[ ]	/* 1 value pushed */\0125 \012SRP0[ ]	/* SetRefPoint0 */\012PUSHW[ ]	/* 2 values pushed */\01248 4 \012MIRP[10100]	/* MoveIndirectRelPt */\012PUSHW[ ]	/* 3 values pushed */\01219 5 48 \012SRP1[ ]	/* SetRefPoint1 */\012SRP2[ ]	/* SetRefPoint2 */\012IP[ ]	/* InterpolatePts */\012PUSHW[ ]	/* 3 values pushed */\01223 54 9 \012SRP1[ ]	/* SetRefPoint1 */\012SRP2[ ]	/* SetRefPoint2 */\012IP[ ]	/* InterpolatePts */\012PUSHW[ ]	/* 1 value pushed */\01210 \012SRP0[ ]	/* SetRefPoint0 */\012PUSHW[ ]	/* 2 values pushed */\01253 4 \012MIRP[10100]	/* MoveIndirectRelPt */\012IUP[0]	/* InterpolateUntPts */\012IUP[1]	/* InterpolateUntPts */";
};
width = 858;
}
);
note = AE.tabular;
},
{
color = 2;
glyphname = B.tabular;
lastChange = "2021-12-03 13:19:10 +0000";
layers = (
{
layerId = "04A772B0-FA71-43EE-BB43-CAC7F0EBD631";
paths = (
{
closed = 1;
nodes = (
"244 0 LINE SMOOTH",
"325.333 0 OFFCURVE",
"374 29.333 OFFCURVE",
"374 120 CURVE SMOOTH",
"374 178 LINE SMOOTH",
"374 218 OFFCURVE",
"358.667 250.333 OFFCURVE",
"340 269 CURVE",
"356 287.667 OFFCURVE",
"364 316.667 OFFCURVE",
"364 346 CURVE SMOOTH",
"364 394 LINE SMOOTH",
"364 454 OFFCURVE",
"331 496 OFFCURVE",
"251 496 CURVE SMOOTH",
"62 496 LINE",
"62 0 LINE"
);
},
{
closed = 1;
nodes = (
"204 213 LINE",
"215 213 LINE SMOOTH",
"221 213 OFFCURVE",
"224.5 207 OFFCURVE",
"225.5 195 CURVE SMOOTH",
"226.5 183 OFFCURVE",
"227 168.333 OFFCURVE",
"227 151 CURVE SMOOTH",
"227 133 OFFCURVE",
"226.333 117.833 OFFCURVE",
"225 105.5 CURVE SMOOTH",
"223.667 93.167 OFFCURVE",
"220.333 87 OFFCURVE",
"215 87 CURVE SMOOTH",
"204 87 LINE"
);
},
{
closed = 1;
nodes = (
"215 96 LINE SMOOTH",
"216.333 96 OFFCURVE",
"217.333 101.333 OFFCURVE",
"218 112 CURVE SMOOTH",
"218.667 122.667 OFFCURVE",
"219 135.667 OFFCURVE",
"219 151 CURVE SMOOTH",
"218.5 188.5 LINE SMOOTH",
"218.167 198.833 OFFCURVE",
"217 204 OFFCURVE",
"215 204 CURVE SMOOTH",
"212 204 LINE",
"212 96 LINE"
);
},
{
closed = 1;
nodes = (
"79 478 LINE",
"251 478 LINE SMOOTH",
"319 478 OFFCURVE",
"347 443.333 OFFCURVE",
"347 394 CURVE SMOOTH",
"347 346 LINE SMOOTH",
"347 311.333 OFFCURVE",
"336.667 282 OFFCURVE",
"310 266 CURVE",
"339.333 254 OFFCURVE",
"357 226 OFFCURVE",
"357 178 CURVE SMOOTH",
"357 120 LINE SMOOTH",
"357 41.333 OFFCURVE",
"313.333 18 OFFCURVE",
"244 18 CURVE SMOOTH",
"79 18 LINE"
);
},
{
closed = 1;
nodes = (
"244 27 LINE SMOOTH",
"309.333 27 OFFCURVE",
"349 49.333 OFFCURVE",
"349 120 CURVE SMOOTH",
"349 178 LINE SMOOTH",
"349 236.667 OFFCURVE",
"317 263 OFFCURVE",
"277 263 CURVE",
"277 265 LINE",
"321 270.333 OFFCURVE",
"339 303.333 OFFCURVE",
"339 346 CURVE SMOOTH",
"339 394 LINE SMOOTH",
"339 438 OFFCURVE",
"313.667 469 OFFCURVE",
"251 469 CURVE SMOOTH",
"87 469 LINE",
"87 27 LINE"
);
},
{
closed = 1;
nodes = (
"204 407 LINE",
"215 407 LINE SMOOTH",
"221 407 OFFCURVE",
"224.5 401.167 OFFCURVE",
"225.5 389.5 CURVE SMOOTH",
"226.5 377.833 OFFCURVE",
"227 363.667 OFFCURVE",
"227 347 CURVE SMOOTH",
"227 330.333 OFFCURVE",
"225.833 316.167 OFFCURVE",
"223.5 304.5 CURVE SMOOTH",
"221.167 292.833 OFFCURVE",
"217.667 287 OFFCURVE",
"213 287 CURVE SMOOTH",
"204 287 LINE"
);
},
{
closed = 1;
nodes = (
"213 296 LINE SMOOTH",
"215 296 OFFCURVE",
"216.5 301 OFFCURVE",
"217.5 311 CURVE SMOOTH",
"218.5 321 OFFCURVE",
"219 333 OFFCURVE",
"219 347 CURVE SMOOTH",
"218.5 383 LINE SMOOTH",
"218.167 393 OFFCURVE",
"217 398 OFFCURVE",
"215 398 CURVE SMOOTH",
"212 398 LINE",
"212 296 LINE"
);
}
);
userData = {
assembly = "PUSHW[ ]	/* 4 values pushed */\01235 6 71 4 \012CALL[ ]	/* CallFunction */\012PUSHW[ ]	/* 4 values pushed */\01212 6 45 4 \012CALL[ ]	/* CallFunction */\012PUSHW[ ]	/* 1 value pushed */\01235 \012SRP0[ ]	/* SetRefPoint0 */\012PUSHW[ ]	/* 2 values pushed */\0120 6 \012MIRP[10100]	/* MoveIndirectRelPt */\012PUSHW[ ]	/* 3 values pushed */\0129 45 12 \012SRP1[ ]	/* SetRefPoint1 */\012SRP2[ ]	/* SetRefPoint2 */\012IP[ ]	/* InterpolatePts */\012PUSHW[ ]	/* 1 value pushed */\01235 \012SRP0[ ]	/* SetRefPoint0 */\012PUSHW[ ]	/* 1 value pushed */\01218 \012MDRP[10000]	/* MoveDirectRelPt */\012PUSHW[ ]	/* 1 value pushed */\01212 \012SRP0[ ]	/* SetRefPoint0 */\012PUSHW[ ]	/* 2 values pushed */\01222 6 \012MIRP[10100]	/* MoveIndirectRelPt */\012PUSHW[ ]	/* 1 value pushed */\01231 \012MDRP[10000]	/* MoveDirectRelPt */\012PUSHW[ ]	/* 1 value pushed */\01245 \012SRP0[ ]	/* SetRefPoint0 */\012PUSHW[ ]	/* 1 value pushed */\01236 \012MDRP[10000]	/* MoveDirectRelPt */\012PUSHW[ ]	/* 1 value pushed */\01245 \012SRP0[ ]	/* SetRefPoint0 */\012PUSHW[ ]	/* 1 value pushed */\01240 \012MDRP[10000]	/* MoveDirectRelPt */\012PUSHW[ ]	/* 1 value pushed */\01240 \012MDAP[1]	/* MoveDirectAbsPt */\012PUSHW[ ]	/* 1 value pushed */\01212 \012SRP0[ ]	/* SetRefPoint0 */\012PUSHW[ ]	/* 1 value pushed */\01282 \012MDRP[11100]	/* MoveDirectRelPt */\012PUSHW[ ]	/* 3 values pushed */\01244 71 82 \012SRP1[ ]	/* SetRefPoint1 */\012SRP2[ ]	/* SetRefPoint2 */\012IP[ ]	/* InterpolatePts */\012PUSHW[ ]	/* 1 value pushed */\01245 \012SRP0[ ]	/* SetRefPoint0 */\012PUSHW[ ]	/* 1 value pushed */\01249 \012MDRP[10000]	/* MoveDirectRelPt */\012PUSHW[ ]	/* 1 value pushed */\01249 \012MDAP[1]	/* MoveDirectAbsPt */\012PUSHW[ ]	/* 3 values pushed */\01262 45 12 \012SRP1[ ]	/* SetRefPoint1 */\012SRP2[ ]	/* SetRefPoint2 */\012IP[ ]	/* InterpolatePts */\012PUSHW[ ]	/* 1 value pushed */\01212 \012SRP0[ ]	/* SetRefPoint0 */\012PUSHW[ ]	/* 1 value pushed */\01265 \012MDRP[10000]	/* MoveDirectRelPt */\012PUSHW[ ]	/* 1 value pushed */\01265 \012MDAP[1]	/* MoveDirectAbsPt */\012PUSHW[ ]	/* 1 value pushed */\01212 \012SRP0[ ]	/* SetRefPoint0 */\012PUSHW[ ]	/* 1 value pushed */\01289 \012MDRP[11100]	/* MoveDirectRelPt */\012SVTCA[0]	/* SetFreedomAndProjectionVectorToAxis */\012PUSHW[ ]	/* 1 value pushed */\0120 \012RCVT[ ]	/* ReadCVT */\012IF[ ]	/* If */\012PUSHW[ ]	/* 1 value pushed */\01271 \012MDAP[1]	/* MoveDirectAbsPt */\012ELSE[ ]	/* Else */\012PUSHW[ ]	/* 2 values pushed */\01271 11 \012MIAP[0]	/* MoveIndirectAbsPt */\012EIF[ ]	/* EndIf */\012PUSHW[ ]	/* 1 value pushed */\0120 \012RCVT[ ]	/* ReadCVT */\012IF[ ]	/* If */\012PUSHW[ ]	/* 1 value pushed */\01286 \012MDAP[1]	/* MoveDirectAbsPt */\012ELSE[ ]	/* Else */\012PUSHW[ ]	/* 2 values pushed */\01286 7 \012MIAP[0]	/* MoveIndirectAbsPt */\012EIF[ ]	/* EndIf */\012PUSHW[ ]	/* 3 values pushed */\0129 86 71 \012SRP1[ ]	/* SetRefPoint1 */\012SRP2[ ]	/* SetRefPoint2 */\012IP[ ]	/* InterpolatePts */\012PUSHW[ ]	/* 3 values pushed */\01244 86 71 \012SRP1[ ]	/* SetRefPoint1 */\012SRP2[ ]	/* SetRefPoint2 */\012IP[ ]	/* InterpolatePts */\012PUSHW[ ]	/* 3 values pushed */\01253 86 71 \012SRP1[ ]	/* SetRefPoint1 */\012SRP2[ ]	/* SetRefPoint2 */\012IP[ ]	/* InterpolatePts */\012PUSHW[ ]	/* 3 values pushed */\01262 86 71 \012SRP1[ ]	/* SetRefPoint1 */\012SRP2[ ]	/* SetRefPoint2 */\012IP[ ]	/* InterpolatePts */\012IUP[0]	/* InterpolateUntPts */\012IUP[1]	/* InterpolateUntPts */";
};
width = 445;
}
);
note = B.tabular;
},
{
color = 2;
glyphname = C.tabular;
lastChange = "2021-12-03 13:19:10 +0000";
layers = (
{
layerId = "04A772B0-FA71-43EE-BB43-CAC7F0EBD631";
paths = (
{
closed = 1;
nodes = (
"322.072 -9 OFFCURVE",
"366 25.177 OFFCURVE",
"366 158 CURVE SMOOTH",
"366 240 LINE",
"232 240 LINE",
"232 246 LINE",
"366 246 LINE",
"366 377 LINE SMOOTH",
"366 471.667 OFFCURVE",
"311 505 OFFCURVE",
"219 505 CURVE SMOOTH",
"127 505 OFFCURVE",
"66 470.333 OFFCURVE",
"66 377 CURVE SMOOTH",
"66 157 LINE SMOOTH",
"66 25.033 OFFCURVE",
"115.969 -9 OFFCURVE",
"219 -9 CURVE SMOOTH"
);
},
{
closed = 1;
nodes = (
"126.464 9 OFFCURVE",
"83 40.133 OFFCURVE",
"83 157 CURVE SMOOTH",
"83 377 LINE SMOOTH",
"83 458.333 OFFCURVE",
"136.333 487 OFFCURVE",
"219 487 CURVE SMOOTH",
"300.333 487 OFFCURVE",
"350 458.333 OFFCURVE",
"350 377 CURVE SMOOTH",
"350 264 LINE",
"221 264 LINE",
"221 382 LINE SMOOTH",
"221 392 OFFCURVE",
"220.333 397 OFFCURVE",
"219 397 CURVE SMOOTH",
"217 397 OFFCURVE",
"216 392 OFFCURVE",
"216 382 CURVE SMOOTH",
"216 109 LINE SMOOTH",
"216 100.333 OFFCURVE",
"217 96 OFFCURVE",
"219 96 CURVE SMOOTH",
"220.333 96 OFFCURVE",
"221 100.333 OFFCURVE",
"221 109 CURVE SMOOTH",
"221 222 LINE",
"350 222 LINE",
"350 158 LINE SMOOTH",
"350 40.29 OFFCURVE",
"310.498 9 OFFCURVE",
"219 9 CURVE SMOOTH"
);
},
{
closed = 1;
nodes = (
"303.545 18 OFFCURVE",
"341 46.477 OFFCURVE",
"341 158 CURVE SMOOTH",
"341 213 LINE",
"230 213 LINE",
"230 109 LINE SMOOTH",
"230 100.333 OFFCURVE",
"229 94.5 OFFCURVE",
"227 91.5 CURVE SMOOTH",
"225 88.5 OFFCURVE",
"222.333 87 OFFCURVE",
"219 87 CURVE SMOOTH",
"215 87 OFFCURVE",
"212 88.5 OFFCURVE",
"210 91.5 CURVE SMOOTH",
"208 94.5 OFFCURVE",
"207 100.333 OFFCURVE",
"207 109 CURVE SMOOTH",
"207 382 LINE SMOOTH",
"207 391.333 OFFCURVE",
"208 397.667 OFFCURVE",
"210 401 CURVE SMOOTH",
"212 404.333 OFFCURVE",
"215 406 OFFCURVE",
"219 406 CURVE SMOOTH",
"222.333 406 OFFCURVE",
"225 404.333 OFFCURVE",
"227 401 CURVE SMOOTH",
"229 397.667 OFFCURVE",
"230 391.333 OFFCURVE",
"230 382 CURVE SMOOTH",
"230 273 LINE",
"341 273 LINE",
"341 377 LINE SMOOTH",
"341 451.667 OFFCURVE",
"295 478 OFFCURVE",
"219 478 CURVE SMOOTH",
"141.667 478 OFFCURVE",
"91 451.667 OFFCURVE",
"91 377 CURVE SMOOTH",
"91 157 LINE SMOOTH",
"91 46.559 OFFCURVE",
"132.677 18 OFFCURVE",
"219 18 CURVE SMOOTH"
);
}
);
userData = {
assembly = "PUSHW[ ]	/* 4 values pushed */\01228 6 81 4 \012CALL[ ]	/* CallFunction */\012PUSHW[ ]	/* 4 values pushed */\0121 6 41 4 \012CALL[ ]	/* CallFunction */\012PUSHW[ ]	/* 1 value pushed */\01228 \012SRP0[ ]	/* SetRefPoint0 */\012PUSHW[ ]	/* 2 values pushed */\01211 6 \012MIRP[10100]	/* MoveIndirectRelPt */\012PUSHW[ ]	/* 1 value pushed */\0121 \012SRP0[ ]	/* SetRefPoint0 */\012PUSHW[ ]	/* 1 value pushed */\01218 \012MDRP[10000]	/* MoveDirectRelPt */\012PUSHW[ ]	/* 1 value pushed */\0121 \012SRP0[ ]	/* SetRefPoint0 */\012PUSHW[ ]	/* 2 values pushed */\01220 6 \012MIRP[10100]	/* MoveIndirectRelPt */\012PUSHW[ ]	/* 1 value pushed */\01234 \012MDRP[10000]	/* MoveDirectRelPt */\012PUSHW[ ]	/* 1 value pushed */\01241 \012SRP0[ ]	/* SetRefPoint0 */\012PUSHW[ ]	/* 1 value pushed */\01236 \012MDRP[10000]	/* MoveDirectRelPt */\012PUSHW[ ]	/* 1 value pushed */\01236 \012MDAP[1]	/* MoveDirectAbsPt */\012PUSHW[ ]	/* 1 value pushed */\01211 \012SRP0[ ]	/* SetRefPoint0 */\012PUSHW[ ]	/* 2 values pushed */\01237 6 \012MIRP[10100]	/* MoveIndirectRelPt */\012PUSHW[ ]	/* 1 value pushed */\01241 \012SRP0[ ]	/* SetRefPoint0 */\012PUSHW[ ]	/* 1 value pushed */\01246 \012MDRP[10000]	/* MoveDirectRelPt */\012PUSHW[ ]	/* 1 value pushed */\01246 \012MDAP[1]	/* MoveDirectAbsPt */\012PUSHW[ ]	/* 1 value pushed */\01237 \012SRP0[ ]	/* SetRefPoint0 */\012PUSHW[ ]	/* 1 value pushed */\01247 \012MDRP[10000]	/* MoveDirectRelPt */\012PUSHW[ ]	/* 1 value pushed */\01220 \012SRP0[ ]	/* SetRefPoint0 */\012PUSHW[ ]	/* 1 value pushed */\01268 \012MDRP[10000]	/* MoveDirectRelPt */\012PUSHW[ ]	/* 1 value pushed */\01268 \012MDAP[1]	/* MoveDirectAbsPt */\012PUSHW[ ]	/* 3 values pushed */\01269 41 1 \012SRP1[ ]	/* SetRefPoint1 */\012SRP2[ ]	/* SetRefPoint2 */\012IP[ ]	/* InterpolatePts */\012PUSHW[ ]	/* 1 value pushed */\01220 \012SRP0[ ]	/* SetRefPoint0 */\012PUSHW[ ]	/* 2 values pushed */\01289 6 \012MIRP[10100]	/* MoveIndirectRelPt */\012PUSHW[ ]	/* 1 value pushed */\01270 \012MDRP[10000]	/* MoveDirectRelPt */\012PUSHW[ ]	/* 1 value pushed */\0121 \012SRP0[ ]	/* SetRefPoint0 */\012PUSHW[ ]	/* 1 value pushed */\01291 \012MDRP[11100]	/* MoveDirectRelPt */\012SVTCA[0]	/* SetFreedomAndProjectionVectorToAxis */\012PUSHW[ ]	/* 1 value pushed */\0120 \012RCVT[ ]	/* ReadCVT */\012IF[ ]	/* If */\012PUSHW[ ]	/* 1 value pushed */\01276 \012MDAP[1]	/* MoveDirectAbsPt */\012ELSE[ ]	/* Else */\012PUSHW[ ]	/* 2 values pushed */\01276 7 \012MIAP[0]	/* MoveIndirectAbsPt */\012EIF[ ]	/* EndIf */\012PUSHW[ ]	/* 4 values pushed */\01269 4 6 4 \012CALL[ ]	/* CallFunction */\012PUSHW[ ]	/* 4 values pushed */\01247 2 36 4 \012CALL[ ]	/* CallFunction */\012PUSHW[ ]	/* 4 values pushed */\01215 4 20 4 \012CALL[ ]	/* CallFunction */\012PUSHW[ ]	/* 1 value pushed */\01276 \012SRP0[ ]	/* SetRefPoint0 */\012PUSHW[ ]	/* 2 values pushed */\0120 4 \012MIRP[10100]	/* MoveIndirectRelPt */\012PUSHW[ ]	/* 1 value pushed */\0126 \012SRP0[ ]	/* SetRefPoint0 */\012PUSHW[ ]	/* 2 values pushed */\01235 4 \012MIRP[10100]	/* MoveIndirectRelPt */\012PUSHW[ ]	/* 1 value pushed */\01215 \012SRP0[ ]	/* SetRefPoint0 */\012PUSHW[ ]	/* 1 value pushed */\01268 \012MDRP[11100]	/* MoveDirectRelPt */\012PUSHW[ ]	/* 1 value pushed */\01220 \012SRP0[ ]	/* SetRefPoint0 */\012PUSHW[ ]	/* 1 value pushed */\01285 \012MDRP[11100]	/* MoveDirectRelPt */\012PUSHW[ ]	/* 1 value pushed */\01269 \012SRP0[ ]	/* SetRefPoint0 */\012PUSHW[ ]	/* 1 value pushed */\01289 \012MDRP[10000]	/* MoveDirectRelPt */\012PUSHW[ ]	/* 1 value pushed */\01289 \012MDAP[1]	/* MoveDirectAbsPt */\012IUP[0]	/* InterpolateUntPts */\012IUP[1]	/* InterpolateUntPts */";
};
width = 443;
}
);
note = C.tabular;
},
{
color = 2;
glyphname = D.tabular;
lastChange = "2021-12-03 13:19:10 +0000";
layers = (
{
layerId = "04A772B0-FA71-43EE-BB43-CAC7F0EBD631";
paths = (
{
closed = 1;
nodes = (
"237 0 LINE SMOOTH",
"318.333 0 OFFCURVE",
"366 29.333 OFFCURVE",
"366 120 CURVE SMOOTH",
"366 394 LINE SMOOTH",
"366 452.667 OFFCURVE",
"332.667 496 OFFCURVE",
"254 496 CURVE SMOOTH",
"66 496 LINE",
"66 0 LINE"
);
},
{
closed = 1;
nodes = (
"83 478 LINE",
"254 478 LINE SMOOTH",
"322 478 OFFCURVE",
"350 443.333 OFFCURVE",
"350 394 CURVE SMOOTH",
"350 120 LINE SMOOTH",
"350 41.333 OFFCURVE",
"306.333 18 OFFCURVE",
"237 18 CURVE SMOOTH",
"83 18 LINE"
);
},
{
closed = 1;
nodes = (
"237 27 LINE SMOOTH",
"302.333 27 OFFCURVE",
"341 49.333 OFFCURVE",
"341 120 CURVE SMOOTH",
"341 394 LINE SMOOTH",
"341 438 OFFCURVE",
"316.667 469 OFFCURVE",
"254 469 CURVE SMOOTH",
"91 469 LINE",
"91 27 LINE"
);
},
{
closed = 1;
nodes = (
"207 404 LINE",
"218 404 LINE SMOOTH",
"221.333 404 OFFCURVE",
"224.167 402.5 OFFCURVE",
"226.5 399.5 CURVE SMOOTH",
"228.833 396.5 OFFCURVE",
"230 390.333 OFFCURVE",
"230 381 CURVE SMOOTH",
"230 109 LINE SMOOTH",
"230 100.333 OFFCURVE",
"228.833 94.5 OFFCURVE",
"226.5 91.5 CURVE SMOOTH",
"224.167 88.5 OFFCURVE",
"221.333 87 OFFCURVE",
"218 87 CURVE SMOOTH",
"207 87 LINE"
);
},
{
closed = 1;
nodes = (
"218 95 LINE SMOOTH",
"220 95 OFFCURVE",
"221 99.667 OFFCURVE",
"221 109 CURVE SMOOTH",
"221 381 LINE SMOOTH",
"221 390.333 OFFCURVE",
"220 395 OFFCURVE",
"218 395 CURVE SMOOTH",
"216 395 LINE",
"216 95 LINE"
);
}
);
userData = {
assembly = "PUSHW[ ]	/* 4 values pushed */\01214 6 38 4 \012CALL[ ]	/* CallFunction */\012PUSHW[ ]	/* 4 values pushed */\0125 6 23 4 \012CALL[ ]	/* CallFunction */\012PUSHW[ ]	/* 1 value pushed */\01214 \012SRP0[ ]	/* SetRefPoint0 */\012PUSHW[ ]	/* 2 values pushed */\0120 6 \012MIRP[10100]	/* MoveIndirectRelPt */\012PUSHW[ ]	/* 1 value pushed */\0125 \012SRP0[ ]	/* SetRefPoint0 */\012PUSHW[ ]	/* 2 values pushed */\01210 6 \012MIRP[10100]	/* MoveIndirectRelPt */\012PUSHW[ ]	/* 1 value pushed */\01223 \012SRP0[ ]	/* SetRefPoint0 */\012PUSHW[ ]	/* 1 value pushed */\01220 \012MDRP[10000]	/* MoveDirectRelPt */\012PUSHW[ ]	/* 1 value pushed */\01220 \012MDAP[1]	/* MoveDirectAbsPt */\012PUSHW[ ]	/* 1 value pushed */\0120 \012SRP0[ ]	/* SetRefPoint0 */\012PUSHW[ ]	/* 2 values pushed */\01227 6 \012MIRP[10100]	/* MoveIndirectRelPt */\012PUSHW[ ]	/* 1 value pushed */\01210 \012SRP0[ ]	/* SetRefPoint0 */\012PUSHW[ ]	/* 2 values pushed */\01242 6 \012MIRP[10100]	/* MoveIndirectRelPt */\012PUSHW[ ]	/* 1 value pushed */\0125 \012SRP0[ ]	/* SetRefPoint0 */\012PUSHW[ ]	/* 1 value pushed */\01249 \012MDRP[11100]	/* MoveDirectRelPt */\012SVTCA[0]	/* SetFreedomAndProjectionVectorToAxis */\012PUSHW[ ]	/* 1 value pushed */\0120 \012RCVT[ ]	/* ReadCVT */\012IF[ ]	/* If */\012PUSHW[ ]	/* 1 value pushed */\01238 \012MDAP[1]	/* MoveDirectAbsPt */\012ELSE[ ]	/* Else */\012PUSHW[ ]	/* 2 values pushed */\01238 11 \012MIAP[0]	/* MoveIndirectAbsPt */\012EIF[ ]	/* EndIf */\012PUSHW[ ]	/* 1 value pushed */\0120 \012RCVT[ ]	/* ReadCVT */\012IF[ ]	/* If */\012PUSHW[ ]	/* 1 value pushed */\01246 \012MDAP[1]	/* MoveDirectAbsPt */\012ELSE[ ]	/* Else */\012PUSHW[ ]	/* 2 values pushed */\01246 7 \012MIAP[0]	/* MoveIndirectAbsPt */\012EIF[ ]	/* EndIf */\012PUSHW[ ]	/* 3 values pushed */\01223 46 38 \012SRP1[ ]	/* SetRefPoint1 */\012SRP2[ ]	/* SetRefPoint2 */\012IP[ ]	/* InterpolatePts */\012IUP[0]	/* InterpolateUntPts */\012IUP[1]	/* InterpolateUntPts */";
};
width = 443;
}
);
note = D.tabular;
},
{
color = 2;
glyphname = E.tabular;
lastChange = "2021-12-03 13:19:10 +0000";
layers = (
{
anchors = (
{
name = bottom;
position = "{203, 0}";
},
{
name = ogonek;
position = "{328, 0}";
},
{
name = top;
position = "{204, 496}";
},
{
name = topleft;
position = "{20, 591}";
}
);
layerId = "04A772B0-FA71-43EE-BB43-CAC7F0EBD631";
paths = (
{
closed = 1;
nodes = (
"328 0 LINE",
"328 135 LINE",
"247 135 LINE",
"247 180 LINE",
"322 180 LINE",
"322 327 LINE",
"247 327 LINE",
"247 360 LINE",
"328 360 LINE",
"328 496 LINE",
"88 496 LINE",
"88 0 LINE"
);
},
{
closed = 1;
nodes = (
"104 478 LINE",
"312 478 LINE",
"312 377 LINE",
"231 377 LINE",
"231 310 LINE",
"306 310 LINE",
"306 198 LINE",
"231 198 LINE",
"231 117 LINE",
"312 117 LINE",
"312 18 LINE",
"104 18 LINE"
);
},
{
closed = 1;
nodes = (
"304 27 LINE",
"304 108 LINE",
"223 108 LINE",
"223 207 LINE",
"298 207 LINE",
"298 301 LINE",
"223 301 LINE",
"223 386 LINE",
"304 386 LINE",
"304 469 LINE",
"112 469 LINE",
"112 27 LINE"
);
}
);
userData = {
assembly = "PUSHW[ ]	/* 4 values pushed */\0123 6 24 4 \012CALL[ ]	/* CallFunction */\012PUSHW[ ]	/* 4 values pushed */\01230 6 16 4 \012CALL[ ]	/* CallFunction */\012PUSHW[ ]	/* 1 value pushed */\0123 \012SRP0[ ]	/* SetRefPoint0 */\012PUSHW[ ]	/* 2 values pushed */\0120 6 \012MIRP[10100]	/* MoveIndirectRelPt */\012PUSHW[ ]	/* 2 values pushed */\0125 5 \012MIRP[10100]	/* MoveIndirectRelPt */\012PUSHW[ ]	/* 1 value pushed */\0122 \012MDRP[10000]	/* MoveDirectRelPt */\012PUSHW[ ]	/* 1 value pushed */\0122 \012MDAP[1]	/* MoveDirectAbsPt */\012PUSHW[ ]	/* 1 value pushed */\0123 \012SRP0[ ]	/* SetRefPoint0 */\012PUSHW[ ]	/* 1 value pushed */\0127 \012MDRP[10000]	/* MoveDirectRelPt */\012PUSHW[ ]	/* 1 value pushed */\0125 \012SRP0[ ]	/* SetRefPoint0 */\012PUSHW[ ]	/* 1 value pushed */\0129 \012MDRP[10000]	/* MoveDirectRelPt */\012PUSHW[ ]	/* 1 value pushed */\0129 \012MDAP[1]	/* MoveDirectAbsPt */\012PUSHW[ ]	/* 1 value pushed */\01216 \012SRP0[ ]	/* SetRefPoint0 */\012PUSHW[ ]	/* 1 value pushed */\01219 \012MDRP[10000]	/* MoveDirectRelPt */\012PUSHW[ ]	/* 1 value pushed */\01230 \012SRP0[ ]	/* SetRefPoint0 */\012PUSHW[ ]	/* 1 value pushed */\01225 \012MDRP[10000]	/* MoveDirectRelPt */\012PUSHW[ ]	/* 1 value pushed */\01225 \012MDAP[1]	/* MoveDirectAbsPt */\012PUSHW[ ]	/* 1 value pushed */\0120 \012SRP0[ ]	/* SetRefPoint0 */\012PUSHW[ ]	/* 2 values pushed */\01227 6 \012MIRP[10100]	/* MoveIndirectRelPt */\012PUSHW[ ]	/* 1 value pushed */\01231 \012MDRP[10000]	/* MoveDirectRelPt */\012PUSHW[ ]	/* 1 value pushed */\01230 \012SRP0[ ]	/* SetRefPoint0 */\012PUSHW[ ]	/* 1 value pushed */\01233 \012MDRP[10000]	/* MoveDirectRelPt */\012PUSHW[ ]	/* 1 value pushed */\01233 \012MDAP[1]	/* MoveDirectAbsPt */\012PUSHW[ ]	/* 1 value pushed */\01230 \012SRP0[ ]	/* SetRefPoint0 */\012PUSHW[ ]	/* 1 value pushed */\01237 \012MDRP[11100]	/* MoveDirectRelPt */\012SVTCA[0]	/* SetFreedomAndProjectionVectorToAxis */\012PUSHW[ ]	/* 1 value pushed */\0120 \012RCVT[ ]	/* ReadCVT */\012IF[ ]	/* If */\012PUSHW[ ]	/* 1 value pushed */\01224 \012MDAP[1]	/* MoveDirectAbsPt */\012ELSE[ ]	/* Else */\012PUSHW[ ]	/* 2 values pushed */\01224 11 \012MIAP[0]	/* MoveIndirectAbsPt */\012EIF[ ]	/* EndIf */\012PUSHW[ ]	/* 1 value pushed */\0120 \012RCVT[ ]	/* ReadCVT */\012IF[ ]	/* If */\012PUSHW[ ]	/* 1 value pushed */\01234 \012MDAP[1]	/* MoveDirectAbsPt */\012ELSE[ ]	/* Else */\012PUSHW[ ]	/* 2 values pushed */\01234 7 \012MIAP[0]	/* MoveIndirectAbsPt */\012EIF[ ]	/* EndIf */\012PUSHW[ ]	/* 4 values pushed */\01233 4 10 4 \012CALL[ ]	/* CallFunction */\012PUSHW[ ]	/* 4 values pushed */\01217 2 14 4 \012CALL[ ]	/* CallFunction */\012PUSHW[ ]	/* 4 values pushed */\0125 4 30 4 \012CALL[ ]	/* CallFunction */\012PUSHW[ ]	/* 4 values pushed */\01221 2 18 4 \012CALL[ ]	/* CallFunction */\012PUSHW[ ]	/* 1 value pushed */\01224 \012SRP0[ ]	/* SetRefPoint0 */\012PUSHW[ ]	/* 2 values pushed */\0122 4 \012MIRP[10100]	/* MoveIndirectRelPt */\012PUSHW[ ]	/* 2 values pushed */\0121 2 \012MIRP[10100]	/* MoveIndirectRelPt */\012PUSHW[ ]	/* 1 value pushed */\0125 \012SRP0[ ]	/* SetRefPoint0 */\012PUSHW[ ]	/* 2 values pushed */\0126 1 \012MIRP[10100]	/* MoveIndirectRelPt */\012PUSHW[ ]	/* 1 value pushed */\01234 \012SRP0[ ]	/* SetRefPoint0 */\012PUSHW[ ]	/* 2 values pushed */\0128 4 \012MIRP[10100]	/* MoveIndirectRelPt */\012PUSHW[ ]	/* 1 value pushed */\01210 \012SRP0[ ]	/* SetRefPoint0 */\012PUSHW[ ]	/* 2 values pushed */\0129 2 \012MIRP[10100]	/* MoveIndirectRelPt */\012PUSHW[ ]	/* 1 value pushed */\0121 \012SRP0[ ]	/* SetRefPoint0 */\012PUSHW[ ]	/* 2 values pushed */\01226 4 \012MIRP[10100]	/* MoveIndirectRelPt */\012PUSHW[ ]	/* 1 value pushed */\0126 \012SRP0[ ]	/* SetRefPoint0 */\012PUSHW[ ]	/* 2 values pushed */\01229 4 \012MIRP[10100]	/* MoveIndirectRelPt */\012IUP[0]	/* InterpolateUntPts */\012IUP[1]	/* InterpolateUntPts */";
};
width = 428;
}
);
note = E.tabular;
},
{
color = 2;
glyphname = F.tabular;
lastChange = "2021-12-03 13:19:10 +0000";
layers = (
{
layerId = "04A772B0-FA71-43EE-BB43-CAC7F0EBD631";
paths = (
{
closed = 1;
nodes = (
"247 0 LINE",
"247 180 LINE",
"322 180 LINE",
"322 327 LINE",
"247 327 LINE",
"247 360 LINE",
"328 360 LINE",
"328 496 LINE",
"88 496 LINE",
"88 0 LINE"
);
},
{
closed = 1;
nodes = (
"104 478 LINE",
"312 478 LINE",
"312 377 LINE",
"231 377 LINE",
"231 310 LINE",
"306 310 LINE",
"306 198 LINE",
"231 198 LINE",
"231 18 LINE",
"104 18 LINE"
);
},
{
closed = 1;
nodes = (
"223 27 LINE",
"223 207 LINE",
"298 207 LINE",
"298 301 LINE",
"223 301 LINE",
"223 386 LINE",
"304 386 LINE",
"304 469 LINE",
"112 469 LINE",
"112 27 LINE"
);
}
);
userData = {
assembly = "PUSHW[ ]	/* 4 values pushed */\0123 6 20 4 \012CALL[ ]	/* CallFunction */\012PUSHW[ ]	/* 4 values pushed */\01226 6 12 4 \012CALL[ ]	/* CallFunction */\012PUSHW[ ]	/* 1 value pushed */\0123 \012SRP0[ ]	/* SetRefPoint0 */\012PUSHW[ ]	/* 2 values pushed */\0120 6 \012MIRP[10100]	/* MoveIndirectRelPt */\012PUSHW[ ]	/* 2 values pushed */\0125 5 \012MIRP[10100]	/* MoveIndirectRelPt */\012PUSHW[ ]	/* 1 value pushed */\0122 \012MDRP[10000]	/* MoveDirectRelPt */\012PUSHW[ ]	/* 1 value pushed */\0122 \012MDAP[1]	/* MoveDirectAbsPt */\012PUSHW[ ]	/* 1 value pushed */\0123 \012SRP0[ ]	/* SetRefPoint0 */\012PUSHW[ ]	/* 1 value pushed */\0127 \012MDRP[10000]	/* MoveDirectRelPt */\012PUSHW[ ]	/* 1 value pushed */\01212 \012SRP0[ ]	/* SetRefPoint0 */\012PUSHW[ ]	/* 1 value pushed */\01215 \012MDRP[10000]	/* MoveDirectRelPt */\012PUSHW[ ]	/* 1 value pushed */\01226 \012SRP0[ ]	/* SetRefPoint0 */\012PUSHW[ ]	/* 1 value pushed */\01221 \012MDRP[10000]	/* MoveDirectRelPt */\012PUSHW[ ]	/* 1 value pushed */\01221 \012MDAP[1]	/* MoveDirectAbsPt */\012PUSHW[ ]	/* 1 value pushed */\0120 \012SRP0[ ]	/* SetRefPoint0 */\012PUSHW[ ]	/* 2 values pushed */\01223 6 \012MIRP[10100]	/* MoveIndirectRelPt */\012PUSHW[ ]	/* 1 value pushed */\01227 \012MDRP[10000]	/* MoveDirectRelPt */\012PUSHW[ ]	/* 1 value pushed */\01226 \012SRP0[ ]	/* SetRefPoint0 */\012PUSHW[ ]	/* 1 value pushed */\01231 \012MDRP[11100]	/* MoveDirectRelPt */\012SVTCA[0]	/* SetFreedomAndProjectionVectorToAxis */\012PUSHW[ ]	/* 1 value pushed */\0120 \012RCVT[ ]	/* ReadCVT */\012IF[ ]	/* If */\012PUSHW[ ]	/* 1 value pushed */\01220 \012MDAP[1]	/* MoveDirectAbsPt */\012ELSE[ ]	/* Else */\012PUSHW[ ]	/* 2 values pushed */\01220 11 \012MIAP[0]	/* MoveIndirectAbsPt */\012EIF[ ]	/* EndIf */\012PUSHW[ ]	/* 1 value pushed */\0120 \012RCVT[ ]	/* ReadCVT */\012IF[ ]	/* If */\012PUSHW[ ]	/* 1 value pushed */\01228 \012MDAP[1]	/* MoveDirectAbsPt */\012ELSE[ ]	/* Else */\012PUSHW[ ]	/* 2 values pushed */\01228 7 \012MIAP[0]	/* MoveIndirectAbsPt */\012EIF[ ]	/* EndIf */\012PUSHW[ ]	/* 4 values pushed */\0125 4 26 4 \012CALL[ ]	/* CallFunction */\012PUSHW[ ]	/* 4 values pushed */\01217 2 14 4 \012CALL[ ]	/* CallFunction */\012PUSHW[ ]	/* 1 value pushed */\01220 \012SRP0[ ]	/* SetRefPoint0 */\012PUSHW[ ]	/* 2 values pushed */\0122 4 \012MIRP[10100]	/* MoveIndirectRelPt */\012PUSHW[ ]	/* 2 values pushed */\0121 2 \012MIRP[10100]	/* MoveIndirectRelPt */\012PUSHW[ ]	/* 1 value pushed */\0125 \012SRP0[ ]	/* SetRefPoint0 */\012PUSHW[ ]	/* 2 values pushed */\0126 1 \012MIRP[10100]	/* MoveIndirectRelPt */\012PUSHW[ ]	/* 1 value pushed */\01228 \012SRP0[ ]	/* SetRefPoint0 */\012PUSHW[ ]	/* 2 values pushed */\01212 4 \012MIRP[10100]	/* MoveIndirectRelPt */\012PUSHW[ ]	/* 1 value pushed */\0121 \012SRP0[ ]	/* SetRefPoint0 */\012PUSHW[ ]	/* 2 values pushed */\01222 4 \012MIRP[10100]	/* MoveIndirectRelPt */\012PUSHW[ ]	/* 1 value pushed */\0126 \012SRP0[ ]	/* SetRefPoint0 */\012PUSHW[ ]	/* 2 values pushed */\01225 4 \012MIRP[10100]	/* MoveIndirectRelPt */\012IUP[0]	/* InterpolateUntPts */\012IUP[1]	/* InterpolateUntPts */";
};
width = 428;
}
);
note = F.tabular;
},
{
color = 2;
glyphname = G.tabular;
lastChange = "2021-12-03 13:19:10 +0000";
layers = (
{
layerId = "04A772B0-FA71-43EE-BB43-CAC7F0EBD631";
paths = (
{
closed = 1;
nodes = (
"205 -7 OFFCURVE",
"220.333 0.333 OFFCURVE",
"235 11 CURVE",
"237 0 LINE",
"366 0 LINE",
"366 375 LINE SMOOTH",
"366 468.333 OFFCURVE",
"304.333 503 OFFCURVE",
"215 503 CURVE SMOOTH",
"125.667 503 OFFCURVE",
"66 468.333 OFFCURVE",
"66 375 CURVE SMOOTH",
"66 140 LINE SMOOTH",
"66 27.918 OFFCURVE",
"111.341 -7 OFFCURVE",
"181 -7 CURVE SMOOTH"
);
},
{
closed = 1;
nodes = (
"222.667 96 OFFCURVE",
"225 100.333 OFFCURVE",
"225 109 CURVE SMOOTH",
"225 184 LINE",
"211 184 LINE",
"211 109 LINE SMOOTH",
"211 100.333 OFFCURVE",
"213.333 96 OFFCURVE",
"218 96 CURVE SMOOTH"
);
},
{
closed = 1;
nodes = (
"120.862 11 OFFCURVE",
"83 42.324 OFFCURVE",
"83 140 CURVE SMOOTH",
"83 375 LINE SMOOTH",
"83 455 OFFCURVE",
"135 485 OFFCURVE",
"215 485 CURVE SMOOTH",
"295 485 OFFCURVE",
"350 455 OFFCURVE",
"350 375 CURVE SMOOTH",
"350 298 LINE",
"225 298 LINE",
"225 382 LINE SMOOTH",
"225 391.333 OFFCURVE",
"222.667 396 OFFCURVE",
"218 396 CURVE SMOOTH",
"213.333 396 OFFCURVE",
"211 391.333 OFFCURVE",
"211 382 CURVE SMOOTH",
"211 269 LINE",
"350 269 LINE",
"350 18 LINE",
"251 18 LINE",
"244 47 LINE",
"233.333 28.333 OFFCURVE",
"214.333 11 OFFCURVE",
"181 11 CURVE SMOOTH"
);
},
{
closed = 1;
nodes = (
"220.121 20 OFFCURVE",
"239.818 47.864 OFFCURVE",
"247 73 CURVE",
"257 27 LINE",
"341 27 LINE",
"341 260 LINE",
"216 260 LINE",
"216 193 LINE",
"233 193 LINE",
"233 109 LINE SMOOTH",
"233 91.667 OFFCURVE",
"227.333 87 OFFCURVE",
"218 87 CURVE SMOOTH",
"208.667 87 OFFCURVE",
"202 91.667 OFFCURVE",
"202 109 CURVE SMOOTH",
"202 382 LINE SMOOTH",
"202 400.667 OFFCURVE",
"208.667 405 OFFCURVE",
"218 405 CURVE SMOOTH",
"227.333 405 OFFCURVE",
"233 400.667 OFFCURVE",
"233 382 CURVE SMOOTH",
"233 307 LINE",
"341 307 LINE",
"341 375 LINE SMOOTH",
"341 447.865 OFFCURVE",
"289.057 476 OFFCURVE",
"215 476 CURVE SMOOTH",
"140.333 476 OFFCURVE",
"91 449.667 OFFCURVE",
"91 375 CURVE SMOOTH",
"91 140 LINE SMOOTH",
"91 51.063 OFFCURVE",
"127.312 20 OFFCURVE",
"181 20 CURVE SMOOTH"
);
}
);
userData = {
assembly = "PUSHW[ ]	/* 4 values pushed */\01232 6 86 4 \012CALL[ ]	/* CallFunction */\012PUSHW[ ]	/* 4 values pushed */\0121 6 47 4 \012CALL[ ]	/* CallFunction */\012PUSHW[ ]	/* 3 values pushed */\0123 47 1 \012SRP1[ ]	/* SetRefPoint1 */\012SRP2[ ]	/* SetRefPoint2 */\012IP[ ]	/* InterpolatePts */\012PUSHW[ ]	/* 1 value pushed */\01232 \012SRP0[ ]	/* SetRefPoint0 */\012PUSHW[ ]	/* 2 values pushed */\01213 6 \012MIRP[10100]	/* MoveIndirectRelPt */\012PUSHW[ ]	/* 1 value pushed */\0121 \012SRP0[ ]	/* SetRefPoint0 */\012PUSHW[ ]	/* 1 value pushed */\01222 \012MDRP[10000]	/* MoveDirectRelPt */\012PUSHW[ ]	/* 1 value pushed */\0121 \012SRP0[ ]	/* SetRefPoint0 */\012PUSHW[ ]	/* 2 values pushed */\01224 6 \012MIRP[10100]	/* MoveIndirectRelPt */\012PUSHW[ ]	/* 1 value pushed */\01238 \012MDRP[10000]	/* MoveDirectRelPt */\012PUSHW[ ]	/* 1 value pushed */\01225 \012SRP0[ ]	/* SetRefPoint0 */\012PUSHW[ ]	/* 1 value pushed */\01239 \012MDRP[10000]	/* MoveDirectRelPt */\012PUSHW[ ]	/* 1 value pushed */\01247 \012SRP0[ ]	/* SetRefPoint0 */\012PUSHW[ ]	/* 1 value pushed */\01240 \012MDRP[10000]	/* MoveDirectRelPt */\012PUSHW[ ]	/* 1 value pushed */\01240 \012MDAP[1]	/* MoveDirectAbsPt */\012PUSHW[ ]	/* 1 value pushed */\01213 \012SRP0[ ]	/* SetRefPoint0 */\012PUSHW[ ]	/* 2 values pushed */\01243 6 \012MIRP[10100]	/* MoveIndirectRelPt */\012PUSHW[ ]	/* 1 value pushed */\01247 \012SRP0[ ]	/* SetRefPoint0 */\012PUSHW[ ]	/* 1 value pushed */\01249 \012MDRP[10000]	/* MoveDirectRelPt */\012PUSHW[ ]	/* 1 value pushed */\01243 \012SRP0[ ]	/* SetRefPoint0 */\012PUSHW[ ]	/* 1 value pushed */\01253 \012MDRP[10000]	/* MoveDirectRelPt */\012PUSHW[ ]	/* 3 values pushed */\01271 47 1 \012SRP1[ ]	/* SetRefPoint1 */\012SRP2[ ]	/* SetRefPoint2 */\012IP[ ]	/* InterpolatePts */\012PUSHW[ ]	/* 3 values pushed */\01278 47 1 \012SRP1[ ]	/* SetRefPoint1 */\012SRP2[ ]	/* SetRefPoint2 */\012IP[ ]	/* InterpolatePts */\012PUSHW[ ]	/* 1 value pushed */\01224 \012SRP0[ ]	/* SetRefPoint0 */\012PUSHW[ ]	/* 2 values pushed */\01293 6 \012MIRP[10100]	/* MoveIndirectRelPt */\012PUSHW[ ]	/* 1 value pushed */\0121 \012SRP0[ ]	/* SetRefPoint0 */\012PUSHW[ ]	/* 1 value pushed */\01295 \012MDRP[11100]	/* MoveDirectRelPt */\012SVTCA[0]	/* SetFreedomAndProjectionVectorToAxis */\012PUSHW[ ]	/* 1 value pushed */\0120 \012RCVT[ ]	/* ReadCVT */\012IF[ ]	/* If */\012PUSHW[ ]	/* 1 value pushed */\01276 \012MDAP[1]	/* MoveDirectAbsPt */\012ELSE[ ]	/* Else */\012PUSHW[ ]	/* 2 values pushed */\01276 7 \012MIAP[0]	/* MoveIndirectAbsPt */\012EIF[ ]	/* EndIf */\012PUSHW[ ]	/* 1 value pushed */\0120 \012RCVT[ ]	/* ReadCVT */\012IF[ ]	/* If */\012PUSHW[ ]	/* 1 value pushed */\01281 \012MDAP[1]	/* MoveDirectAbsPt */\012ELSE[ ]	/* Else */\012PUSHW[ ]	/* 2 values pushed */\01281 7 \012MIAP[0]	/* MoveIndirectAbsPt */\012EIF[ ]	/* EndIf */\012PUSHW[ ]	/* 4 values pushed */\01217 4 24 4 \012CALL[ ]	/* CallFunction */\012PUSHW[ ]	/* 3 values pushed */\01255 74 3 \012CALL[ ]	/* CallFunction */\012PUSHW[ ]	/* 1 value pushed */\01281 \012SRP0[ ]	/* SetRefPoint0 */\012PUSHW[ ]	/* 1 value pushed */\0128 \012MDRP[11100]	/* MoveDirectRelPt */\012NPUSHW[ ]	/* 27 values pushed */\0127 8 23 8 39 8 55 8 71 8 87 8 103 8 119 8 135 8 151 8 167 8 183 8 199 8 13 \012DELTAP1[ ]	/* DeltaExceptionP1 */\012NPUSHW[ ]	/* 5 values pushed */\012214 8 230 8 2 \012DELTAP1[ ]	/* DeltaExceptionP1 */\012PUSHW[ ]	/* 1 value pushed */\0121 \012MDRP[10000]	/* MoveDirectRelPt */\012PUSHW[ ]	/* 1 value pushed */\0121 \012MDAP[1]	/* MoveDirectAbsPt */\012PUSHW[ ]	/* 1 value pushed */\0128 \012SRP0[ ]	/* SetRefPoint0 */\012PUSHW[ ]	/* 1 value pushed */\01241 \012MDRP[11100]	/* MoveDirectRelPt */\012PUSHW[ ]	/* 3 values pushed */\0123 8 41 \012SRP1[ ]	/* SetRefPoint1 */\012SRP2[ ]	/* SetRefPoint2 */\012IP[ ]	/* InterpolatePts */\012PUSHW[ ]	/* 1 value pushed */\0128 \012SRP0[ ]	/* SetRefPoint0 */\012PUSHW[ ]	/* 1 value pushed */\01268 \012MDRP[10000]	/* MoveDirectRelPt */\012PUSHW[ ]	/* 1 value pushed */\01268 \012MDAP[1]	/* MoveDirectAbsPt */\012PUSHW[ ]	/* 1 value pushed */\01272 \012MDRP[10000]	/* MoveDirectRelPt */\012PUSHW[ ]	/* 1 value pushed */\01273 \012MDRP[10000]	/* MoveDirectRelPt */\012PUSHW[ ]	/* 3 values pushed */\01278 81 8 \012SRP1[ ]	/* SetRefPoint1 */\012SRP2[ ]	/* SetRefPoint2 */\012IP[ ]	/* InterpolatePts */\012PUSHW[ ]	/* 1 value pushed */\01224 \012SRP0[ ]	/* SetRefPoint0 */\012PUSHW[ ]	/* 2 values pushed */\01290 4 \012MIRP[10100]	/* MoveIndirectRelPt */\012IUP[0]	/* InterpolateUntPts */\012IUP[1]	/* InterpolateUntPts */";
};
width = 443;
}
);
note = G.tabular;
},
{
color = 2;
glyphname = H.tabular;
lastChange = "2021-12-03 13:19:10 +0000";
layers = (
{
layerId = "04A772B0-FA71-43EE-BB43-CAC7F0EBD631";
paths = (
{
closed = 1;
nodes = (
"364 0 LINE",
"364 496 LINE",
"67 496 LINE",
"67 0 LINE"
);
},
{
closed = 1;
nodes = (
"84 478 LINE",
"212 478 LINE",
"212 307 LINE",
"220 307 LINE",
"220 478 LINE",
"348 478 LINE",
"348 18 LINE",
"220 18 LINE",
"220 202 LINE",
"212 202 LINE",
"212 18 LINE",
"84 18 LINE"
);
},
{
closed = 1;
nodes = (
"204 27 LINE",
"204 211 LINE",
"229 211 LINE",
"229 27 LINE",
"339 27 LINE",
"339 469 LINE",
"229 469 LINE",
"229 298 LINE",
"204 298 LINE",
"204 469 LINE",
"92 469 LINE",
"92 27 LINE"
);
}
);
userData = {
assembly = "PUSHW[ ]	/* 4 values pushed */\0121 6 24 4 \012CALL[ ]	/* CallFunction */\012PUSHW[ ]	/* 4 values pushed */\0128 6 19 4 \012CALL[ ]	/* CallFunction */\012PUSHW[ ]	/* 1 value pushed */\0121 \012SRP0[ ]	/* SetRefPoint0 */\012PUSHW[ ]	/* 2 values pushed */\0122 6 \012MIRP[10100]	/* MoveIndirectRelPt */\012PUSHW[ ]	/* 1 value pushed */\0121 \012SRP0[ ]	/* SetRefPoint0 */\012PUSHW[ ]	/* 1 value pushed */\0124 \012MDRP[10000]	/* MoveDirectRelPt */\012PUSHW[ ]	/* 1 value pushed */\0128 \012SRP0[ ]	/* SetRefPoint0 */\012PUSHW[ ]	/* 2 values pushed */\0127 6 \012MIRP[10100]	/* MoveIndirectRelPt */\012PUSHW[ ]	/* 1 value pushed */\01210 \012MDRP[10000]	/* MoveDirectRelPt */\012PUSHW[ ]	/* 1 value pushed */\0122 \012SRP0[ ]	/* SetRefPoint0 */\012PUSHW[ ]	/* 2 values pushed */\01213 6 \012MIRP[10100]	/* MoveIndirectRelPt */\012PUSHW[ ]	/* 1 value pushed */\01216 \012MDRP[10000]	/* MoveDirectRelPt */\012PUSHW[ ]	/* 1 value pushed */\01219 \012SRP0[ ]	/* SetRefPoint0 */\012PUSHW[ ]	/* 1 value pushed */\01222 \012MDRP[10000]	/* MoveDirectRelPt */\012PUSHW[ ]	/* 1 value pushed */\0127 \012SRP0[ ]	/* SetRefPoint0 */\012PUSHW[ ]	/* 2 values pushed */\01226 6 \012MIRP[10100]	/* MoveIndirectRelPt */\012PUSHW[ ]	/* 1 value pushed */\0128 \012SRP0[ ]	/* SetRefPoint0 */\012PUSHW[ ]	/* 1 value pushed */\01229 \012MDRP[11100]	/* MoveDirectRelPt */\012SVTCA[0]	/* SetFreedomAndProjectionVectorToAxis */\012PUSHW[ ]	/* 1 value pushed */\0120 \012RCVT[ ]	/* ReadCVT */\012IF[ ]	/* If */\012PUSHW[ ]	/* 1 value pushed */\01225 \012MDAP[1]	/* MoveDirectAbsPt */\012ELSE[ ]	/* Else */\012PUSHW[ ]	/* 2 values pushed */\01225 11 \012MIAP[0]	/* MoveIndirectAbsPt */\012EIF[ ]	/* EndIf */\012PUSHW[ ]	/* 1 value pushed */\0120 \012RCVT[ ]	/* ReadCVT */\012IF[ ]	/* If */\012PUSHW[ ]	/* 1 value pushed */\01224 \012MDAP[1]	/* MoveDirectAbsPt */\012ELSE[ ]	/* Else */\012PUSHW[ ]	/* 2 values pushed */\01224 7 \012MIAP[0]	/* MoveIndirectAbsPt */\012EIF[ ]	/* EndIf */\012IUP[0]	/* InterpolateUntPts */\012IUP[1]	/* InterpolateUntPts */";
};
width = 442;
}
);
note = H.tabular;
},
{
color = 2;
glyphname = I.tabular;
lastChange = "2021-12-03 13:19:10 +0000";
layers = (
{
anchors = (
{
name = bottom;
position = "{204, 0}";
},
{
name = ogonek;
position = "{262, 0}";
},
{
name = top;
position = "{203, 495}";
},
{
name = topleft;
position = "{20, 591}";
}
);
layerId = "04A772B0-FA71-43EE-BB43-CAC7F0EBD631";
paths = (
{
closed = 1;
nodes = (
"320 0 LINE",
"320 136 LINE",
"283 136 LINE",
"283 360 LINE",
"320 360 LINE",
"320 496 LINE",
"92 496 LINE",
"92 360 LINE",
"129 360 LINE",
"129 136 LINE",
"92 136 LINE",
"92 0 LINE"
);
},
{
closed = 1;
nodes = (
"108 119 LINE",
"145 119 LINE",
"145 377 LINE",
"108 377 LINE",
"108 478 LINE",
"304 478 LINE",
"304 377 LINE",
"267 377 LINE",
"267 119 LINE",
"304 119 LINE",
"304 18 LINE",
"108 18 LINE"
);
},
{
closed = 1;
nodes = (
"296 27 LINE",
"296 110 LINE",
"259 110 LINE",
"259 386 LINE",
"296 386 LINE",
"296 469 LINE",
"116 469 LINE",
"116 386 LINE",
"153 386 LINE",
"153 110 LINE",
"116 110 LINE",
"116 27 LINE"
);
}
);
userData = {
assembly = "PUSHW[ ]	/* 3 values pushed */\01213 35 3 \012CALL[ ]	/* CallFunction */\012PUSHW[ ]	/* 3 values pushed */\01229 19 3 \012CALL[ ]	/* CallFunction */\012PUSHW[ ]	/* 3 values pushed */\0120 35 13 \012SRP1[ ]	/* SetRefPoint1 */\012SRP2[ ]	/* SetRefPoint2 */\012IP[ ]	/* InterpolatePts */\012PUSHW[ ]	/* 1 value pushed */\0120 \012MDAP[1]	/* MoveDirectAbsPt */\012PUSHW[ ]	/* 2 values pushed */\0121 5 \012MIRP[10100]	/* MoveIndirectRelPt */\012PUSHW[ ]	/* 3 values pushed */\01233 35 13 \012SRP1[ ]	/* SetRefPoint1 */\012SRP2[ ]	/* SetRefPoint2 */\012IP[ ]	/* InterpolatePts */\012PUSHW[ ]	/* 1 value pushed */\01233 \012MDAP[1]	/* MoveDirectAbsPt */\012PUSHW[ ]	/* 2 values pushed */\0124 6 \012MIRP[10100]	/* MoveIndirectRelPt */\012PUSHW[ ]	/* 1 value pushed */\0121 \012SRP0[ ]	/* SetRefPoint0 */\012PUSHW[ ]	/* 1 value pushed */\0125 \012MDRP[10000]	/* MoveDirectRelPt */\012PUSHW[ ]	/* 1 value pushed */\0120 \012SRP0[ ]	/* SetRefPoint0 */\012PUSHW[ ]	/* 1 value pushed */\0127 \012MDRP[10000]	/* MoveDirectRelPt */\012PUSHW[ ]	/* 1 value pushed */\0124 \012SRP0[ ]	/* SetRefPoint0 */\012PUSHW[ ]	/* 2 values pushed */\0129 6 \012MIRP[10100]	/* MoveIndirectRelPt */\012PUSHW[ ]	/* 1 value pushed */\01229 \012SRP0[ ]	/* SetRefPoint0 */\012PUSHW[ ]	/* 1 value pushed */\01225 \012MDRP[10000]	/* MoveDirectRelPt */\012PUSHW[ ]	/* 1 value pushed */\0129 \012SRP0[ ]	/* SetRefPoint0 */\012PUSHW[ ]	/* 2 values pushed */\01228 6 \012MIRP[10100]	/* MoveIndirectRelPt */\012PUSHW[ ]	/* 1 value pushed */\01235 \012SRP0[ ]	/* SetRefPoint0 */\012PUSHW[ ]	/* 1 value pushed */\01231 \012MDRP[10000]	/* MoveDirectRelPt */\012PUSHW[ ]	/* 1 value pushed */\01229 \012SRP0[ ]	/* SetRefPoint0 */\012PUSHW[ ]	/* 1 value pushed */\01237 \012MDRP[11100]	/* MoveDirectRelPt */\012SVTCA[0]	/* SetFreedomAndProjectionVectorToAxis */\012PUSHW[ ]	/* 1 value pushed */\0120 \012RCVT[ ]	/* ReadCVT */\012IF[ ]	/* If */\012PUSHW[ ]	/* 1 value pushed */\01224 \012MDAP[1]	/* MoveDirectAbsPt */\012ELSE[ ]	/* Else */\012PUSHW[ ]	/* 2 values pushed */\01224 11 \012MIAP[0]	/* MoveIndirectAbsPt */\012EIF[ ]	/* EndIf */\012PUSHW[ ]	/* 1 value pushed */\0120 \012RCVT[ ]	/* ReadCVT */\012IF[ ]	/* If */\012PUSHW[ ]	/* 1 value pushed */\01230 \012MDAP[1]	/* MoveDirectAbsPt */\012ELSE[ ]	/* Else */\012PUSHW[ ]	/* 2 values pushed */\01230 7 \012MIAP[0]	/* MoveIndirectAbsPt */\012EIF[ ]	/* EndIf */\012PUSHW[ ]	/* 4 values pushed */\0125 2 6 4 \012CALL[ ]	/* CallFunction */\012PUSHW[ ]	/* 1 value pushed */\01224 \012SRP0[ ]	/* SetRefPoint0 */\012PUSHW[ ]	/* 2 values pushed */\0122 4 \012MIRP[10100]	/* MoveIndirectRelPt */\012PUSHW[ ]	/* 2 values pushed */\0121 2 \012MIRP[10100]	/* MoveIndirectRelPt */\012PUSHW[ ]	/* 1 value pushed */\01230 \012SRP0[ ]	/* SetRefPoint0 */\012PUSHW[ ]	/* 2 values pushed */\0124 4 \012MIRP[10100]	/* MoveIndirectRelPt */\012PUSHW[ ]	/* 1 value pushed */\0128 \012MDRP[10000]	/* MoveDirectRelPt */\012PUSHW[ ]	/* 1 value pushed */\0129 \012MDRP[10000]	/* MoveDirectRelPt */\012PUSHW[ ]	/* 1 value pushed */\0122 \012SRP0[ ]	/* SetRefPoint0 */\012PUSHW[ ]	/* 1 value pushed */\01210 \012MDRP[10000]	/* MoveDirectRelPt */\012PUSHW[ ]	/* 1 value pushed */\01211 \012MDRP[10000]	/* MoveDirectRelPt */\012PUSHW[ ]	/* 1 value pushed */\0121 \012SRP0[ ]	/* SetRefPoint0 */\012PUSHW[ ]	/* 2 values pushed */\01227 4 \012MIRP[10100]	/* MoveIndirectRelPt */\012PUSHW[ ]	/* 1 value pushed */\0126 \012SRP0[ ]	/* SetRefPoint0 */\012PUSHW[ ]	/* 2 values pushed */\01228 4 \012MIRP[10100]	/* MoveIndirectRelPt */\012PUSHW[ ]	/* 1 value pushed */\01232 \012MDRP[10000]	/* MoveDirectRelPt */\012PUSHW[ ]	/* 1 value pushed */\01227 \012SRP0[ ]	/* SetRefPoint0 */\012PUSHW[ ]	/* 1 value pushed */\01234 \012MDRP[10000]	/* MoveDirectRelPt */\012IUP[0]	/* InterpolateUntPts */\012IUP[1]	/* InterpolateUntPts */";
};
width = 424;
}
);
note = I.tabular;
},
{
color = 2;
glyphname = J.tabular;
lastChange = "2021-12-03 13:19:10 +0000";
layers = (
{
layerId = "04A772B0-FA71-43EE-BB43-CAC7F0EBD631";
paths = (
{
closed = 1;
nodes = (
"283.918 -103 OFFCURVE",
"328 -67.83 OFFCURVE",
"328 47 CURVE SMOOTH",
"328 367 LINE",
"376 367 LINE",
"376 506 LINE",
"112 506 LINE",
"112 367 LINE",
"165 367 LINE",
"165 45 LINE SMOOTH",
"165 37 OFFCURVE",
"164.667 36 OFFCURVE",
"158 36 CURVE SMOOTH",
"154 36 OFFCURVE",
"146.667 36.667 OFFCURVE",
"136 38 CURVE SMOOTH",
"125.333 39.333 OFFCURVE",
"114.333 40.667 OFFCURVE",
"103 42 CURVE SMOOTH",
"60 48 LINE",
"60 -91 LINE",
"73.651 -91 OFFCURVE",
"160.079 -103 OFFCURVE",
"175 -103 CURVE SMOOTH"
);
},
{
closed = 1;
nodes = (
"163.627 -85 OFFCURVE",
"86.8 -75 OFFCURVE",
"77 -75 CURVE",
"77 27 LINE",
"111 22 LINE SMOOTH",
"129.667 19.333 OFFCURVE",
"150 17 OFFCURVE",
"158 17 CURVE SMOOTH",
"176.667 17 OFFCURVE",
"181 22.333 OFFCURVE",
"181 45 CURVE SMOOTH",
"181 385 LINE",
"128 385 LINE",
"128 488 LINE",
"359 488 LINE",
"359 385 LINE",
"311 385 LINE",
"311 47 LINE SMOOTH",
"311 -54.873 OFFCURVE",
"271.978 -85 OFFCURVE",
"175 -85 CURVE SMOOTH"
);
},
{
closed = 1;
nodes = (
"266.549 -76 OFFCURVE",
"302 -47.969 OFFCURVE",
"302 47 CURVE SMOOTH",
"302 394 LINE",
"351 394 LINE",
"351 479 LINE",
"137 479 LINE",
"137 394 LINE",
"190 394 LINE",
"190 45 LINE SMOOTH",
"190 14.333 OFFCURVE",
"184.667 8 OFFCURVE",
"158 8 CURVE SMOOTH",
"147.333 8 OFFCURVE",
"128.667 9.333 OFFCURVE",
"114 12 CURVE SMOOTH",
"86 16 LINE",
"86 -66 LINE",
"93.238 -66 OFFCURVE",
"166.093 -76 OFFCURVE",
"175 -76 CURVE SMOOTH"
);
}
);
userData = {
assembly = "PUSHW[ ]	/* 4 values pushed */\01228 6 67 4 \012CALL[ ]	/* CallFunction */\012PUSHW[ ]	/* 3 values pushed */\01254 48 3 \012CALL[ ]	/* CallFunction */\012PUSHW[ ]	/* 3 values pushed */\0120 67 28 \012SRP1[ ]	/* SetRefPoint1 */\012SRP2[ ]	/* SetRefPoint2 */\012IP[ ]	/* InterpolatePts */\012PUSHW[ ]	/* 1 value pushed */\0120 \012MDAP[1]	/* MoveDirectAbsPt */\012PUSHW[ ]	/* 2 values pushed */\0121 5 \012MIRP[10100]	/* MoveIndirectRelPt */\012PUSHW[ ]	/* 3 values pushed */\01275 67 28 \012SRP1[ ]	/* SetRefPoint1 */\012SRP2[ ]	/* SetRefPoint2 */\012IP[ ]	/* InterpolatePts */\012PUSHW[ ]	/* 1 value pushed */\01275 \012MDAP[1]	/* MoveDirectAbsPt */\012PUSHW[ ]	/* 2 values pushed */\0124 6 \012MIRP[10100]	/* MoveIndirectRelPt */\012PUSHW[ ]	/* 1 value pushed */\01228 \012SRP0[ ]	/* SetRefPoint0 */\012PUSHW[ ]	/* 2 values pushed */\01215 6 \012MIRP[10100]	/* MoveIndirectRelPt */\012PUSHW[ ]	/* 1 value pushed */\0124 \012SRP0[ ]	/* SetRefPoint0 */\012PUSHW[ ]	/* 2 values pushed */\01223 6 \012MIRP[10100]	/* MoveIndirectRelPt */\012PUSHW[ ]	/* 2 values pushed */\01256 6 \012MIRP[10100]	/* MoveIndirectRelPt */\012PUSHW[ ]	/* 1 value pushed */\01228 \012SRP0[ ]	/* SetRefPoint0 */\012PUSHW[ ]	/* 1 value pushed */\01277 \012MDRP[11100]	/* MoveDirectRelPt */\012PUSHW[ ]	/* 1 value pushed */\01254 \012SRP0[ ]	/* SetRefPoint0 */\012PUSHW[ ]	/* 1 value pushed */\01279 \012MDRP[11100]	/* MoveDirectRelPt */\012SVTCA[0]	/* SetFreedomAndProjectionVectorToAxis */\012PUSHW[ ]	/* 4 values pushed */\01220 4 61 4 \012CALL[ ]	/* CallFunction */\012PUSHW[ ]	/* 4 values pushed */\0121 2 2 4 \012CALL[ ]	/* CallFunction */\012PUSHW[ ]	/* 1 value pushed */\01220 \012SRP0[ ]	/* SetRefPoint0 */\012PUSHW[ ]	/* 2 values pushed */\0129 2 \012MIRP[10100]	/* MoveIndirectRelPt */\012PUSHW[ ]	/* 1 value pushed */\0122 \012SRP0[ ]	/* SetRefPoint0 */\012PUSHW[ ]	/* 1 value pushed */\01224 \012MDRP[10000]	/* MoveDirectRelPt */\012PUSHW[ ]	/* 1 value pushed */\0122 \012SRP0[ ]	/* SetRefPoint0 */\012PUSHW[ ]	/* 2 values pushed */\01253 4 \012MIRP[10100]	/* MoveIndirectRelPt */\012PUSHW[ ]	/* 1 value pushed */\0121 \012SRP0[ ]	/* SetRefPoint0 */\012PUSHW[ ]	/* 2 values pushed */\01255 4 \012MIRP[10100]	/* MoveIndirectRelPt */\012PUSHW[ ]	/* 1 value pushed */\01276 \012MDRP[10000]	/* MoveDirectRelPt */\012IUP[0]	/* InterpolateUntPts */\012IUP[1]	/* InterpolateUntPts */";
};
width = 446;
}
);
note = J.tabular;
},
{
color = 2;
glyphname = K.tabular;
lastChange = "2021-12-03 13:19:10 +0000";
layers = (
{
layerId = "04A772B0-FA71-43EE-BB43-CAC7F0EBD631";
paths = (
{
closed = 1;
nodes = (
"395 0 LINE",
"385.137 30.683 OFFCURVE",
"367.071 89.689 OFFCURVE",
"355 127 CURVE SMOOTH",
"340.333 172.333 OFFCURVE",
"326 218.333 OFFCURVE",
"314 257 CURVE",
"393 496 LINE",
"54 496 LINE",
"54 0 LINE"
);
},
{
closed = 1;
nodes = (
"71 478 LINE",
"201 478 LINE",
"201 375 LINE",
"222 478 LINE",
"370 478 LINE",
"296 258 LINE",
"371 18 LINE",
"227 18 LINE",
"201 141 LINE",
"201 18 LINE",
"71 18 LINE"
);
},
{
closed = 1;
nodes = (
"193 27 LINE",
"193 226 LINE",
"233 27 LINE",
"360 27 LINE",
"287 257 LINE",
"358 469 LINE",
"228 469 LINE",
"193 289 LINE",
"193 469 LINE",
"79 469 LINE",
"79 27 LINE"
);
}
);
userData = {
assembly = "PUSHW[ ]	/* 4 values pushed */\01210 6 22 4 \012CALL[ ]	/* CallFunction */\012PUSHW[ ]	/* 1 value pushed */\01210 \012SRP0[ ]	/* SetRefPoint0 */\012PUSHW[ ]	/* 1 value pushed */\0126 \012MDRP[10000]	/* MoveDirectRelPt */\012PUSHW[ ]	/* 1 value pushed */\01210 \012SRP0[ ]	/* SetRefPoint0 */\012PUSHW[ ]	/* 2 values pushed */\0128 6 \012MIRP[10100]	/* MoveIndirectRelPt */\012PUSHW[ ]	/* 3 values pushed */\01212 22 10 \012SRP1[ ]	/* SetRefPoint1 */\012SRP2[ ]	/* SetRefPoint2 */\012IP[ ]	/* InterpolatePts */\012PUSHW[ ]	/* 1 value pushed */\01212 \012MDAP[1]	/* MoveDirectAbsPt */\012PUSHW[ ]	/* 2 values pushed */\01211 6 \012MIRP[10100]	/* MoveIndirectRelPt */\012PUSHW[ ]	/* 1 value pushed */\01214 \012MDRP[10000]	/* MoveDirectRelPt */\012SVTCA[0]	/* SetFreedomAndProjectionVectorToAxis */\012PUSHW[ ]	/* 1 value pushed */\0120 \012RCVT[ ]	/* ReadCVT */\012IF[ ]	/* If */\012PUSHW[ ]	/* 1 value pushed */\01222 \012MDAP[1]	/* MoveDirectAbsPt */\012ELSE[ ]	/* Else */\012PUSHW[ ]	/* 2 values pushed */\01222 11 \012MIAP[0]	/* MoveIndirectAbsPt */\012EIF[ ]	/* EndIf */\012PUSHW[ ]	/* 1 value pushed */\0120 \012RCVT[ ]	/* ReadCVT */\012IF[ ]	/* If */\012PUSHW[ ]	/* 1 value pushed */\01229 \012MDAP[1]	/* MoveDirectAbsPt */\012ELSE[ ]	/* Else */\012PUSHW[ ]	/* 2 values pushed */\01229 7 \012MIAP[0]	/* MoveIndirectAbsPt */\012EIF[ ]	/* EndIf */\012PUSHW[ ]	/* 3 values pushed */\0120 29 22 \012SRP1[ ]	/* SetRefPoint1 */\012SRP2[ ]	/* SetRefPoint2 */\012IP[ ]	/* InterpolatePts */\012PUSHW[ ]	/* 3 values pushed */\0122 29 22 \012SRP1[ ]	/* SetRefPoint1 */\012SRP2[ ]	/* SetRefPoint2 */\012IP[ ]	/* InterpolatePts */\012PUSHW[ ]	/* 3 values pushed */\0124 29 22 \012SRP1[ ]	/* SetRefPoint1 */\012SRP2[ ]	/* SetRefPoint2 */\012IP[ ]	/* InterpolatePts */\012PUSHW[ ]	/* 3 values pushed */\0126 29 22 \012SRP1[ ]	/* SetRefPoint1 */\012SRP2[ ]	/* SetRefPoint2 */\012IP[ ]	/* InterpolatePts */\012PUSHW[ ]	/* 3 values pushed */\01215 29 22 \012SRP1[ ]	/* SetRefPoint1 */\012SRP2[ ]	/* SetRefPoint2 */\012IP[ ]	/* InterpolatePts */\012PUSHW[ ]	/* 3 values pushed */\01217 29 22 \012SRP1[ ]	/* SetRefPoint1 */\012SRP2[ ]	/* SetRefPoint2 */\012IP[ ]	/* InterpolatePts */\012PUSHW[ ]	/* 3 values pushed */\01219 29 22 \012SRP1[ ]	/* SetRefPoint1 */\012SRP2[ ]	/* SetRefPoint2 */\012IP[ ]	/* InterpolatePts */\012PUSHW[ ]	/* 3 values pushed */\01221 29 22 \012SRP1[ ]	/* SetRefPoint1 */\012SRP2[ ]	/* SetRefPoint2 */\012IP[ ]	/* InterpolatePts */\012IUP[0]	/* InterpolateUntPts */\012IUP[1]	/* InterpolateUntPts */";
};
width = 449;
}
);
note = K.tabular;
},
{
color = 2;
glyphname = L.tabular;
lastChange = "2021-12-03 13:19:10 +0000";
layers = (
{
layerId = "04A772B0-FA71-43EE-BB43-CAC7F0EBD631";
paths = (
{
closed = 1;
nodes = (
"316 0 LINE",
"316 135 LINE",
"244 135 LINE",
"244 496 LINE",
"93 496 LINE",
"93 0 LINE"
);
},
{
closed = 1;
nodes = (
"109 478 LINE",
"229 478 LINE",
"229 117 LINE",
"300 117 LINE",
"300 18 LINE",
"109 18 LINE"
);
},
{
closed = 1;
nodes = (
"292 27 LINE",
"292 108 LINE",
"221 108 LINE",
"221 469 LINE",
"117 469 LINE",
"117 27 LINE"
);
}
);
userData = {
assembly = "PUSHW[ ]	/* 4 values pushed */\0121 6 12 4 \012CALL[ ]	/* CallFunction */\012PUSHW[ ]	/* 4 values pushed */\01215 6 9 4 \012CALL[ ]	/* CallFunction */\012PUSHW[ ]	/* 1 value pushed */\0121 \012SRP0[ ]	/* SetRefPoint0 */\012PUSHW[ ]	/* 2 values pushed */\0120 6 \012MIRP[10100]	/* MoveIndirectRelPt */\012PUSHW[ ]	/* 2 values pushed */\0123 5 \012MIRP[10100]	/* MoveIndirectRelPt */\012PUSHW[ ]	/* 1 value pushed */\0120 \012SRP0[ ]	/* SetRefPoint0 */\012PUSHW[ ]	/* 2 values pushed */\01213 6 \012MIRP[10100]	/* MoveIndirectRelPt */\012SVTCA[0]	/* SetFreedomAndProjectionVectorToAxis */\012PUSHW[ ]	/* 1 value pushed */\0120 \012RCVT[ ]	/* ReadCVT */\012IF[ ]	/* If */\012PUSHW[ ]	/* 1 value pushed */\01212 \012MDAP[1]	/* MoveDirectAbsPt */\012ELSE[ ]	/* Else */\012PUSHW[ ]	/* 2 values pushed */\01212 11 \012MIAP[0]	/* MoveIndirectAbsPt */\012EIF[ ]	/* EndIf */\012PUSHW[ ]	/* 1 value pushed */\0120 \012RCVT[ ]	/* ReadCVT */\012IF[ ]	/* If */\012PUSHW[ ]	/* 1 value pushed */\01216 \012MDAP[1]	/* MoveDirectAbsPt */\012ELSE[ ]	/* Else */\012PUSHW[ ]	/* 2 values pushed */\01216 7 \012MIAP[0]	/* MoveIndirectAbsPt */\012EIF[ ]	/* EndIf */\012PUSHW[ ]	/* 4 values pushed */\0123 2 4 4 \012CALL[ ]	/* CallFunction */\012PUSHW[ ]	/* 1 value pushed */\01216 \012SRP0[ ]	/* SetRefPoint0 */\012PUSHW[ ]	/* 2 values pushed */\0122 4 \012MIRP[10100]	/* MoveIndirectRelPt */\012PUSHW[ ]	/* 1 value pushed */\0124 \012SRP0[ ]	/* SetRefPoint0 */\012PUSHW[ ]	/* 2 values pushed */\01215 4 \012MIRP[10100]	/* MoveIndirectRelPt */\012IUP[0]	/* InterpolateUntPts */\012IUP[1]	/* InterpolateUntPts */";
};
width = 423;
}
);
note = L.tabular;
},
{
color = 2;
glyphname = M.tabular;
lastChange = "2021-12-03 13:19:10 +0000";
layers = (
{
layerId = "04A772B0-FA71-43EE-BB43-CAC7F0EBD631";
paths = (
{
closed = 1;
nodes = (
"404 0 LINE",
"404 496 LINE",
"41 496 LINE",
"41 0 LINE"
);
},
{
closed = 1;
nodes = (
"58 478 LINE",
"207 478 LINE",
"222 331 LINE",
"224.667 357 OFFCURVE",
"227.333 381.833 OFFCURVE",
"230 405.5 CURVE SMOOTH",
"238 478 LINE",
"387 478 LINE",
"387 18 LINE",
"281 18 LINE",
"281 157 LINE",
"268 18 LINE",
"175 18 LINE",
"164 146 LINE",
"164 18 LINE",
"58 18 LINE"
);
},
{
closed = 1;
nodes = (
"155 27 LINE",
"155 335 LINE",
"182 27 LINE",
"261 27 LINE",
"290 335 LINE",
"290 27 LINE",
"378 27 LINE",
"378 469 LINE",
"246 469 LINE",
"222 244 LINE",
"200 469 LINE",
"67 469 LINE",
"67 27 LINE"
);
}
);
userData = {
assembly = "PUSHW[ ]	/* 4 values pushed */\0121 6 28 4 \012CALL[ ]	/* CallFunction */\012PUSHW[ ]	/* 4 values pushed */\01216 6 26 4 \012CALL[ ]	/* CallFunction */\012PUSHW[ ]	/* 4 values pushed */\0128 6 9 4 \012CALL[ ]	/* CallFunction */\012PUSHW[ ]	/* 1 value pushed */\0121 \012SRP0[ ]	/* SetRefPoint0 */\012PUSHW[ ]	/* 2 values pushed */\0122 6 \012MIRP[10100]	/* MoveIndirectRelPt */\012PUSHW[ ]	/* 3 values pushed */\0125 26 16 \012SRP1[ ]	/* SetRefPoint1 */\012SRP2[ ]	/* SetRefPoint2 */\012IP[ ]	/* InterpolatePts */\012PUSHW[ ]	/* 3 values pushed */\01222 26 16 \012SRP1[ ]	/* SetRefPoint1 */\012SRP2[ ]	/* SetRefPoint2 */\012IP[ ]	/* InterpolatePts */\012PUSHW[ ]	/* 1 value pushed */\0129 \012SRP0[ ]	/* SetRefPoint0 */\012PUSHW[ ]	/* 2 values pushed */\01231 6 \012MIRP[10100]	/* MoveIndirectRelPt */\012PUSHW[ ]	/* 1 value pushed */\0128 \012SRP0[ ]	/* SetRefPoint0 */\012PUSHW[ ]	/* 1 value pushed */\01233 \012MDRP[11100]	/* MoveDirectRelPt */\012SVTCA[0]	/* SetFreedomAndProjectionVectorToAxis */\012PUSHW[ ]	/* 1 value pushed */\0120 \012RCVT[ ]	/* ReadCVT */\012IF[ ]	/* If */\012PUSHW[ ]	/* 1 value pushed */\01229 \012MDAP[1]	/* MoveDirectAbsPt */\012ELSE[ ]	/* Else */\012PUSHW[ ]	/* 2 values pushed */\01229 11 \012MIAP[0]	/* MoveIndirectAbsPt */\012EIF[ ]	/* EndIf */\012PUSHW[ ]	/* 1 value pushed */\0120 \012RCVT[ ]	/* ReadCVT */\012IF[ ]	/* If */\012PUSHW[ ]	/* 1 value pushed */\01228 \012MDAP[1]	/* MoveDirectAbsPt */\012ELSE[ ]	/* Else */\012PUSHW[ ]	/* 2 values pushed */\01228 7 \012MIAP[0]	/* MoveIndirectAbsPt */\012EIF[ ]	/* EndIf */\012PUSHW[ ]	/* 3 values pushed */\0120 28 29 \012SRP1[ ]	/* SetRefPoint1 */\012SRP2[ ]	/* SetRefPoint2 */\012IP[ ]	/* InterpolatePts */\012PUSHW[ ]	/* 3 values pushed */\0125 28 29 \012SRP1[ ]	/* SetRefPoint1 */\012SRP2[ ]	/* SetRefPoint2 */\012IP[ ]	/* InterpolatePts */\012PUSHW[ ]	/* 3 values pushed */\01210 28 29 \012SRP1[ ]	/* SetRefPoint1 */\012SRP2[ ]	/* SetRefPoint2 */\012IP[ ]	/* InterpolatePts */\012PUSHW[ ]	/* 3 values pushed */\01215 28 29 \012SRP1[ ]	/* SetRefPoint1 */\012SRP2[ ]	/* SetRefPoint2 */\012IP[ ]	/* InterpolatePts */\012PUSHW[ ]	/* 3 values pushed */\01222 28 29 \012SRP1[ ]	/* SetRefPoint1 */\012SRP2[ ]	/* SetRefPoint2 */\012IP[ ]	/* InterpolatePts */\012PUSHW[ ]	/* 3 values pushed */\01227 28 29 \012SRP1[ ]	/* SetRefPoint1 */\012SRP2[ ]	/* SetRefPoint2 */\012IP[ ]	/* InterpolatePts */\012IUP[0]	/* InterpolateUntPts */\012IUP[1]	/* InterpolateUntPts */";
};
width = 454;
}
);
note = M.tabular;
},
{
color = 2;
glyphname = N.tabular;
lastChange = "2021-12-03 13:19:10 +0000";
layers = (
{
anchors = (
{
name = bottom;
position = "{216, 0}";
},
{
name = top;
position = "{215, 495}";
}
);
layerId = "04A772B0-FA71-43EE-BB43-CAC7F0EBD631";
paths = (
{
closed = 1;
nodes = (
"216 0 LINE",
"216 26 LINE",
"222 0 LINE",
"362 0 LINE",
"362 496 LINE",
"215 496 LINE",
"215 474 LINE",
"202 496 LINE",
"69 496 LINE",
"69 0 LINE"
);
},
{
closed = 1;
nodes = (
"85 478 LINE",
"197 478 LINE",
"231 335 LINE",
"231 478 LINE",
"345 478 LINE",
"345 18 LINE",
"235 18 LINE",
"199 146 LINE",
"199 18 LINE",
"85 18 LINE"
);
},
{
closed = 1;
nodes = (
"191 27 LINE",
"191 211 LINE",
"241 27 LINE",
"337 27 LINE",
"337 469 LINE",
"240 469 LINE",
"240 263 LINE",
"190 469 LINE",
"94 469 LINE",
"94 27 LINE"
);
}
);
userData = {
assembly = "PUSHW[ ]	/* 4 values pushed */\0121 6 22 4 \012CALL[ ]	/* CallFunction */\012PUSHW[ ]	/* 1 value pushed */\0121 \012SRP0[ ]	/* SetRefPoint0 */\012PUSHW[ ]	/* 2 values pushed */\0122 6 \012MIRP[10100]	/* MoveIndirectRelPt */\012PUSHW[ ]	/* 1 value pushed */\0121 \012SRP0[ ]	/* SetRefPoint0 */\012PUSHW[ ]	/* 1 value pushed */\0124 \012MDRP[10000]	/* MoveDirectRelPt */\012PUSHW[ ]	/* 1 value pushed */\0124 \012MDAP[1]	/* MoveDirectAbsPt */\012PUSHW[ ]	/* 1 value pushed */\0121 \012SRP0[ ]	/* SetRefPoint0 */\012PUSHW[ ]	/* 1 value pushed */\01215 \012MDRP[10000]	/* MoveDirectRelPt */\012PUSHW[ ]	/* 1 value pushed */\01215 \012MDAP[1]	/* MoveDirectAbsPt */\012PUSHW[ ]	/* 2 values pushed */\0128 6 \012MIRP[10100]	/* MoveIndirectRelPt */\012PUSHW[ ]	/* 3 values pushed */\0125 15 8 \012SRP1[ ]	/* SetRefPoint1 */\012SRP2[ ]	/* SetRefPoint2 */\012IP[ ]	/* InterpolatePts */\012PUSHW[ ]	/* 2 values pushed */\0126 6 \012MIRP[10100]	/* MoveIndirectRelPt */\012PUSHW[ ]	/* 1 value pushed */\0122 \012SRP0[ ]	/* SetRefPoint0 */\012PUSHW[ ]	/* 2 values pushed */\01214 6 \012MIRP[10100]	/* MoveIndirectRelPt */\012PUSHW[ ]	/* 3 values pushed */\01219 15 8 \012SRP1[ ]	/* SetRefPoint1 */\012SRP2[ ]	/* SetRefPoint2 */\012IP[ ]	/* InterpolatePts */\012PUSHW[ ]	/* 3 values pushed */\01220 15 8 \012SRP1[ ]	/* SetRefPoint1 */\012SRP2[ ]	/* SetRefPoint2 */\012IP[ ]	/* InterpolatePts */\012PUSHW[ ]	/* 3 values pushed */\01225 15 8 \012SRP1[ ]	/* SetRefPoint1 */\012SRP2[ ]	/* SetRefPoint2 */\012IP[ ]	/* InterpolatePts */\012PUSHW[ ]	/* 1 value pushed */\0126 \012SRP0[ ]	/* SetRefPoint0 */\012PUSHW[ ]	/* 2 values pushed */\01227 6 \012MIRP[10100]	/* MoveIndirectRelPt */\012SVTCA[0]	/* SetFreedomAndProjectionVectorToAxis */\012PUSHW[ ]	/* 1 value pushed */\0120 \012RCVT[ ]	/* ReadCVT */\012IF[ ]	/* If */\012PUSHW[ ]	/* 1 value pushed */\01223 \012MDAP[1]	/* MoveDirectAbsPt */\012ELSE[ ]	/* Else */\012PUSHW[ ]	/* 2 values pushed */\01223 11 \012MIAP[0]	/* MoveIndirectAbsPt */\012EIF[ ]	/* EndIf */\012PUSHW[ ]	/* 1 value pushed */\0120 \012RCVT[ ]	/* ReadCVT */\012IF[ ]	/* If */\012PUSHW[ ]	/* 1 value pushed */\01226 \012MDAP[1]	/* MoveDirectAbsPt */\012ELSE[ ]	/* Else */\012PUSHW[ ]	/* 2 values pushed */\01226 11 \012MIAP[0]	/* MoveIndirectAbsPt */\012EIF[ ]	/* EndIf */\012PUSHW[ ]	/* 1 value pushed */\0120 \012RCVT[ ]	/* ReadCVT */\012IF[ ]	/* If */\012PUSHW[ ]	/* 1 value pushed */\01221 \012MDAP[1]	/* MoveDirectAbsPt */\012ELSE[ ]	/* Else */\012PUSHW[ ]	/* 2 values pushed */\01221 7 \012MIAP[0]	/* MoveIndirectAbsPt */\012EIF[ ]	/* EndIf */\012PUSHW[ ]	/* 1 value pushed */\0120 \012RCVT[ ]	/* ReadCVT */\012IF[ ]	/* If */\012PUSHW[ ]	/* 1 value pushed */\01228 \012MDAP[1]	/* MoveDirectAbsPt */\012ELSE[ ]	/* Else */\012PUSHW[ ]	/* 2 values pushed */\01228 7 \012MIAP[0]	/* MoveIndirectAbsPt */\012EIF[ ]	/* EndIf */\012PUSHW[ ]	/* 3 values pushed */\0120 21 23 \012SRP1[ ]	/* SetRefPoint1 */\012SRP2[ ]	/* SetRefPoint2 */\012IP[ ]	/* InterpolatePts */\012PUSHW[ ]	/* 3 values pushed */\0125 21 23 \012SRP1[ ]	/* SetRefPoint1 */\012SRP2[ ]	/* SetRefPoint2 */\012IP[ ]	/* InterpolatePts */\012PUSHW[ ]	/* 3 values pushed */\01214 21 23 \012SRP1[ ]	/* SetRefPoint1 */\012SRP2[ ]	/* SetRefPoint2 */\012IP[ ]	/* InterpolatePts */\012PUSHW[ ]	/* 3 values pushed */\01219 21 23 \012SRP1[ ]	/* SetRefPoint1 */\012SRP2[ ]	/* SetRefPoint2 */\012IP[ ]	/* InterpolatePts */\012PUSHW[ ]	/* 3 values pushed */\01220 21 23 \012SRP1[ ]	/* SetRefPoint1 */\012SRP2[ ]	/* SetRefPoint2 */\012IP[ ]	/* InterpolatePts */\012PUSHW[ ]	/* 3 values pushed */\01225 21 23 \012SRP1[ ]	/* SetRefPoint1 */\012SRP2[ ]	/* SetRefPoint2 */\012IP[ ]	/* InterpolatePts */\012IUP[0]	/* InterpolateUntPts */\012IUP[1]	/* InterpolateUntPts */";
};
width = 442;
}
);
note = N.tabular;
},
{
color = 2;
glyphname = O.tabular;
lastChange = "2021-12-03 13:19:10 +0000";
layers = (
{
anchors = (
{
name = bottom;
position = "{219, 0}";
},
{
name = center;
position = "{222, 296}";
},
{
name = ogonek;
position = "{266, 0}";
},
{
name = top;
position = "{219, 505}";
},
{
name = topleft;
position = "{20, 591}";
},
{
name = topright;
position = "{265, 495}";
}
);
layerId = "04A772B0-FA71-43EE-BB43-CAC7F0EBD631";
paths = (
{
closed = 1;
nodes = (
"322.072 -9 OFFCURVE",
"366 25.177 OFFCURVE",
"366 158 CURVE SMOOTH",
"366 377 LINE SMOOTH",
"366 471.667 OFFCURVE",
"311 505 OFFCURVE",
"219 505 CURVE SMOOTH",
"127 505 OFFCURVE",
"66 470.333 OFFCURVE",
"66 377 CURVE SMOOTH",
"66 157 LINE SMOOTH",
"66 25.033 OFFCURVE",
"115.969 -9 OFFCURVE",
"219 -9 CURVE SMOOTH"
);
},
{
closed = 1;
nodes = (
"126.464 9 OFFCURVE",
"83 40.133 OFFCURVE",
"83 157 CURVE SMOOTH",
"83 377 LINE SMOOTH",
"83 458.333 OFFCURVE",
"136.333 487 OFFCURVE",
"219 487 CURVE SMOOTH",
"300.333 487 OFFCURVE",
"350 458.333 OFFCURVE",
"350 377 CURVE SMOOTH",
"350 158 LINE SMOOTH",
"350 40.29 OFFCURVE",
"310.498 9 OFFCURVE",
"219 9 CURVE SMOOTH"
);
},
{
closed = 1;
nodes = (
"303.545 18 OFFCURVE",
"341 46.477 OFFCURVE",
"341 158 CURVE SMOOTH",
"341 377 LINE SMOOTH",
"341 451.667 OFFCURVE",
"295 478 OFFCURVE",
"219 478 CURVE SMOOTH",
"141.667 478 OFFCURVE",
"91 451.667 OFFCURVE",
"91 377 CURVE SMOOTH",
"91 157 LINE SMOOTH",
"91 46.559 OFFCURVE",
"132.677 18 OFFCURVE",
"219 18 CURVE SMOOTH"
);
},
{
closed = 1;
nodes = (
"215 87 OFFCURVE",
"212 88.5 OFFCURVE",
"210 91.5 CURVE SMOOTH",
"208 94.5 OFFCURVE",
"207 100.333 OFFCURVE",
"207 109 CURVE SMOOTH",
"207 382 LINE SMOOTH",
"207 391.333 OFFCURVE",
"208 397.667 OFFCURVE",
"210 401 CURVE SMOOTH",
"212 404.333 OFFCURVE",
"215 406 OFFCURVE",
"219 406 CURVE SMOOTH",
"222.333 406 OFFCURVE",
"225 404.333 OFFCURVE",
"227 401 CURVE SMOOTH",
"229 397.667 OFFCURVE",
"230 391.333 OFFCURVE",
"230 382 CURVE SMOOTH",
"230 109 LINE SMOOTH",
"230 100.333 OFFCURVE",
"229 94.5 OFFCURVE",
"227 91.5 CURVE SMOOTH",
"225 88.5 OFFCURVE",
"222.333 87 OFFCURVE",
"219 87 CURVE SMOOTH"
);
},
{
closed = 1;
nodes = (
"220.333 96 OFFCURVE",
"221 100.333 OFFCURVE",
"221 109 CURVE SMOOTH",
"221 382 LINE SMOOTH",
"221 392 OFFCURVE",
"220.333 397 OFFCURVE",
"219 397 CURVE SMOOTH",
"217 397 OFFCURVE",
"216 392 OFFCURVE",
"216 382 CURVE SMOOTH",
"216 109 LINE SMOOTH",
"216 100.333 OFFCURVE",
"217 96 OFFCURVE",
"219 96 CURVE SMOOTH"
);
}
);
userData = {
assembly = "PUSHW[ ]	/* 4 values pushed */\01229 6 65 4 \012CALL[ ]	/* CallFunction */\012PUSHW[ ]	/* 4 values pushed */\01213 6 34 4 \012CALL[ ]	/* CallFunction */\012PUSHW[ ]	/* 1 value pushed */\01229 \012SRP0[ ]	/* SetRefPoint0 */\012PUSHW[ ]	/* 2 values pushed */\0125 6 \012MIRP[10100]	/* MoveIndirectRelPt */\012PUSHW[ ]	/* 1 value pushed */\01213 \012SRP0[ ]	/* SetRefPoint0 */\012PUSHW[ ]	/* 2 values pushed */\01221 6 \012MIRP[10100]	/* MoveIndirectRelPt */\012PUSHW[ ]	/* 1 value pushed */\01234 \012SRP0[ ]	/* SetRefPoint0 */\012PUSHW[ ]	/* 1 value pushed */\01239 \012MDRP[10000]	/* MoveDirectRelPt */\012PUSHW[ ]	/* 1 value pushed */\01239 \012MDAP[1]	/* MoveDirectAbsPt */\012PUSHW[ ]	/* 1 value pushed */\0125 \012SRP0[ ]	/* SetRefPoint0 */\012PUSHW[ ]	/* 2 values pushed */\01240 6 \012MIRP[10100]	/* MoveIndirectRelPt */\012PUSHW[ ]	/* 1 value pushed */\01221 \012SRP0[ ]	/* SetRefPoint0 */\012PUSHW[ ]	/* 2 values pushed */\01273 6 \012MIRP[10100]	/* MoveIndirectRelPt */\012PUSHW[ ]	/* 1 value pushed */\01213 \012SRP0[ ]	/* SetRefPoint0 */\012PUSHW[ ]	/* 1 value pushed */\01279 \012MDRP[11100]	/* MoveDirectRelPt */\012SVTCA[0]	/* SetFreedomAndProjectionVectorToAxis */\012PUSHW[ ]	/* 1 value pushed */\01269 \012MDAP[1]	/* MoveDirectAbsPt */\012PUSHW[ ]	/* 1 value pushed */\0120 \012RCVT[ ]	/* ReadCVT */\012IF[ ]	/* If */\012PUSHW[ ]	/* 1 value pushed */\01260 \012MDAP[1]	/* MoveDirectAbsPt */\012ELSE[ ]	/* Else */\012PUSHW[ ]	/* 2 values pushed */\01260 7 \012MIAP[0]	/* MoveIndirectAbsPt */\012EIF[ ]	/* EndIf */\012IUP[0]	/* InterpolateUntPts */\012IUP[1]	/* InterpolateUntPts */";
};
width = 443;
}
);
note = O.tabular;
},
{
color = 2;
glyphname = Oslash.tabular;
lastChange = "2021-12-03 13:19:10 +0000";
layers = (
{
layerId = "04A772B0-FA71-43EE-BB43-CAC7F0EBD631";
paths = (
{
closed = 1;
nodes = (
"145 -40 LINE",
"147 -34.667 OFFCURVE",
"149.833 -28.667 OFFCURVE",
"153.5 -22 CURVE SMOOTH",
"164 -1 LINE",
"185.333 -7.667 OFFCURVE",
"208.667 -9 OFFCURVE",
"234 -9 CURVE SMOOTH",
"340.121 -9 OFFCURVE",
"387 25.786 OFFCURVE",
"387 160 CURVE SMOOTH",
"387 382 LINE SMOOTH",
"387 403.333 OFFCURVE",
"385.667 419 OFFCURVE",
"379 435 CURVE",
"436 549 LINE",
"303 549 LINE",
"300.333 543.667 OFFCURVE",
"297.167 537.333 OFFCURVE",
"293.5 530 CURVE SMOOTH",
"283 508 LINE",
"268.333 510.667 OFFCURVE",
"251.333 512 OFFCURVE",
"234 512 CURVE SMOOTH",
"138.668 512 OFFCURVE",
"76 476.075 OFFCURVE",
"76 382 CURVE SMOOTH",
"76 159 LINE SMOOTH",
"76 135 OFFCURVE",
"78.333 113.667 OFFCURVE",
"81 95 CURVE",
"15 -40 LINE"
);
},
{
closed = 1;
nodes = (
"236 97 OFFCURVE",
"237 101.667 OFFCURVE",
"237 111 CURVE SMOOTH",
"237 186 LINE",
"231 174 LINE",
"231 111 LINE SMOOTH",
"231 101.667 OFFCURVE",
"232 97 OFFCURVE",
"234 97 CURVE SMOOTH"
);
},
{
closed = 1;
nodes = (
"230 88 OFFCURVE",
"227 89.5 OFFCURVE",
"225 92.5 CURVE SMOOTH",
"223 95.5 OFFCURVE",
"222 101.667 OFFCURVE",
"222 111 CURVE SMOOTH",
"222 177 LINE",
"245 225 LINE",
"245 111 LINE SMOOTH",
"245 101.667 OFFCURVE",
"244 95.5 OFFCURVE",
"242 92.5 CURVE SMOOTH",
"240 89.5 OFFCURVE",
"237.333 88 OFFCURVE",
"234 88 CURVE SMOOTH"
);
},
{
closed = 1;
nodes = (
"99 93 LINE",
"95 111 OFFCURVE",
"93 133 OFFCURVE",
"93 159 CURVE SMOOTH",
"93 382 LINE SMOOTH",
"93 464.667 OFFCURVE",
"148.667 494 OFFCURVE",
"234 494 CURVE SMOOTH",
"256.667 494 OFFCURVE",
"276 493.333 OFFCURVE",
"292 488 CURVE",
"314 531 LINE",
"406 531 LINE",
"360 436 LINE",
"366.667 420 OFFCURVE",
"370 404.667 OFFCURVE",
"370 382 CURVE SMOOTH",
"370 160 LINE SMOOTH",
"370 39.928 OFFCURVE",
"326.958 9 OFFCURVE",
"234 9 CURVE SMOOTH",
"203.333 9 OFFCURVE",
"177.667 11.333 OFFCURVE",
"155 22 CURVE",
"134 -22 LINE",
"43 -22 LINE"
);
},
{
closed = 1;
nodes = (
"129 -13 LINE",
"151 34 LINE",
"173.667 22 OFFCURVE",
"200.667 18 OFFCURVE",
"234 18 CURVE SMOOTH",
"323.076 18 OFFCURVE",
"361 46.743 OFFCURVE",
"361 160 CURVE SMOOTH",
"361 382 LINE SMOOTH",
"361 402.667 OFFCURVE",
"357 420.667 OFFCURVE",
"349 436 CURVE",
"392 522 LINE",
"319 522 LINE",
"297 476 LINE",
"279 482 OFFCURVE",
"258 485 OFFCURVE",
"234 485 CURVE SMOOTH",
"155.333 485 OFFCURVE",
"102 456.667 OFFCURVE",
"102 382 CURVE SMOOTH",
"102 159 LINE SMOOTH",
"102 131.667 OFFCURVE",
"104.333 109.667 OFFCURVE",
"109 93 CURVE",
"58 -13 LINE"
);
},
{
closed = 1;
nodes = (
"222 388 LINE SMOOTH",
"222 397.333 OFFCURVE",
"223 403.5 OFFCURVE",
"225 406.5 CURVE SMOOTH",
"227 409.5 OFFCURVE",
"230 411 OFFCURVE",
"234 411 CURVE SMOOTH",
"237.333 411 OFFCURVE",
"240 409.5 OFFCURVE",
"242 406.5 CURVE SMOOTH",
"244 403.5 OFFCURVE",
"245 397.333 OFFCURVE",
"245 388 CURVE SMOOTH",
"245 371 LINE",
"222 324 LINE"
);
},
{
closed = 1;
nodes = (
"237 374 LINE",
"237 388 LINE SMOOTH",
"237 397.333 OFFCURVE",
"236 402 OFFCURVE",
"234 402 CURVE SMOOTH",
"232 402 OFFCURVE",
"231 397.333 OFFCURVE",
"231 388 CURVE SMOOTH",
"231 362 LINE"
);
}
);
userData = {
assembly = "PUSHW[ ]	/* 4 values pushed */\01230 6 87 4 \012CALL[ ]	/* CallFunction */\012PUSHW[ ]	/* 4 values pushed */\01213 6 43 4 \012CALL[ ]	/* CallFunction */\012PUSHW[ ]	/* 1 value pushed */\01230 \012SRP0[ ]	/* SetRefPoint0 */\012PUSHW[ ]	/* 2 values pushed */\0122 6 \012MIRP[10100]	/* MoveIndirectRelPt */\012PUSHW[ ]	/* 1 value pushed */\01213 \012SRP0[ ]	/* SetRefPoint0 */\012PUSHW[ ]	/* 2 values pushed */\01228 6 \012MIRP[10100]	/* MoveIndirectRelPt */\012PUSHW[ ]	/* 1 value pushed */\01230 \012SRP0[ ]	/* SetRefPoint0 */\012PUSHW[ ]	/* 1 value pushed */\01234 \012MDRP[10000]	/* MoveDirectRelPt */\012PUSHW[ ]	/* 1 value pushed */\01228 \012SRP0[ ]	/* SetRefPoint0 */\012PUSHW[ ]	/* 1 value pushed */\01235 \012MDRP[10000]	/* MoveDirectRelPt */\012PUSHW[ ]	/* 1 value pushed */\01243 \012SRP0[ ]	/* SetRefPoint0 */\012PUSHW[ ]	/* 1 value pushed */\01247 \012MDRP[10000]	/* MoveDirectRelPt */\012PUSHW[ ]	/* 1 value pushed */\01247 \012MDAP[1]	/* MoveDirectAbsPt */\012PUSHW[ ]	/* 1 value pushed */\01243 \012SRP0[ ]	/* SetRefPoint0 */\012PUSHW[ ]	/* 1 value pushed */\01252 \012MDRP[10000]	/* MoveDirectRelPt */\012PUSHW[ ]	/* 1 value pushed */\01243 \012SRP0[ ]	/* SetRefPoint0 */\012PUSHW[ ]	/* 1 value pushed */\01254 \012MDRP[10000]	/* MoveDirectRelPt */\012PUSHW[ ]	/* 1 value pushed */\01254 \012MDAP[1]	/* MoveDirectAbsPt */\012PUSHW[ ]	/* 1 value pushed */\01228 \012SRP0[ ]	/* SetRefPoint0 */\012PUSHW[ ]	/* 2 values pushed */\012105 6 \012MIRP[10100]	/* MoveIndirectRelPt */\012PUSHW[ ]	/* 1 value pushed */\01213 \012SRP0[ ]	/* SetRefPoint0 */\012PUSHW[ ]	/* 1 value pushed */\012119 \012MDRP[11100]	/* MoveDirectRelPt */\012SVTCA[0]	/* SetFreedomAndProjectionVectorToAxis */\012PUSHW[ ]	/* 1 value pushed */\01299 \012MDAP[1]	/* MoveDirectAbsPt */\012PUSHW[ ]	/* 1 value pushed */\012116 \012MDAP[1]	/* MoveDirectAbsPt */\012PUSHW[ ]	/* 3 values pushed */\01210 116 99 \012SRP1[ ]	/* SetRefPoint1 */\012SRP2[ ]	/* SetRefPoint2 */\012IP[ ]	/* InterpolatePts */\012PUSHW[ ]	/* 3 values pushed */\01224 116 99 \012SRP1[ ]	/* SetRefPoint1 */\012SRP2[ ]	/* SetRefPoint2 */\012IP[ ]	/* InterpolatePts */\012PUSHW[ ]	/* 3 values pushed */\01229 116 99 \012SRP1[ ]	/* SetRefPoint1 */\012SRP2[ ]	/* SetRefPoint2 */\012IP[ ]	/* InterpolatePts */\012PUSHW[ ]	/* 3 values pushed */\01234 116 99 \012SRP1[ ]	/* SetRefPoint1 */\012SRP2[ ]	/* SetRefPoint2 */\012IP[ ]	/* InterpolatePts */\012PUSHW[ ]	/* 3 values pushed */\01249 116 99 \012SRP1[ ]	/* SetRefPoint1 */\012SRP2[ ]	/* SetRefPoint2 */\012IP[ ]	/* InterpolatePts */\012PUSHW[ ]	/* 3 values pushed */\01254 116 99 \012SRP1[ ]	/* SetRefPoint1 */\012SRP2[ ]	/* SetRefPoint2 */\012IP[ ]	/* InterpolatePts */\012PUSHW[ ]	/* 3 values pushed */\01257 116 99 \012SRP1[ ]	/* SetRefPoint1 */\012SRP2[ ]	/* SetRefPoint2 */\012IP[ ]	/* InterpolatePts */\012PUSHW[ ]	/* 3 values pushed */\01272 116 99 \012SRP1[ ]	/* SetRefPoint1 */\012SRP2[ ]	/* SetRefPoint2 */\012IP[ ]	/* InterpolatePts */\012IUP[0]	/* InterpolateUntPts */\012IUP[1]	/* InterpolateUntPts */";
};
width = 457;
}
);
note = Oslash.tabular;
},
{
color = 2;
glyphname = OE.tabular;
lastChange = "2021-12-03 13:19:10 +0000";
layers = (
{
layerId = "04A772B0-FA71-43EE-BB43-CAC7F0EBD631";
paths = (
{
closed = 1;
nodes = (
"209.333 -9 OFFCURVE",
"233.667 -6 OFFCURVE",
"255 0 CURVE",
"430 0 LINE",
"430 135 LINE",
"342 135 LINE",
"342 181 LINE",
"423 181 LINE",
"423 329 LINE",
"342 329 LINE",
"342 361 LINE",
"430 361 LINE",
"430 498 LINE",
"247 498 LINE",
"228.333 502.667 OFFCURVE",
"206.667 505 OFFCURVE",
"182 505 CURVE SMOOTH",
"86 505 OFFCURVE",
"22 470.333 OFFCURVE",
"22 377 CURVE SMOOTH",
"22 157 LINE SMOOTH",
"22 24.254 OFFCURVE",
"75.61 -9 OFFCURVE",
"182 -9 CURVE SMOOTH"
);
},
{
closed = 1;
nodes = (
"178 87 OFFCURVE",
"175 88.5 OFFCURVE",
"173 91.5 CURVE SMOOTH",
"171 94.5 OFFCURVE",
"170 100.333 OFFCURVE",
"170 109 CURVE SMOOTH",
"170 382 LINE SMOOTH",
"170 391.333 OFFCURVE",
"171 397.667 OFFCURVE",
"173 401 CURVE SMOOTH",
"175 404.333 OFFCURVE",
"178 406 OFFCURVE",
"182 406 CURVE SMOOTH",
"185.333 406 OFFCURVE",
"188 404.333 OFFCURVE",
"190 401 CURVE SMOOTH",
"192 397.667 OFFCURVE",
"193 391.333 OFFCURVE",
"193 382 CURVE SMOOTH",
"193 109 LINE SMOOTH",
"193 100.333 OFFCURVE",
"192 94.5 OFFCURVE",
"190 91.5 CURVE SMOOTH",
"188 88.5 OFFCURVE",
"185.333 87 OFFCURVE",
"182 87 CURVE SMOOTH"
);
},
{
closed = 1;
nodes = (
"183.333 96 OFFCURVE",
"184 100.333 OFFCURVE",
"184 109 CURVE SMOOTH",
"184 382 LINE SMOOTH",
"184 392 OFFCURVE",
"183.333 397 OFFCURVE",
"182 397 CURVE SMOOTH",
"179.333 397 OFFCURVE",
"178 392 OFFCURVE",
"178 382 CURVE SMOOTH",
"178 109 LINE SMOOTH",
"178 100.333 OFFCURVE",
"179.333 96 OFFCURVE",
"182 96 CURVE SMOOTH"
);
},
{
closed = 1;
nodes = (
"86.296 9 OFFCURVE",
"40 38.77 OFFCURVE",
"40 157 CURVE SMOOTH",
"40 377 LINE SMOOTH",
"40 458.333 OFFCURVE",
"95.333 487 OFFCURVE",
"182 487 CURVE SMOOTH",
"203.333 487 OFFCURVE",
"227.667 484 OFFCURVE",
"245 480 CURVE",
"413 480 LINE",
"413 379 LINE",
"325 379 LINE",
"325 311 LINE",
"406 311 LINE",
"406 199 LINE",
"325 199 LINE",
"325 117 LINE",
"413 117 LINE",
"413 18 LINE",
"252 18 LINE",
"232 12 OFFCURVE",
"208.667 9 OFFCURVE",
"182 9 CURVE SMOOTH"
);
},
{
closed = 1;
nodes = (
"207.333 18 OFFCURVE",
"229.667 21 OFFCURVE",
"249 27 CURVE",
"404 27 LINE",
"404 108 LINE",
"316 108 LINE",
"316 208 LINE",
"397 208 LINE",
"397 302 LINE",
"316 302 LINE",
"316 388 LINE",
"404 388 LINE",
"404 471 LINE",
"243 471 LINE",
"224.333 475 OFFCURVE",
"204.667 478 OFFCURVE",
"182 478 CURVE SMOOTH",
"102 478 OFFCURVE",
"48 451.667 OFFCURVE",
"48 377 CURVE SMOOTH",
"48 157 LINE SMOOTH",
"48 46.335 OFFCURVE",
"93.267 18 OFFCURVE",
"182 18 CURVE SMOOTH"
);
}
);
userData = {
assembly = "PUSHW[ ]	/* 4 values pushed */\01236 6 79 4 \012CALL[ ]	/* CallFunction */\012PUSHW[ ]	/* 4 values pushed */\01220 6 41 4 \012CALL[ ]	/* CallFunction */\012PUSHW[ ]	/* 4 values pushed */\01291 6 55 4 \012CALL[ ]	/* CallFunction */\012PUSHW[ ]	/* 1 value pushed */\01236 \012SRP0[ ]	/* SetRefPoint0 */\012PUSHW[ ]	/* 2 values pushed */\0125 6 \012MIRP[10100]	/* MoveIndirectRelPt */\012PUSHW[ ]	/* 1 value pushed */\01220 \012SRP0[ ]	/* SetRefPoint0 */\012PUSHW[ ]	/* 2 values pushed */\01228 6 \012MIRP[10100]	/* MoveIndirectRelPt */\012PUSHW[ ]	/* 2 values pushed */\01218 5 \012MIRP[10100]	/* MoveIndirectRelPt */\012PUSHW[ ]	/* 1 value pushed */\01213 \012MDRP[10000]	/* MoveDirectRelPt */\012PUSHW[ ]	/* 1 value pushed */\01213 \012MDAP[1]	/* MoveDirectAbsPt */\012PUSHW[ ]	/* 1 value pushed */\01220 \012SRP0[ ]	/* SetRefPoint0 */\012PUSHW[ ]	/* 1 value pushed */\01215 \012MDRP[10000]	/* MoveDirectRelPt */\012PUSHW[ ]	/* 1 value pushed */\01218 \012SRP0[ ]	/* SetRefPoint0 */\012PUSHW[ ]	/* 1 value pushed */\01221 \012MDRP[10000]	/* MoveDirectRelPt */\012PUSHW[ ]	/* 1 value pushed */\01221 \012MDAP[1]	/* MoveDirectAbsPt */\012PUSHW[ ]	/* 1 value pushed */\01241 \012SRP0[ ]	/* SetRefPoint0 */\012PUSHW[ ]	/* 1 value pushed */\01246 \012MDRP[10000]	/* MoveDirectRelPt */\012PUSHW[ ]	/* 1 value pushed */\01246 \012MDAP[1]	/* MoveDirectAbsPt */\012PUSHW[ ]	/* 1 value pushed */\0125 \012SRP0[ ]	/* SetRefPoint0 */\012PUSHW[ ]	/* 2 values pushed */\01247 6 \012MIRP[10100]	/* MoveIndirectRelPt */\012PUSHW[ ]	/* 1 value pushed */\01255 \012SRP0[ ]	/* SetRefPoint0 */\012PUSHW[ ]	/* 1 value pushed */\01258 \012MDRP[10000]	/* MoveDirectRelPt */\012PUSHW[ ]	/* 1 value pushed */\01291 \012SRP0[ ]	/* SetRefPoint0 */\012PUSHW[ ]	/* 1 value pushed */\01286 \012MDRP[10000]	/* MoveDirectRelPt */\012PUSHW[ ]	/* 1 value pushed */\01286 \012MDAP[1]	/* MoveDirectAbsPt */\012PUSHW[ ]	/* 1 value pushed */\01228 \012SRP0[ ]	/* SetRefPoint0 */\012PUSHW[ ]	/* 2 values pushed */\01293 5 \012MIRP[10100]	/* MoveIndirectRelPt */\012PUSHW[ ]	/* 1 value pushed */\01288 \012MDRP[10000]	/* MoveDirectRelPt */\012PUSHW[ ]	/* 1 value pushed */\01291 \012SRP0[ ]	/* SetRefPoint0 */\012PUSHW[ ]	/* 1 value pushed */\01294 \012MDRP[10000]	/* MoveDirectRelPt */\012PUSHW[ ]	/* 1 value pushed */\01294 \012MDAP[1]	/* MoveDirectAbsPt */\012PUSHW[ ]	/* 1 value pushed */\01291 \012SRP0[ ]	/* SetRefPoint0 */\012PUSHW[ ]	/* 1 value pushed */\01299 \012MDRP[11100]	/* MoveDirectRelPt */\012SVTCA[0]	/* SetFreedomAndProjectionVectorToAxis */\012PUSHW[ ]	/* 1 value pushed */\01283 \012MDAP[1]	/* MoveDirectAbsPt */\012PUSHW[ ]	/* 1 value pushed */\01285 \012MDAP[1]	/* MoveDirectAbsPt */\012PUSHW[ ]	/* 1 value pushed */\0120 \012RCVT[ ]	/* ReadCVT */\012IF[ ]	/* If */\012PUSHW[ ]	/* 1 value pushed */\01286 \012MDAP[1]	/* MoveDirectAbsPt */\012ELSE[ ]	/* Else */\012PUSHW[ ]	/* 2 values pushed */\01286 11 \012MIAP[0]	/* MoveIndirectAbsPt */\012EIF[ ]	/* EndIf */\012PUSHW[ ]	/* 1 value pushed */\0120 \012RCVT[ ]	/* ReadCVT */\012IF[ ]	/* If */\012PUSHW[ ]	/* 1 value pushed */\01295 \012MDAP[1]	/* MoveDirectAbsPt */\012ELSE[ ]	/* Else */\012PUSHW[ ]	/* 2 values pushed */\01295 7 \012MIAP[0]	/* MoveIndirectAbsPt */\012EIF[ ]	/* EndIf */\012PUSHW[ ]	/* 1 value pushed */\0120 \012RCVT[ ]	/* ReadCVT */\012IF[ ]	/* If */\012PUSHW[ ]	/* 1 value pushed */\01274 \012MDAP[1]	/* MoveDirectAbsPt */\012ELSE[ ]	/* Else */\012PUSHW[ ]	/* 2 values pushed */\01274 7 \012MIAP[0]	/* MoveIndirectAbsPt */\012EIF[ ]	/* EndIf */\012PUSHW[ ]	/* 4 values pushed */\01221 2 22 4 \012CALL[ ]	/* CallFunction */\012PUSHW[ ]	/* 4 values pushed */\01256 2 53 4 \012CALL[ ]	/* CallFunction */\012PUSHW[ ]	/* 4 values pushed */\01217 4 91 4 \012CALL[ ]	/* CallFunction */\012PUSHW[ ]	/* 4 values pushed */\01260 2 57 4 \012CALL[ ]	/* CallFunction */\012PUSHW[ ]	/* 4 values pushed */\01290 4 18 4 \012CALL[ ]	/* CallFunction */\012PUSHW[ ]	/* 1 value pushed */\01274 \012SRP0[ ]	/* SetRefPoint0 */\012PUSHW[ ]	/* 1 value pushed */\0120 \012MDRP[11100]	/* MoveDirectRelPt */\012NPUSHW[ ]	/* 27 values pushed */\0127 0 23 0 39 0 55 0 71 0 87 0 103 0 119 0 135 0 151 0 167 0 183 0 199 0 13 \012DELTAP1[ ]	/* DeltaExceptionP1 */\012NPUSHW[ ]	/* 5 values pushed */\012214 0 230 0 2 \012DELTAP1[ ]	/* DeltaExceptionP1 */\012PUSHW[ ]	/* 1 value pushed */\01286 \012SRP0[ ]	/* SetRefPoint0 */\012PUSHW[ ]	/* 2 values pushed */\01214 4 \012MIRP[10100]	/* MoveIndirectRelPt */\012PUSHW[ ]	/* 2 values pushed */\01213 2 \012MIRP[10100]	/* MoveIndirectRelPt */\012PUSHW[ ]	/* 1 value pushed */\0129 \012MDRP[10000]	/* MoveDirectRelPt */\012PUSHW[ ]	/* 1 value pushed */\0129 \012MDAP[1]	/* MoveDirectAbsPt */\012PUSHW[ ]	/* 1 value pushed */\0120 \012SRP0[ ]	/* SetRefPoint0 */\012PUSHW[ ]	/* 1 value pushed */\01251 \012MDRP[10000]	/* MoveDirectRelPt */\012PUSHW[ ]	/* 1 value pushed */\01252 \012MDRP[10000]	/* MoveDirectRelPt */\012PUSHW[ ]	/* 1 value pushed */\01213 \012SRP0[ ]	/* SetRefPoint0 */\012PUSHW[ ]	/* 2 values pushed */\01287 4 \012MIRP[10100]	/* MoveIndirectRelPt */\012PUSHW[ ]	/* 1 value pushed */\01222 \012SRP0[ ]	/* SetRefPoint0 */\012PUSHW[ ]	/* 2 values pushed */\01294 4 \012MIRP[10100]	/* MoveIndirectRelPt */\012IUP[0]	/* InterpolateUntPts */\012IUP[1]	/* InterpolateUntPts */";
};
width = 460;
}
);
note = OE.tabular;
},
{
color = 2;
glyphname = P.tabular;
lastChange = "2021-12-03 13:19:10 +0000";
layers = (
{
layerId = "04A772B0-FA71-43EE-BB43-CAC7F0EBD631";
paths = (
{
closed = 1;
nodes = (
"232 0 LINE",
"232 168 LINE",
"259 168 LINE SMOOTH",
"341.204 168 OFFCURVE",
"366 236.982 OFFCURVE",
"366 320 CURVE SMOOTH",
"366 394 LINE SMOOTH",
"366 452.667 OFFCURVE",
"332.667 496 OFFCURVE",
"254 496 CURVE SMOOTH",
"66 496 LINE",
"66 0 LINE"
);
},
{
closed = 1;
nodes = (
"83 478 LINE",
"254 478 LINE SMOOTH",
"322 478 OFFCURVE",
"350 443.333 OFFCURVE",
"350 394 CURVE SMOOTH",
"350 320 LINE SMOOTH",
"350 248.028 OFFCURVE",
"329.604 186 OFFCURVE",
"259 186 CURVE SMOOTH",
"216 186 LINE",
"216 18 LINE",
"83 18 LINE"
);
},
{
closed = 1;
nodes = (
"207 27 LINE",
"207 194 LINE",
"259 194 LINE SMOOTH",
"323.161 194 OFFCURVE",
"341 252.86 OFFCURVE",
"341 320 CURVE SMOOTH",
"341 394 LINE SMOOTH",
"341 438 OFFCURVE",
"316.667 469 OFFCURVE",
"254 469 CURVE SMOOTH",
"91 469 LINE",
"91 27 LINE"
);
},
{
closed = 1;
nodes = (
"207 407 LINE",
"218 407 LINE SMOOTH",
"224.667 407 OFFCURVE",
"228.5 401.5 OFFCURVE",
"229.5 390.5 CURVE SMOOTH",
"230.5 379.5 OFFCURVE",
"231 360.333 OFFCURVE",
"231 333 CURVE SMOOTH",
"231 305 OFFCURVE",
"229.833 285.667 OFFCURVE",
"227.5 275 CURVE SMOOTH",
"225.167 264.333 OFFCURVE",
"221.333 259 OFFCURVE",
"216 259 CURVE SMOOTH",
"207 259 LINE"
);
},
{
closed = 1;
nodes = (
"218 268 OFFCURVE",
"219.5 272.667 OFFCURVE",
"220.5 282 CURVE SMOOTH",
"221.5 291.333 OFFCURVE",
"222 308.333 OFFCURVE",
"222 333 CURVE SMOOTH",
"221.5 383.5 LINE SMOOTH",
"221.167 393.167 OFFCURVE",
"220 398 OFFCURVE",
"218 398 CURVE SMOOTH",
"216 398 LINE",
"216 268 LINE"
);
}
);
userData = {
assembly = "PUSHW[ ]	/* 4 values pushed */\01222 6 45 4 \012CALL[ ]	/* CallFunction */\012PUSHW[ ]	/* 4 values pushed */\0125 6 30 4 \012CALL[ ]	/* CallFunction */\012PUSHW[ ]	/* 1 value pushed */\01222 \012SRP0[ ]	/* SetRefPoint0 */\012PUSHW[ ]	/* 2 values pushed */\0120 6 \012MIRP[10100]	/* MoveIndirectRelPt */\012PUSHW[ ]	/* 1 value pushed */\01222 \012SRP0[ ]	/* SetRefPoint0 */\012PUSHW[ ]	/* 1 value pushed */\01211 \012MDRP[10000]	/* MoveDirectRelPt */\012PUSHW[ ]	/* 1 value pushed */\0125 \012SRP0[ ]	/* SetRefPoint0 */\012PUSHW[ ]	/* 2 values pushed */\01218 6 \012MIRP[10100]	/* MoveIndirectRelPt */\012PUSHW[ ]	/* 1 value pushed */\01230 \012SRP0[ ]	/* SetRefPoint0 */\012PUSHW[ ]	/* 1 value pushed */\01227 \012MDRP[10000]	/* MoveDirectRelPt */\012PUSHW[ ]	/* 1 value pushed */\01227 \012MDAP[1]	/* MoveDirectAbsPt */\012PUSHW[ ]	/* 1 value pushed */\01230 \012SRP0[ ]	/* SetRefPoint0 */\012PUSHW[ ]	/* 1 value pushed */\01232 \012MDRP[10000]	/* MoveDirectRelPt */\012PUSHW[ ]	/* 1 value pushed */\01218 \012SRP0[ ]	/* SetRefPoint0 */\012PUSHW[ ]	/* 2 values pushed */\01250 6 \012MIRP[10100]	/* MoveIndirectRelPt */\012PUSHW[ ]	/* 1 value pushed */\01218 \012SRP0[ ]	/* SetRefPoint0 */\012PUSHW[ ]	/* 1 value pushed */\01256 \012MDRP[10000]	/* MoveDirectRelPt */\012PUSHW[ ]	/* 1 value pushed */\01256 \012MDAP[1]	/* MoveDirectAbsPt */\012PUSHW[ ]	/* 1 value pushed */\0125 \012SRP0[ ]	/* SetRefPoint0 */\012PUSHW[ ]	/* 1 value pushed */\01260 \012MDRP[11100]	/* MoveDirectRelPt */\012SVTCA[0]	/* SetFreedomAndProjectionVectorToAxis */\012PUSHW[ ]	/* 1 value pushed */\0120 \012RCVT[ ]	/* ReadCVT */\012IF[ ]	/* If */\012PUSHW[ ]	/* 1 value pushed */\01245 \012MDAP[1]	/* MoveDirectAbsPt */\012ELSE[ ]	/* Else */\012PUSHW[ ]	/* 2 values pushed */\01245 11 \012MIAP[0]	/* MoveIndirectAbsPt */\012EIF[ ]	/* EndIf */\012PUSHW[ ]	/* 1 value pushed */\0120 \012RCVT[ ]	/* ReadCVT */\012IF[ ]	/* If */\012PUSHW[ ]	/* 1 value pushed */\01257 \012MDAP[1]	/* MoveDirectAbsPt */\012ELSE[ ]	/* Else */\012PUSHW[ ]	/* 2 values pushed */\01257 7 \012MIAP[0]	/* MoveIndirectAbsPt */\012EIF[ ]	/* EndIf */\012PUSHW[ ]	/* 3 values pushed */\01230 57 45 \012SRP1[ ]	/* SetRefPoint1 */\012SRP2[ ]	/* SetRefPoint2 */\012IP[ ]	/* InterpolatePts */\012PUSHW[ ]	/* 2 values pushed */\01233 4 \012MIRP[10100]	/* MoveIndirectRelPt */\012IUP[0]	/* InterpolateUntPts */\012IUP[1]	/* InterpolateUntPts */";
};
width = 443;
}
);
note = P.tabular;
},
{
color = 2;
glyphname = Q.tabular;
lastChange = "2021-12-03 13:19:10 +0000";
layers = (
{
layerId = "04A772B0-FA71-43EE-BB43-CAC7F0EBD631";
paths = (
{
closed = 1;
nodes = (
"377 -35 LINE",
"338 39 LINE",
"355.333 65.667 OFFCURVE",
"365 104 OFFCURVE",
"365 160 CURVE SMOOTH",
"365 383 LINE SMOOTH",
"365 479 OFFCURVE",
"310 514 OFFCURVE",
"218 514 CURVE SMOOTH",
"126 514 OFFCURVE",
"65 479 OFFCURVE",
"65 383 CURVE SMOOTH",
"65 159 LINE SMOOTH",
"65 29.51 OFFCURVE",
"110.351 -5.948 OFFCURVE",
"208 -9 CURVE",
"261 -108 LINE"
);
},
{
closed = 1;
nodes = (
"343 -25 LINE",
"307 43 LINE",
"328.333 63 OFFCURVE",
"340 97.333 OFFCURVE",
"340 160 CURVE SMOOTH",
"340 383 LINE SMOOTH",
"340 459 OFFCURVE",
"294 486 OFFCURVE",
"218 486 CURVE SMOOTH",
"140.667 486 OFFCURVE",
"90 459 OFFCURVE",
"90 383 CURVE SMOOTH",
"90 159 LINE SMOOTH",
"90 47.265 OFFCURVE",
"130.591 18 OFFCURVE",
"218 18 CURVE SMOOTH",
"223 18 LINE",
"270 -71 LINE"
);
},
{
closed = 1;
nodes = (
"218 9 LINE",
"125.455 9 OFFCURVE",
"82 40.933 OFFCURVE",
"82 159 CURVE SMOOTH",
"82 383 LINE SMOOTH",
"82 464.333 OFFCURVE",
"135.333 495 OFFCURVE",
"218 495 CURVE SMOOTH",
"299.333 495 OFFCURVE",
"349 465.667 OFFCURVE",
"349 383 CURVE SMOOTH",
"349 160 LINE SMOOTH",
"349 100 OFFCURVE",
"336.667 63.667 OFFCURVE",
"318 41 CURVE",
"355 -28 LINE",
"267 -84 LINE"
);
},
{
closed = 1;
nodes = (
"210 88 OFFCURVE",
"206 95.667 OFFCURVE",
"206 111 CURVE SMOOTH",
"206 389 LINE SMOOTH",
"206 398.333 OFFCURVE",
"207 404.667 OFFCURVE",
"209 408 CURVE SMOOTH",
"211 411.333 OFFCURVE",
"214 413 OFFCURVE",
"218 413 CURVE SMOOTH",
"221.333 413 OFFCURVE",
"224 411.333 OFFCURVE",
"226 408 CURVE SMOOTH",
"228 404.667 OFFCURVE",
"229 398.333 OFFCURVE",
"229 389 CURVE SMOOTH",
"229 111 LINE SMOOTH",
"229 95.667 OFFCURVE",
"225.333 88 OFFCURVE",
"218 88 CURVE SMOOTH"
);
},
{
closed = 1;
nodes = (
"219.333 97 OFFCURVE",
"220 101.667 OFFCURVE",
"220 111 CURVE SMOOTH",
"220 389 LINE SMOOTH",
"220 398.333 OFFCURVE",
"219.333 403 OFFCURVE",
"218 403 CURVE SMOOTH",
"215.333 403 OFFCURVE",
"214 398.333 OFFCURVE",
"214 389 CURVE SMOOTH",
"214 111 LINE SMOOTH",
"214 101.667 OFFCURVE",
"215.333 97 OFFCURVE",
"218 97 CURVE SMOOTH"
);
}
);
userData = {
assembly = "PUSHW[ ]	/* 4 values pushed */\01230 6 66 4 \012CALL[ ]	/* CallFunction */\012PUSHW[ ]	/* 4 values pushed */\01213 6 34 4 \012CALL[ ]	/* CallFunction */\012PUSHW[ ]	/* 1 value pushed */\01230 \012SRP0[ ]	/* SetRefPoint0 */\012PUSHW[ ]	/* 2 values pushed */\0125 6 \012MIRP[10100]	/* MoveIndirectRelPt */\012PUSHW[ ]	/* 1 value pushed */\01213 \012SRP0[ ]	/* SetRefPoint0 */\012PUSHW[ ]	/* 2 values pushed */\01222 6 \012MIRP[10100]	/* MoveIndirectRelPt */\012PUSHW[ ]	/* 1 value pushed */\01234 \012SRP0[ ]	/* SetRefPoint0 */\012PUSHW[ ]	/* 1 value pushed */\01239 \012MDRP[10000]	/* MoveDirectRelPt */\012PUSHW[ ]	/* 1 value pushed */\01239 \012MDAP[1]	/* MoveDirectAbsPt */\012PUSHW[ ]	/* 1 value pushed */\0125 \012SRP0[ ]	/* SetRefPoint0 */\012PUSHW[ ]	/* 2 values pushed */\01240 6 \012MIRP[10100]	/* MoveIndirectRelPt */\012PUSHW[ ]	/* 1 value pushed */\01222 \012SRP0[ ]	/* SetRefPoint0 */\012PUSHW[ ]	/* 2 values pushed */\01274 6 \012MIRP[10100]	/* MoveIndirectRelPt */\012PUSHW[ ]	/* 1 value pushed */\01213 \012SRP0[ ]	/* SetRefPoint0 */\012PUSHW[ ]	/* 1 value pushed */\01281 \012MDRP[11100]	/* MoveDirectRelPt */\012SVTCA[0]	/* SetFreedomAndProjectionVectorToAxis */\012PUSHW[ ]	/* 1 value pushed */\01279 \012MDAP[1]	/* MoveDirectAbsPt */\012PUSHW[ ]	/* 1 value pushed */\01270 \012MDAP[1]	/* MoveDirectAbsPt */\012PUSHW[ ]	/* 1 value pushed */\0120 \012RCVT[ ]	/* ReadCVT */\012IF[ ]	/* If */\012PUSHW[ ]	/* 1 value pushed */\01251 \012MDAP[1]	/* MoveDirectAbsPt */\012ELSE[ ]	/* Else */\012PUSHW[ ]	/* 2 values pushed */\01251 11 \012MIAP[0]	/* MoveIndirectAbsPt */\012EIF[ ]	/* EndIf */\012IUP[0]	/* InterpolateUntPts */\012IUP[1]	/* InterpolateUntPts */";
};
width = 444;
}
);
note = Q.tabular;
},
{
color = 2;
glyphname = R.tabular;
lastChange = "2021-12-03 13:19:10 +0000";
layers = (
{
layerId = "04A772B0-FA71-43EE-BB43-CAC7F0EBD631";
paths = (
{
closed = 1;
nodes = (
"392 0 LINE",
"345 194 LINE",
"338.333 212.667 OFFCURVE",
"333.667 223.333 OFFCURVE",
"327 234 CURVE",
"351 256.667 OFFCURVE",
"359 292.333 OFFCURVE",
"359 327 CURVE SMOOTH",
"359 394 LINE SMOOTH",
"359 454 OFFCURVE",
"325.333 496 OFFCURVE",
"244 496 CURVE SMOOTH",
"54 496 LINE",
"54 0 LINE"
);
},
{
closed = 1;
nodes = (
"71 478 LINE",
"244 478 LINE SMOOTH",
"313.333 478 OFFCURVE",
"342 443.333 OFFCURVE",
"342 394 CURVE SMOOTH",
"342 327 LINE SMOOTH",
"342 288.333 OFFCURVE",
"336.333 254.667 OFFCURVE",
"299 236 CURVE",
"309.667 228 OFFCURVE",
"320.333 212 OFFCURVE",
"331 184 CURVE",
"371 18 LINE",
"229 21 LINE",
"218 74 LINE SMOOTH",
"214.667 87.333 OFFCURVE",
"211.833 100.167 OFFCURVE",
"209.5 112.5 CURVE SMOOTH",
"205 134 LINE",
"205 18 LINE",
"71 18 LINE"
);
},
{
closed = 1;
nodes = (
"197 27 LINE",
"197 223 LINE",
"198 223 LINE",
"198 218.944 OFFCURVE",
"211.891 146.653 OFFCURVE",
"216 122 CURVE SMOOTH",
"220.667 94 OFFCURVE",
"226.333 62.333 OFFCURVE",
"233 27 CURVE",
"360 27 LINE",
"321 188 LINE",
"307.667 226.667 OFFCURVE",
"292.667 233.333 OFFCURVE",
"274 236 CURVE",
"320.667 248 OFFCURVE",
"333 284.333 OFFCURVE",
"333 327 CURVE SMOOTH",
"333 394 LINE SMOOTH",
"333 438 OFFCURVE",
"308 469 OFFCURVE",
"244 469 CURVE SMOOTH",
"79 469 LINE",
"79 27 LINE"
);
},
{
closed = 1;
nodes = (
"197 407 LINE",
"208 407 LINE SMOOTH",
"214.667 407 OFFCURVE",
"218.5 401.5 OFFCURVE",
"219.5 390.5 CURVE SMOOTH",
"220.5 379.5 OFFCURVE",
"221 360.333 OFFCURVE",
"221 333 CURVE SMOOTH",
"221 305 OFFCURVE",
"219.833 287 OFFCURVE",
"217.5 279 CURVE SMOOTH",
"215.167 271 OFFCURVE",
"211.333 267 OFFCURVE",
"206 267 CURVE SMOOTH",
"197 267 LINE"
);
},
{
closed = 1;
nodes = (
"206 276 LINE SMOOTH",
"208.667 276 OFFCURVE",
"210.333 279.5 OFFCURVE",
"211 286.5 CURVE SMOOTH",
"211.667 293.5 OFFCURVE",
"212 309 OFFCURVE",
"212 333 CURVE SMOOTH",
"211.5 383.5 LINE SMOOTH",
"211.167 393.167 OFFCURVE",
"210 398 OFFCURVE",
"208 398 CURVE SMOOTH",
"205 398 LINE",
"205 276 LINE"
);
}
);
userData = {
assembly = "PUSHW[ ]	/* 4 values pushed */\01232 6 63 4 \012CALL[ ]	/* CallFunction */\012PUSHW[ ]	/* 4 values pushed */\0124 6 33 4 \012CALL[ ]	/* CallFunction */\012PUSHW[ ]	/* 1 value pushed */\01232 \012SRP0[ ]	/* SetRefPoint0 */\012PUSHW[ ]	/* 2 values pushed */\0120 6 \012MIRP[10100]	/* MoveIndirectRelPt */\012PUSHW[ ]	/* 3 values pushed */\0128 33 4 \012SRP1[ ]	/* SetRefPoint1 */\012SRP2[ ]	/* SetRefPoint2 */\012IP[ ]	/* InterpolatePts */\012PUSHW[ ]	/* 1 value pushed */\0124 \012SRP0[ ]	/* SetRefPoint0 */\012PUSHW[ ]	/* 2 values pushed */\01228 6 \012MIRP[10100]	/* MoveIndirectRelPt */\012PUSHW[ ]	/* 2 values pushed */\01268 6 \012MIRP[10100]	/* MoveIndirectRelPt */\012PUSHW[ ]	/* 1 value pushed */\01212 \012MDRP[10000]	/* MoveDirectRelPt */\012PUSHW[ ]	/* 1 value pushed */\01212 \012MDAP[1]	/* MoveDirectAbsPt */\012PUSHW[ ]	/* 1 value pushed */\01232 \012SRP0[ ]	/* SetRefPoint0 */\012PUSHW[ ]	/* 1 value pushed */\01221 \012MDRP[10000]	/* MoveDirectRelPt */\012PUSHW[ ]	/* 1 value pushed */\01233 \012SRP0[ ]	/* SetRefPoint0 */\012PUSHW[ ]	/* 1 value pushed */\01237 \012MDRP[10000]	/* MoveDirectRelPt */\012PUSHW[ ]	/* 1 value pushed */\01237 \012MDAP[1]	/* MoveDirectAbsPt */\012PUSHW[ ]	/* 1 value pushed */\01233 \012SRP0[ ]	/* SetRefPoint0 */\012PUSHW[ ]	/* 1 value pushed */\01243 \012MDRP[10000]	/* MoveDirectRelPt */\012PUSHW[ ]	/* 3 values pushed */\01254 33 4 \012SRP1[ ]	/* SetRefPoint1 */\012SRP2[ ]	/* SetRefPoint2 */\012IP[ ]	/* InterpolatePts */\012SVTCA[0]	/* SetFreedomAndProjectionVectorToAxis */\012PUSHW[ ]	/* 1 value pushed */\0120 \012RCVT[ ]	/* ReadCVT */\012IF[ ]	/* If */\012PUSHW[ ]	/* 1 value pushed */\01263 \012MDAP[1]	/* MoveDirectAbsPt */\012ELSE[ ]	/* Else */\012PUSHW[ ]	/* 2 values pushed */\01263 11 \012MIAP[0]	/* MoveIndirectAbsPt */\012EIF[ ]	/* EndIf */\012PUSHW[ ]	/* 1 value pushed */\0120 \012RCVT[ ]	/* ReadCVT */\012IF[ ]	/* If */\012PUSHW[ ]	/* 1 value pushed */\01275 \012MDAP[1]	/* MoveDirectAbsPt */\012ELSE[ ]	/* Else */\012PUSHW[ ]	/* 2 values pushed */\01275 7 \012MIAP[0]	/* MoveIndirectAbsPt */\012EIF[ ]	/* EndIf */\012PUSHW[ ]	/* 3 values pushed */\0128 75 63 \012SRP1[ ]	/* SetRefPoint1 */\012SRP2[ ]	/* SetRefPoint2 */\012IP[ ]	/* InterpolatePts */\012PUSHW[ ]	/* 3 values pushed */\01221 75 63 \012SRP1[ ]	/* SetRefPoint1 */\012SRP2[ ]	/* SetRefPoint2 */\012IP[ ]	/* InterpolatePts */\012PUSHW[ ]	/* 3 values pushed */\01241 75 63 \012SRP1[ ]	/* SetRefPoint1 */\012SRP2[ ]	/* SetRefPoint2 */\012IP[ ]	/* InterpolatePts */\012PUSHW[ ]	/* 3 values pushed */\01250 75 63 \012SRP1[ ]	/* SetRefPoint1 */\012SRP2[ ]	/* SetRefPoint2 */\012IP[ ]	/* InterpolatePts */\012PUSHW[ ]	/* 3 values pushed */\01254 75 63 \012SRP1[ ]	/* SetRefPoint1 */\012SRP2[ ]	/* SetRefPoint2 */\012IP[ ]	/* InterpolatePts */\012IUP[0]	/* InterpolateUntPts */\012IUP[1]	/* InterpolateUntPts */";
};
width = 449;
}
);
note = R.tabular;
},
